<svg width="60" height="60" viewBox="0 0 60 60" fill="none" xmlns="http://www.w3.org/2000/svg">
<g clip-path="url(#clip0_755_303)">
<path d="M43.9895 26.1086L42.2875 26.6209C42.1355 26.6666 42.0485 26.8284 42.0942 26.9805L42.617 28.7177C42.7903 28.7144 42.9611 28.7121 43.1261 28.7121C43.7304 28.7121 44.3955 28.7355 45.0935 28.7753L44.3491 26.3019C44.3034 26.1499 44.1414 26.0629 43.9895 26.1086ZM42.4512 27.1337L42.4096 26.9954L43.5671 26.647L43.6087 26.7853L42.4512 27.1337ZM43.9828 26.7765C43.8827 26.8066 43.777 26.7499 43.7468 26.6496C43.7167 26.5494 43.7735 26.4438 43.8737 26.4136C43.9739 26.3834 44.0795 26.4403 44.1097 26.5405C44.1399 26.6406 44.083 26.7463 43.9828 26.7765Z" fill="#1D2630"/>
<path d="M26.2524 42.8156H27.5504V45.5618C27.5504 46.2787 28.1302 46.859 28.8491 46.859H31.4429C32.161 46.859 32.7421 46.2787 32.7421 45.5618V42.8156H53.5102V45.5618C53.5102 46.2787 54.0904 46.859 54.8079 46.859H57.4031C58.1212 46.859 58.7021 46.2787 58.7021 45.5618V42.8156H60V38.7839H26.2524V42.8156Z" fill="#1D2630"/>
<path d="M26.2524 38.1943V38.3509H60V38.1943V31.7397C60 31.7397 59.5107 31.5775 58.6365 31.3337L54.4638 20.1991C54.4638 20.1991 45.7984 18.7573 43.1279 18.7573C40.4556 18.7573 31.7911 20.1991 31.7911 20.1991L27.6172 31.3337C26.7417 31.5775 26.2524 31.7397 26.2524 31.7397V38.1943ZM57.2152 34.7185C57.2152 35.9267 56.2369 36.9058 55.0279 36.9058C53.8208 36.9058 52.8414 35.9267 52.8414 34.7185C52.8414 33.5101 53.8208 32.5308 55.0279 32.5308C56.2369 32.5308 57.2152 33.5101 57.2152 34.7185ZM33.6938 22.5168C35.6805 22.1972 41.1232 21.355 43.1279 21.355C45.1308 21.355 50.5745 22.1972 52.5599 22.5144L55.5298 30.438C55.5298 30.438 47.6593 29.1449 43.1262 29.1449C38.5916 29.1449 30.7187 30.438 30.7187 30.438L33.6938 22.5168ZM31.2245 32.5308C32.4316 32.5308 33.4116 33.5101 33.4116 34.7185C33.4116 35.9267 32.4316 36.9058 31.2245 36.9058C30.0155 36.9058 29.0369 35.9267 29.0369 34.7185C29.0369 33.5101 30.0155 32.5308 31.2245 32.5308Z" fill="#1D2630"/>
<path d="M49.6377 28.8377C51.3271 28.4384 52.3728 26.7452 51.9735 25.0558C51.5742 23.3665 49.881 22.3207 48.1916 22.7201C46.5023 23.1194 45.4565 24.8126 45.8559 26.5019C46.2552 28.1913 47.9484 29.237 49.6377 28.8377Z" fill="#1D2630"/>
<path d="M9.49766 38.8047L5.62017 43.9081C5.0173 44.7015 5.17188 45.8332 5.96527 46.4361C6.29161 46.6839 6.67496 46.8037 7.05542 46.8037C7.59998 46.8037 8.13849 46.558 8.4934 46.091L12.7658 40.4679C13.021 40.1322 13.1503 39.7177 13.1315 39.2964L13.0468 37.3885L9.25591 33.356L9.49766 38.8047Z" fill="#1D2630"/>
<path d="M15.2861 20.2699C17.0796 20.2699 18.5335 18.8159 18.5335 17.0224C18.5335 15.2288 17.0796 13.7749 15.2861 13.7749C13.4925 13.7749 12.0386 15.2288 12.0386 17.0224C12.0386 18.8159 13.4925 20.2699 15.2861 20.2699Z" fill="#1D2630"/>
<path d="M14.2196 28.7258L14.1 28.5693C14.0952 28.6116 14.0916 28.6539 14.0864 28.6962C14.312 29.2372 14.5132 29.8003 14.6873 30.3839C14.8995 30.0337 15.1008 29.6726 15.2925 29.3031C14.872 29.2718 14.4768 29.0624 14.2196 28.7258Z" fill="#1D2630"/>
<path d="M7.15788 32.0915L7.47931 30.7338L6.44343 30.4886C6.45094 30.459 6.45772 30.4293 6.46292 30.3988C6.84886 28.1272 7.60343 26.5177 8.43796 25.3811C8.06688 27.1307 8.04191 28.7293 8.30215 30.9646C8.43912 31.6694 8.6816 32.1815 8.98917 32.5537C9.0407 32.6288 9.09655 32.7018 9.16078 32.7702L14.3605 38.3013L16.7691 45.5728C17.0201 46.3304 17.7249 46.8101 18.4815 46.8101C18.6695 46.8101 18.8608 46.7804 19.0491 46.7181C19.9951 46.4047 20.5078 45.384 20.1946 44.4382L17.6605 36.7886C17.578 36.5394 17.442 36.3113 17.2623 36.1202L13.4698 32.0859C13.4815 31.8704 13.4794 31.6235 13.4625 31.3377C13.3112 30.209 13.3738 28.9948 13.5241 27.8161L10.6348 24.0377C10.3937 23.7223 10.2896 23.3317 10.3421 22.9381C10.3947 22.5445 10.5973 22.195 10.9127 21.9538C11.1744 21.7537 11.4864 21.6479 11.8149 21.6479C12.2823 21.6479 12.7131 21.8607 12.9967 22.2316L15.0604 24.9304C14.8052 23.6656 14.4869 22.4799 14.1801 21.8302C13.9468 21.1605 13.4975 20.633 12.8671 20.4758C12.5483 20.3964 12.1922 20.3829 11.827 20.4423C11.7686 20.4442 11.7097 20.4491 11.6505 20.4604C11.4047 20.5067 5.62637 21.6863 4.19632 29.9567L3.12537 29.7031L2.80395 31.0609L1.34085 30.7146L0 36.3795L7.27998 38.1027L8.62083 32.4378L7.15788 32.0915ZM6.52585 31.9419L3.43598 31.2105L3.60759 30.485L4.25521 30.6383C4.4007 30.9968 4.72169 31.2745 5.13102 31.3441C5.1964 31.3552 5.2615 31.3605 5.32587 31.3605C5.61193 31.3605 5.88054 31.253 6.08664 31.0718L6.6976 31.2165L6.52585 31.9419Z" fill="#1D2630"/>
<path d="M21.6712 25.0986L23.8968 23.2638L23.5143 22.7998L21.2642 24.6548C21.4267 24.7717 21.5658 24.9216 21.6712 25.0986Z" fill="#1D2630"/>
<path d="M24.419 19.9571L23.9045 22.156L25.1417 19.9578H26.1034C27.5245 19.9578 28.6765 18.8057 28.6765 17.3846V15.7143C28.6767 14.2932 27.5246 13.1411 26.1034 13.1411H24.433C23.0119 13.1411 21.8599 14.2932 21.8599 15.7143V17.3846C21.86 18.801 23.0044 19.9494 24.419 19.9571ZM25.2683 14.3353C26.4911 14.3353 27.4823 15.3266 27.4823 16.5494C27.4823 17.7722 26.4911 18.7634 25.2683 18.7634C24.0455 18.7634 23.0542 17.7722 23.0542 16.5494C23.0542 15.3266 24.0455 14.3353 25.2683 14.3353Z" fill="#1D2630"/>
<path d="M24.1351 16.9658H24.4488L24.5107 17.286H24.7448L24.4466 15.813H24.1353L23.8525 17.286H24.0757L24.1351 16.9658ZM24.2897 16.0956L24.4113 16.7559H24.1705L24.2897 16.0956Z" fill="#1D2630"/>
<path d="M25.1292 16.6896H25.2794C25.4274 16.6896 25.5202 16.6608 25.5886 16.5946C25.6681 16.5195 25.7056 16.4091 25.7056 16.2501C25.7056 16.0933 25.6681 15.9828 25.5886 15.9077C25.5202 15.8415 25.4274 15.8127 25.2794 15.8127H24.9019V17.2858H25.1293V16.6896H25.1292ZM25.1292 16.0226H25.2286C25.4118 16.0226 25.4694 16.0779 25.4694 16.2501C25.4694 16.4246 25.4119 16.4797 25.2286 16.4797H25.1292V16.0226Z" fill="#1D2630"/>
<path d="M26.1077 16.6896H26.2579C26.4059 16.6896 26.4987 16.6608 26.5671 16.5946C26.6466 16.5195 26.6842 16.4091 26.6842 16.2501C26.6842 16.0933 26.6466 15.9828 26.5671 15.9077C26.4987 15.8415 26.4059 15.8127 26.2579 15.8127H25.8804V17.2858H26.1078V16.6896H26.1077ZM26.1077 16.0226H26.2071C26.3904 16.0226 26.4479 16.0779 26.4479 16.2501C26.4479 16.4246 26.3904 16.4797 26.2071 16.4797H26.1077V16.0226Z" fill="#1D2630"/>
<path d="M12.7331 22.4333C12.3458 21.9269 11.6213 21.83 11.1145 22.2174C10.6079 22.6048 10.5112 23.3295 10.8987 23.836L14.4837 28.5242C14.7069 28.8163 15.0492 28.9775 15.401 28.9775C15.5423 28.9775 15.6852 28.9515 15.8225 28.8977L20.8178 26.9378C21.4115 26.7049 21.7039 26.0349 21.4709 25.4412C21.238 24.8476 20.5679 24.5552 19.9744 24.7881L15.7893 26.4301L12.7331 22.4333Z" fill="#1D2630"/>
</g>
<defs>
<clipPath id="clip0_755_303">
<rect width="60" height="60" fill="white"/>
</clipPath>
</defs>
</svg>
