<svg width="60" height="48" viewBox="0 0 60 48" fill="none" xmlns="http://www.w3.org/2000/svg">
<path d="M54.239 32.6203C53.7187 32.6203 53.2968 32.1984 53.2968 31.6781V0.610547C53.2968 0.355078 53.08 0.140625 52.8245 0.140625H41.7573C41.4983 0.140625 41.2886 0.351562 41.2886 0.610547V31.6781C41.2886 32.1984 40.8667 32.6203 40.3464 32.6203H34.5854L47.2921 47.3625L53.9577 39.6246L59.9999 32.6203H54.239Z" fill="#1D2630"/>
<path d="M34.0734 30.7359H39.4055V12.6187C35.7914 7.74605 30.0492 4.84448 23.9801 4.84448C13.4039 4.84448 4.79883 13.4378 4.79883 24C4.79883 34.5621 13.4027 43.1554 23.9801 43.1554C28.7965 43.1554 33.3445 41.3917 36.8836 38.1714L32.823 33.4605C32.3941 32.966 32.298 32.2875 32.5758 31.6921C32.8465 31.105 33.4207 30.7359 34.0734 30.7359ZM31.1496 28.7437C31.0359 30.3726 30.2402 31.8691 29.018 32.9414C27.9879 33.8496 26.741 34.3921 25.4191 34.623V36.8941C25.4191 37.664 24.7898 38.2886 24.0234 38.2886H23.7141C22.943 38.2886 22.3184 37.664 22.3184 36.8941V34.5878C20.6555 34.2257 19.1742 33.2964 18.1301 31.9617C17.857 31.6136 17.768 31.1988 17.8746 30.7699C17.9812 30.341 18.2508 30.014 18.6562 29.8335L18.948 29.7023C19.534 29.4363 20.2055 29.5957 20.6109 30.0996C21.3926 31.0687 22.5832 31.657 23.8687 31.657C24.9844 31.657 26.1176 31.3664 26.9707 30.6175C27.5777 30.082 28.0008 29.3402 28.0582 28.5246C28.2211 26.2746 25.7918 25.5691 23.966 25.5515C22.0055 25.5304 19.984 25.0335 18.5238 23.6531C17.3051 22.507 16.6945 20.9214 16.8117 19.2574C16.9289 17.632 17.7246 16.1355 18.9434 15.0597C19.977 14.155 21.2238 13.6125 22.5457 13.3816V11.107C22.5457 10.3406 23.1715 9.71245 23.9414 9.71245H24.2508C25.0184 9.71245 25.6465 10.3406 25.6465 11.107V13.4132C27.3094 13.7753 28.7906 14.7082 29.8312 16.0429C30.1043 16.391 30.1934 16.8058 30.0867 17.2347C29.9836 17.6636 29.7105 17.9906 29.3086 18.171L29.0168 18.3023C28.4273 18.5683 27.7559 18.4089 27.3539 17.905C26.5723 16.9359 25.3816 16.3476 24.0926 16.3476C22.977 16.3476 21.8438 16.6382 20.9906 17.3871C20.3871 17.9191 19.9641 18.6644 19.9031 19.4765C19.7437 21.73 22.1695 22.432 23.9953 22.4531C25.9559 22.4742 27.982 22.971 29.4422 24.348C30.6563 25.4976 31.2703 27.0832 31.1496 28.7437Z" fill="#1D2630"/>
<path d="M23.9801 45.0386C12.3656 45.0386 2.91562 35.6003 2.91562 23.9999C2.91562 12.3995 12.3656 2.96123 23.9801 2.96123C29.8512 2.96123 35.4445 5.43389 39.4055 9.67959V5.66475C35.0883 2.04131 29.6285 0.050293 23.9801 0.050293C10.7578 0.0514648 0 10.794 0 23.9999C0 37.2058 10.7578 47.9483 23.9801 47.9483C29.9461 47.9483 35.6039 45.7722 40.0148 41.8042L38.1141 39.5987C34.2328 43.1144 29.2523 45.0386 23.9801 45.0386Z" fill="#1D2630"/>
</svg>
