<svg width="48" height="46" viewBox="0 0 48 46" fill="none" xmlns="http://www.w3.org/2000/svg">
<path d="M11.3492 29.1047C11.4875 29.0164 11.6391 28.9281 11.8078 28.8398C11.0906 26.7196 10.7228 24.4969 10.7188 22.2586V9.875C10.7188 9.68546 10.7878 9.50242 10.9129 9.35998C11.0379 9.21754 11.2105 9.12542 11.3984 9.10078C15.6854 8.53831 19.8312 7.18744 23.6266 5.11641C23.7412 5.05405 23.8695 5.02137 24 5.02137C24.1305 5.02137 24.2588 5.05405 24.3734 5.11641C28.1691 7.18733 32.3152 8.53819 36.6023 9.10078C36.7901 9.12559 36.9625 9.21779 37.0874 9.36021C37.2123 9.50263 37.2812 9.68558 37.2812 9.875V22.2586C37.2759 26.0113 36.2526 29.6923 34.3203 32.9094L34.9312 33.243L38.3352 33.768C40.2098 30.2213 41.189 26.2702 41.1875 22.2586V5.49297C35.2288 5.48856 29.3951 3.78349 24.3719 0.578125L24 0.34375L23.6281 0.578125C18.605 3.78357 12.7713 5.48865 6.8125 5.49297V22.2586C6.812 25.1798 7.33129 28.0779 8.34609 30.8172L11.3492 29.1047Z" fill="#1D2630"/>
<path d="M24 6.68677C20.3407 8.62907 16.3781 9.93593 12.2812 10.5516V22.2586C12.285 24.3068 12.6178 26.3411 13.2672 28.2836C15.2554 27.8206 17.2957 27.6202 19.3359 27.6875C22.2558 27.6161 25.1555 28.1899 27.8281 29.368L32.9461 32.161C34.7539 29.1739 35.7125 25.7502 35.7188 22.2586V10.5516C31.622 9.93569 27.6594 8.62885 24 6.68677ZM24 22.8657L21.9797 24.886C21.6867 25.1789 21.2893 25.3435 20.875 25.3435C20.4607 25.3435 20.0633 25.1789 19.7703 24.886L15.4062 20.5219L17.75 18.1782L20.875 21.3032L24 18.1782L30.25 11.9282L32.5938 14.2719L24 22.8657Z" fill="#1D2630"/>
<path d="M9.9375 45.6562C11.6634 45.6562 13.0625 44.2571 13.0625 42.5312C13.0625 40.8054 11.6634 39.4062 9.9375 39.4062C8.21161 39.4062 6.8125 40.8054 6.8125 42.5312C6.8125 44.2571 8.21161 45.6562 9.9375 45.6562Z" fill="#1D2630"/>
<path d="M47.2499 39.6172L46.6327 37.6094C46.6177 37.5689 46.5994 37.5297 46.578 37.4922C46.3443 37.1342 46.0277 36.8379 45.655 36.6284C45.2824 36.419 44.8646 36.3026 44.4374 36.2891L34.4998 34.7578C34.4503 34.7518 34.4025 34.7358 34.3592 34.711L27.0858 30.7422C24.6411 29.6891 21.9967 29.18 19.3358 29.25C14.0545 29.25 12.703 30.0938 12.1248 30.4609L7.7811 32.9453C7.53882 33.0849 7.26384 33.1577 6.98422 33.1563H4.49985C2.89829 33.1563 1.76547 34.2422 1.39829 36.0938L0.609223 39.25C0.540096 39.6139 0.554827 39.9888 0.652295 40.3462C0.749763 40.7036 0.927404 41.0341 1.17172 41.3125C1.48365 41.6868 1.87264 41.9895 2.31217 42.1998C2.75169 42.4101 3.23141 42.5232 3.7186 42.5313H5.24985C5.24985 41.2881 5.74371 40.0958 6.62279 39.2167C7.50186 38.3376 8.69415 37.8438 9.93735 37.8438C11.1806 37.8438 12.3728 38.3376 13.2519 39.2167C14.131 40.0958 14.6248 41.2881 14.6248 42.5313H32.5936C32.5936 41.2881 33.0875 40.0958 33.9665 39.2167C34.8456 38.3376 36.0379 37.8438 37.2811 37.8438C38.5243 37.8438 39.7166 38.3376 40.5957 39.2167C41.4747 40.0958 41.9686 41.2881 41.9686 42.5313H45.3749C45.7195 42.5307 46.0585 42.4437 46.3608 42.2784C46.6632 42.1131 46.9194 41.8746 47.1058 41.5848C47.2923 41.295 47.4032 40.963 47.4284 40.6193C47.4535 40.2756 47.3921 39.9311 47.2499 39.6172ZM18.5545 34.2422C15.5623 34.0781 12.5467 33.8516 9.88266 33.5391L12.953 31.7813C13.3514 31.5313 14.3827 30.8906 18.5545 30.8203V34.2422ZM20.117 34.3281V30.8281C22.2551 30.8396 24.3693 31.2779 26.3358 32.1172L31.0311 34.6797C28.2498 34.6328 24.2733 34.5391 20.117 34.3281Z" fill="#1D2630"/>
<path d="M37.2812 45.6562C39.0071 45.6562 40.4062 44.2571 40.4062 42.5312C40.4062 40.8054 39.0071 39.4062 37.2812 39.4062C35.5554 39.4062 34.1562 40.8054 34.1562 42.5312C34.1562 44.2571 35.5554 45.6562 37.2812 45.6562Z" fill="#1D2630"/>
</svg>
