<svg width="24" height="24" viewBox="0 0 24 24" fill="none" xmlns="http://www.w3.org/2000/svg">
<g clip-path="url(#clip0_755_2238)">
<path fill-rule="evenodd" clip-rule="evenodd" d="M12 0C18.6274 0 24 5.37258 24 12C24 18.6274 18.6274 24 12 24C5.37258 24 0 18.6274 0 12C0 5.37258 5.37258 0 12 0Z" fill="#535C65"/>
<path d="M12 6C10.6744 6.00147 9.40354 6.49863 8.4662 7.38241C7.52885 8.26619 7.00157 9.46443 7.00001 10.7143C6.99842 11.7357 7.35227 12.7293 8.00728 13.5429C8.00728 13.5429 8.14364 13.7121 8.16591 13.7366L12 18L15.8359 13.7344C15.8559 13.7117 15.9927 13.5429 15.9927 13.5429L15.9932 13.5416C16.6479 12.7284 17.0015 11.7352 17 10.7143C16.9984 9.46443 16.4711 8.26619 15.5338 7.38241C14.5965 6.49863 13.3256 6.00147 12 6ZM12 12.4286C11.6404 12.4286 11.2889 12.328 10.9899 12.1397C10.6909 11.9513 10.4578 11.6836 10.3202 11.3703C10.1826 11.0571 10.1466 10.7124 10.2168 10.3798C10.2869 10.0473 10.4601 9.74185 10.7144 9.5021C10.9686 9.26236 11.2926 9.09909 11.6453 9.03294C11.998 8.96679 12.3636 9.00074 12.6958 9.13049C13.028 9.26024 13.312 9.47997 13.5118 9.76188C13.7115 10.0438 13.8182 10.3752 13.8182 10.7143C13.8176 11.1688 13.6258 11.6045 13.285 11.9258C12.9441 12.2472 12.482 12.428 12 12.4286Z" fill="#F6EDFF"/>
</g>
<defs>
<clipPath id="clip0_755_2238">
<rect width="24" height="24" fill="white"/>
</clipPath>
</defs>
</svg>
