<svg width="24" height="24" viewBox="0 0 24 24" fill="none" xmlns="http://www.w3.org/2000/svg">
<g clip-path="url(#clip0_755_2229)">
<path d="M12 0.75C9.77496 0.75 7.59989 1.4098 5.74984 2.64597C3.89979 3.88213 2.45785 5.63914 1.60636 7.69481C0.754875 9.75048 0.532087 12.0125 0.966171 14.1948C1.40025 16.3771 2.47171 18.3816 4.04505 19.955C5.61839 21.5283 7.62295 22.5998 9.80524 23.0338C11.9875 23.4679 14.2495 23.2451 16.3052 22.3936C18.3609 21.5422 20.1179 20.1002 21.354 18.2502C22.5902 16.4001 23.25 14.225 23.25 12C23.25 9.01631 22.0647 6.15483 19.955 4.04505C17.8452 1.93526 14.9837 0.75 12 0.75ZM12.4823 7.6605C13.5049 7.66169 14.4853 8.06846 15.2084 8.79158C15.9315 9.5147 16.3383 10.4951 16.3395 11.5177H15.375C15.3742 10.7508 15.0692 10.0155 14.5269 9.47314C13.9845 8.93082 13.2492 8.62579 12.4823 8.625V7.6605ZM15.606 18.75C15.5768 18.75 12.681 18.7005 8.95725 15.0427C5.2995 11.3205 5.25 8.42325 5.25 8.394C5.25 8.03325 7.5 5.25 7.99725 5.25C8.16975 5.25 8.304 5.367 8.451 5.5425C8.805 5.964 10.3703 8.4345 10.2983 8.84625C10.2638 9.03975 10.0995 9.18675 9.6285 9.582C9.39643 9.76445 9.17924 9.96508 8.979 10.182C9.0749 10.5789 9.21739 10.9631 9.4035 11.3265C10.0969 12.7522 11.249 13.9038 12.675 14.5965C13.0384 14.7826 13.4226 14.9251 13.8195 15.021C14.0364 14.8208 14.2371 14.6036 14.4195 14.3715C14.8148 13.9005 14.9618 13.7362 15.1553 13.7017C15.567 13.6267 18.0375 15.195 18.459 15.549C18.6345 15.699 18.7515 15.8302 18.7515 16.0028C18.75 16.5 15.9668 18.75 15.606 18.75ZM17.7855 11.5177C17.7839 10.1117 17.2247 8.76375 16.2305 7.76954C15.2363 6.77533 13.8883 6.21609 12.4823 6.2145V5.25C14.144 5.25198 15.737 5.91297 16.912 7.08797C18.087 8.26297 18.748 9.85605 18.75 11.5177H17.7855Z" fill="#535C65"/>
</g>
<defs>
<clipPath id="clip0_755_2229">
<rect width="24" height="24" fill="white"/>
</clipPath>
</defs>
</svg>
