<svg width="34" height="17" viewBox="0 0 34 17" fill="none" xmlns="http://www.w3.org/2000/svg">
<path d="M33.8437 12.522L33.8437 4.06055C33.8437 1.81764 31.349 -1.09049e-07 29.1061 -2.0709e-07L4.06206 -1.3018e-06C1.81987 -1.39981e-06 0.000793378 1.81764 0.00079328 4.06055L0.00079291 12.522C0.000792812 14.7642 1.81916 16.5833 4.06206 16.5833L29.1061 16.5833C31.349 16.5818 33.8437 14.7642 33.8437 12.522ZM23.6344 15.8716L15.2406 15.8716L14.9881 13.9079L18.4463 13.9079L23.6344 15.8716ZM26.0918 14.8412C23.2855 14.1101 19.9682 13.2445 19.9682 13.2445L19.9682 3.33738L26.0918 1.73849C26.0918 1.73921 28.2635 8.13117 26.0918 14.8412ZM18.2197 2.69696L14.9873 2.69696L15.2385 0.732524L23.4085 0.732525L18.2197 2.69696ZM6.54459 0.732524L13.9986 0.732524L13.7518 2.69696L7.85421 2.69696L6.54459 0.732524ZM4.42617 1.8529L6.82666 3.44891L6.82666 13.3582L4.42617 14.9549L4.42617 1.8529ZM8.07944 13.9079L13.7439 13.9079L13.9994 15.8716L6.7691 15.8716L8.07944 13.9079Z" fill="#FFDC00"/>
</svg>
