<svg width="20" height="20" viewBox="0 0 20 20" fill="none" xmlns="http://www.w3.org/2000/svg">
<path d="M1.91577 15.2882C1.40468 15.2882 1.0002 14.8671 1.0002 14.3827V5.85419H15.6859V11.3714L16.6861 11.6452V3.49566C16.6861 2.46381 15.8348 1.60042 14.7703 1.60042H13.0678V0.610682C13.0678 0.273768 12.791 0 12.4509 0H11.0462C10.7052 0 10.4285 0.273768 10.4285 0.610682V1.62148H6.25758V0.610682C6.25758 0.273768 5.98087 0 5.63988 0H4.2352C3.89502 0 3.61831 0.273768 3.61831 0.610682V1.62148H1.91577C0.872431 1.62148 0 2.46381 0 3.51672V14.3827C0 15.4146 0.851272 16.278 1.91577 16.278H11.4075L11.1308 15.2882H1.91577Z" fill="#555B60"/>
<path d="M5.51211 7.89681C5.51211 7.62304 5.27853 7.39141 5.00183 7.39141H3.02258C2.74588 7.39141 2.5115 7.62304 2.5115 7.89681V9.45511C2.5115 9.62743 2.60427 9.78307 2.74181 9.87473C2.78739 9.90476 2.83703 9.92793 2.88993 9.94258C2.93225 9.95425 2.97701 9.96051 3.02258 9.96051H5.00183C5.27853 9.96051 5.51211 9.72888 5.51211 9.45511V7.89681Z" fill="#555B60"/>
<path d="M9.73754 7.60775C9.79695 7.6903 9.83276 7.79038 9.83276 7.89681V9.45511C9.83276 9.72888 9.59919 9.96051 9.32248 9.96051H7.34324C7.06653 9.96051 6.83215 9.72888 6.83215 9.45511V7.89681C6.83215 7.83318 6.84435 7.77184 6.86714 7.71515C6.88667 7.66785 6.91353 7.6238 6.94446 7.58433L6.98352 7.54168C7.07711 7.44942 7.20488 7.39141 7.34324 7.39141H9.32248C9.49176 7.39141 9.64476 7.47795 9.73754 7.60775Z" fill="#555B60"/>
<path d="M11.6842 7.41247C11.4075 7.41247 11.1731 7.6441 11.1731 7.91786V9.47617C11.1731 9.5679 11.2 9.6549 11.2448 9.73002C11.2578 9.75126 11.2724 9.77155 11.2879 9.79075C11.3034 9.80972 11.3204 9.82763 11.3384 9.84429C11.4303 9.92897 11.5524 9.98156 11.6842 9.98156H13.6635C13.9402 9.98156 14.1738 9.74994 14.1738 9.47617V7.89681C14.1738 7.62304 13.9402 7.39141 13.6635 7.39141H11.6842V7.41247Z" fill="#555B60"/>
<path d="M3.02258 11.203H5.00183C5.14507 11.203 5.27609 11.2649 5.36968 11.3624C5.45758 11.4536 5.51211 11.5761 5.51211 11.7084V13.2667C5.51211 13.4015 5.45595 13.5262 5.36562 13.6179C5.27202 13.7124 5.14262 13.7721 5.00183 13.7721H3.02258C2.74588 13.7721 2.5115 13.5404 2.5115 13.2667V11.7084C2.5115 11.4346 2.74588 11.203 3.02258 11.203Z" fill="#555B60"/>
<path d="M9.32248 11.203H7.34324C7.24069 11.203 7.14385 11.235 7.06246 11.2894C6.92492 11.3811 6.83215 11.5364 6.83215 11.7084V13.2667C6.83215 13.5404 7.06653 13.7721 7.34324 13.7721H9.32248C9.59919 13.7721 9.83276 13.5404 9.83276 13.2667V11.7084C9.83276 11.4346 9.59919 11.203 9.32248 11.203Z" fill="#555B60"/>
<path d="M17.281 15.183L19.856 17.731C20.048 17.9205 20.048 18.2153 19.856 18.3838L18.3666 19.8579C18.2592 19.9642 18.1184 20.0108 17.9817 19.9979C17.8743 19.9877 17.7693 19.9411 17.6855 19.8579L15.1105 17.3098L14.0671 19.0787C13.8547 19.4578 13.3013 19.3735 13.1947 18.9734L11.2366 11.94C11.1512 11.582 11.471 11.2451 11.8323 11.3504L18.9624 13.2877C19.3668 13.393 19.4303 13.9405 19.069 14.1511L17.281 15.183Z" fill="#555B60"/>
</svg>
