<svg width="20" height="20" viewBox="0 0 20 20" fill="none" xmlns="http://www.w3.org/2000/svg">
<path fill-rule="evenodd" clip-rule="evenodd" d="M11.9182 16.947H15.5989H15.599V6.44892C15.599 3.94447 13.5615 1.90695 11.057 1.90695H8.94319C6.43874 1.90695 4.40123 3.94451 4.40123 6.44892V13.9334H2.66607C1.65529 13.9334 0.833008 13.1111 0.833008 12.1003V9.4893C0.833008 8.47856 1.65529 7.65624 2.66607 7.65628H3.32696V6.44896C3.32696 3.35214 5.84638 0.832764 8.94316 0.832764H11.057C14.1538 0.832764 16.6732 3.35218 16.6732 6.44896V7.65108H17.3333C18.3441 7.65108 19.1663 8.47337 19.1663 9.48414V12.0952C19.1663 13.1059 18.3441 13.9282 17.3333 13.9282L16.6732 13.931V18.0213H11.9182V19.1605H9.71434C8.81421 19.1605 8.08191 18.4282 8.08191 17.528V17.4403C8.08191 16.5402 8.81421 15.8079 9.71434 15.8079H11.9182V16.947ZM11.3885 12.585L10.0003 14.3804L8.61214 12.5851H5.51257V6.90369H14.4882V12.585H11.3885ZM12.507 9.19547H11.4327V10.2697H12.507V9.19547ZM10.5375 9.19547H9.46318V10.2697H10.5375V9.19547ZM7.52467 10.2697H8.59896V9.19547H7.52467V10.2697Z" fill="#555B60"/>
</svg>
