<svg width="20" height="20" viewBox="0 0 20 20" fill="none" xmlns="http://www.w3.org/2000/svg">
<path fill-rule="evenodd" clip-rule="evenodd" d="M12.4604 0.152226L18.8972 2.06796C19.2105 2.16134 19.425 2.4442 19.425 2.76496V16.4559C19.425 16.7767 19.2105 17.0595 18.8972 17.1529L12.4665 19.0673C12.2249 19.139 11.9813 18.9624 11.9813 18.7154V0.499372C11.9813 0.255761 12.2222 0.0811725 12.4604 0.152226ZM14.0114 10.9638C14.3856 10.9638 14.6881 10.6614 14.6881 10.2871V8.93375C14.6881 8.56021 14.3856 8.25705 14.0114 8.25705C13.6372 8.25705 13.3347 8.56021 13.3347 8.93375V10.2871C13.3347 10.6614 13.6372 10.9638 14.0114 10.9638ZM7.24485 0.813366C6.4971 0.813366 5.89145 1.41901 5.89145 2.16676V4.53521C5.89145 4.72198 6.04303 4.87356 6.2298 4.87356H6.9065C7.09327 4.87356 7.24485 4.72198 7.24485 4.53521V2.16676H10.29C10.4768 2.16676 10.6283 2.01518 10.6283 1.82841V1.15172C10.6283 0.964946 10.4768 0.813366 10.29 0.813366H7.24485ZM7.24485 17.0541V14.6857C7.24485 14.4989 7.09327 14.3473 6.9065 14.3473H6.2298C6.04303 14.3473 5.89145 14.4989 5.89145 14.6857V17.0541C5.89145 17.8019 6.4971 18.4075 7.24485 18.4075H10.29C10.4768 18.4075 10.6283 18.256 10.6283 18.0692V17.3925C10.6283 17.2057 10.4768 17.0541 10.29 17.0541H7.24485ZM10.6281 10.2871C10.6281 10.4739 10.4765 10.6255 10.2898 10.6255H3.86112V12.7544C3.86112 12.843 3.75421 12.887 3.69195 12.8248L0.55342 9.68622C0.512141 9.64495 0.512141 9.57728 0.55342 9.536L3.69195 6.39612C3.75421 6.33386 3.86112 6.37785 3.86112 6.46649V8.59539H10.2898C10.4765 8.59539 10.6281 8.74697 10.6281 8.93374V10.2871Z" fill="#555B60"/>
</svg>
