<svg width="20" height="20" viewBox="0 0 20 20" fill="none" xmlns="http://www.w3.org/2000/svg">
<path fill-rule="evenodd" clip-rule="evenodd" d="M12.9313 1.14789L16.0042 4.22084L12.654 7.57107H4.98893L11.4121 1.14789C11.8316 0.728371 12.5118 0.728371 12.9313 1.14789ZM15.1488 7.57104C15.3702 7.57104 15.5839 7.60477 15.785 7.66722L17.6177 5.83455L16.7635 4.98039L14.1729 7.57104H15.1488ZM18.8515 7.06852L18.3771 6.59414L16.7174 8.25382C17.0766 8.638 17.2971 9.15335 17.2971 9.7195V10.1421L18.8515 8.58769C19.271 8.1682 19.271 7.48804 18.8515 7.06852ZM3.65212 12.0505H5.2886V13.2584H3.65212V12.0505ZM1.90724 8.64531H15.1491C15.7423 8.64531 16.2233 9.12625 16.2233 9.71954V18.0926C16.2233 18.6859 15.7423 19.1668 15.1491 19.1668H1.90724C1.31394 19.1668 0.833008 18.6859 0.833008 18.0926V9.71954C0.833008 9.12625 1.31394 8.64531 1.90724 8.64531ZM6.363 10.9763H2.57806V14.3327H6.363V10.9763ZM2.54465 16.8358H4.66783V15.7615H2.54465V16.8358ZM5.82589 16.8358H7.94907V15.7615H5.82589V16.8358ZM9.10719 16.8358H11.2304V15.7615H9.10719V16.8358ZM12.3885 16.8358H14.5116V15.7615H12.3885V16.8358Z" fill="#555B60"/>
</svg>
