<svg width="18" height="20" viewBox="0 0 18 20" fill="none" xmlns="http://www.w3.org/2000/svg">
<path fill-rule="evenodd" clip-rule="evenodd" d="M4.32418 5.60599C4.32418 2.99444 6.459 0.859619 9.07055 0.859619C11.6821 0.859619 13.8169 2.99444 13.8169 5.60599C13.8169 8.21754 11.6821 10.3524 9.07055 10.3524C6.459 10.3524 4.32418 8.21754 4.32418 5.60599ZM16.7395 13.2748C16.926 13.5442 17.0918 13.8344 17.2162 14.1453C17.2784 14.2696 17.2577 14.4147 17.1541 14.5391C16.9883 14.8293 16.8017 15.0987 16.5945 15.3682C16.3043 15.762 15.9727 16.1143 15.641 16.4459C15.3508 16.7361 15.0192 17.0263 14.6876 17.275C13.0502 18.4978 11.0812 19.1404 9.05001 19.1404C7.01882 19.1404 5.04979 18.4979 3.41242 17.275C3.08076 17.0056 2.74914 16.7361 2.45899 16.4459C2.10662 16.1143 1.79571 15.762 1.50555 15.3682C1.31902 15.1195 1.11177 14.8293 0.945944 14.5391C0.883779 14.4147 0.86307 14.2697 0.925236 14.1453C1.04957 13.8551 1.21539 13.5442 1.40193 13.2748C2.33461 11.8654 3.82691 10.9327 5.48503 10.7047C5.69227 10.6632 5.92027 10.7254 6.0861 10.8498C6.95661 11.4923 7.99292 11.8239 9.07072 11.8239C10.1485 11.8239 11.1848 11.4923 12.0553 10.8498C12.2212 10.7254 12.4492 10.684 12.6564 10.7047C14.3145 10.9327 15.7861 11.8654 16.7395 13.2748Z" fill="#555B60"/>
</svg>
