<svg width="20" height="20" viewBox="0 0 20 20" fill="none" xmlns="http://www.w3.org/2000/svg">
<path fill-rule="evenodd" clip-rule="evenodd" d="M10.3397 1.30448C10.968 0.676175 11.9902 0.676175 12.6185 1.30448L18.6951 7.3811C19.3234 8.00941 19.3234 9.03159 18.6951 9.6599L11.7873 16.5678C11.5773 16.7777 11.2376 16.7777 11.0276 16.5678L9.50845 15.0486C9.29851 14.8388 8.9589 14.8388 8.74895 15.0486C8.539 15.2586 8.539 15.5983 8.74895 15.8083L10.2681 17.3274C10.478 17.5374 10.478 17.8771 10.2681 18.0871L9.65966 18.6954C9.03135 19.3237 8.0093 19.3237 7.38099 18.6954L1.30424 12.6186C0.675931 11.9903 0.675931 10.9683 1.30424 10.34L1.91254 9.73151C2.12249 9.52171 2.46224 9.52171 2.67219 9.73151L4.19134 11.2508C4.40129 11.4606 4.74104 11.4606 4.95099 11.2508C5.1608 11.0409 5.1608 10.7011 4.95099 10.4912L3.43184 8.97201C3.22189 8.76206 3.22189 8.42231 3.43184 8.21236L10.3397 1.30448ZM7.22965 14.2891C7.4396 14.4991 7.77935 14.4991 7.9893 14.2891C8.19925 14.0792 8.19925 13.7394 7.9893 13.5295L6.47015 12.0103C6.2602 11.8004 5.92045 11.8004 5.7105 12.0103C5.50055 12.2203 5.50055 12.56 5.7105 12.77L7.22965 14.2891ZM7.30141 9.6599C7.92971 10.2882 8.95176 10.2882 9.58007 9.6599C10.2084 9.03159 10.2084 8.00955 9.58007 7.38124C8.95176 6.75293 7.92971 6.75293 7.30141 7.38124C6.6731 8.00955 6.6731 9.03159 7.30141 9.6599ZM11.712 12.4239C11.7702 12.715 12.0529 12.9034 12.3439 12.8452C12.6394 12.7852 12.8229 12.4997 12.7654 12.2131L11.2462 4.61736C11.1879 4.32615 10.9054 4.13774 10.6141 4.19592C10.3215 4.25495 10.1335 4.53791 10.1928 4.82801L11.712 12.4239ZM13.378 9.6599C14.0063 10.2882 15.0285 10.2882 15.6568 9.6599C16.2851 9.03159 16.2851 8.00955 15.6568 7.38124C15.0285 6.75293 14.0063 6.75293 13.378 7.38124C12.7499 8.00955 12.7499 9.03159 13.378 9.6599ZM8.82031 8.14071C8.61064 7.9309 8.27047 7.9309 8.06081 8.14071C7.851 8.35052 7.851 8.69055 8.06081 8.90035C8.27047 9.11002 8.61064 9.11002 8.82031 8.90035C9.03012 8.69055 9.03012 8.35052 8.82031 8.14071ZM14.8973 8.14074C14.6875 7.93107 14.3474 7.93107 14.1376 8.14074C13.9278 8.35055 13.9278 8.69058 14.1376 8.90039C14.3474 9.11006 14.6875 9.11006 14.8973 8.90039C15.1069 8.69058 15.1069 8.35055 14.8973 8.14074Z" fill="#555B60"/>
</svg>
