<svg width="20" height="20" viewBox="0 0 20 20" fill="none" xmlns="http://www.w3.org/2000/svg">
<path d="M15.833 0.833252H4.16634C3.96665 0.835551 3.77443 0.909476 3.62467 1.04157C4.21896 1.25064 4.74182 1.62383 5.13267 2.11788C5.52351 2.61193 5.76634 3.20662 5.83301 3.83303C5.84575 3.94377 5.84575 4.0556 5.83301 4.16634V18.332C5.83261 18.4913 5.87794 18.6475 5.9636 18.7819C6.04927 18.9163 6.17169 19.0233 6.31634 19.0902C6.46133 19.157 6.62244 19.1807 6.78051 19.1585C6.93858 19.1364 7.08696 19.0693 7.20801 18.9652L9.58301 16.9321L11.958 18.9652C12.1089 19.0943 12.301 19.1653 12.4997 19.1653C12.6983 19.1653 12.8904 19.0943 13.0413 18.9652L15.4163 16.9321L17.7913 18.9652C17.9423 19.0943 18.1344 19.1652 18.333 19.1652C18.4536 19.1644 18.5727 19.1388 18.683 19.0902C18.8277 19.0233 18.9501 18.9163 19.0357 18.7819C19.1214 18.6475 19.1667 18.4913 19.1663 18.332V4.16634C19.1663 3.28235 18.8151 2.43457 18.19 1.80949C17.5649 1.18442 16.7171 0.833252 15.833 0.833252ZM14.9997 12.4991H9.99967C9.77866 12.4991 9.5667 12.4113 9.41042 12.255C9.25414 12.0987 9.16634 11.8868 9.16634 11.6658C9.16634 11.4448 9.25414 11.2328 9.41042 11.0766C9.5667 10.9203 9.77866 10.8325 9.99967 10.8325H14.9997C15.2207 10.8325 15.4326 10.9203 15.5889 11.0766C15.7452 11.2328 15.833 11.4448 15.833 11.6658C15.833 11.8868 15.7452 12.0987 15.5889 12.255C15.4326 12.4113 15.2207 12.4991 14.9997 12.4991ZM14.9997 9.16597H9.99967C9.77866 9.16597 9.5667 9.07818 9.41042 8.92191C9.25414 8.76564 9.16634 8.55369 9.16634 8.3327C9.16634 8.1117 9.25414 7.89975 9.41042 7.74348C9.5667 7.58721 9.77866 7.49942 9.99967 7.49942H14.9997C15.2207 7.49942 15.4326 7.58721 15.5889 7.74348C15.7452 7.89975 15.833 8.1117 15.833 8.3327C15.833 8.55369 15.7452 8.76564 15.5889 8.92191C15.4326 9.07818 15.2207 9.16597 14.9997 9.16597ZM14.9997 5.83288H9.99967C9.77866 5.83288 9.5667 5.74509 9.41042 5.58882C9.25414 5.43255 9.16634 5.22061 9.16634 4.99961C9.16634 4.77861 9.25414 4.56667 9.41042 4.4104C9.5667 4.25413 9.77866 4.16634 9.99967 4.16634H14.9997C15.2207 4.16634 15.4326 4.25413 15.5889 4.4104C15.7452 4.56667 15.833 4.77861 15.833 4.99961C15.833 5.22061 15.7452 5.43255 15.5889 5.58882C15.4326 5.74509 15.2207 5.83288 14.9997 5.83288ZM4.16634 4.16634V10.8325H1.66634C1.44533 10.8325 1.23337 10.7447 1.07709 10.5884C0.920805 10.4322 0.833008 10.2202 0.833008 9.99924V4.16634C0.833008 4.04968 0.833008 3.94135 0.833008 3.83303C0.877211 3.39103 1.0952 2.9847 1.43901 2.70342C1.78283 2.42213 2.22431 2.28894 2.66634 2.33314C3.10837 2.37734 3.51473 2.59531 3.79604 2.9391C4.07734 3.28289 4.21054 3.72434 4.16634 4.16634Z" fill="#555B60"/>
</svg>
