<svg width="31" height="30" viewBox="0 0 31 30" fill="none" xmlns="http://www.w3.org/2000/svg">
<path d="M29.6249 23.8675L24.5616 18.7737C23.9748 18.1914 23.0289 18.1914 22.4447 18.7737L18.4486 22.7788C17.9909 23.2371 17.3131 23.4016 16.696 23.2067C12.2346 21.7763 8.7419 18.2725 7.32526 13.8014C7.12292 13.1887 7.2772 12.5127 7.72739 12.047L11.7032 8.07478V8.07225C12.2849 7.48743 12.2849 6.54058 11.7032 5.95326L6.61453 0.859542C6.3338 0.575996 5.95192 0.416504 5.55483 0.416504C5.15774 0.416504 4.77587 0.575996 4.49766 0.859542L2.86638 2.48739H2.86385C1.66753 3.69753 0.974554 5.32033 0.921462 7.02413C0.787418 12.2723 3.12944 18.1178 7.72758 22.7789C12.3257 27.4401 18.2236 29.726 23.4538 29.5763H23.4867C25.1761 29.5256 26.7796 28.8295 27.9734 27.632L29.6249 26.0193C29.9183 25.7383 30.0827 25.3483 30.0827 24.9433C30.0827 24.5382 29.9183 24.1485 29.6249 23.8675Z" fill="#373F46"/>
</svg>
