<svg width="23" height="21" viewBox="0 0 23 21" fill="none" xmlns="http://www.w3.org/2000/svg">
<path d="M22.8829 0.0841732C22.7805 -0.00441669 22.6348 -0.0249701 22.5113 0.0315348L0.198941 10.2589C0.0788186 10.3139 0.00146448 10.4322 2.05342e-05 10.5628C-0.00142341 10.6935 0.0733867 10.8133 0.19234 10.8709L6.50671 13.928C6.6225 13.9841 6.76057 13.9714 6.86398 13.8952L13.0033 9.36841L8.18368 14.2592C8.11492 14.329 8.07985 14.4245 8.08742 14.5215L8.56729 20.6868C8.57794 20.8234 8.67077 20.9402 8.80272 20.983C8.83799 20.9944 8.87423 21 8.91005 21C9.00831 21 9.10388 20.9584 9.17037 20.8824L12.5218 17.0511L16.6649 19.004C16.7549 19.0464 16.859 19.0482 16.9503 19.009C17.0417 18.9697 17.1113 18.8933 17.1412 18.7996L22.9842 0.440771C23.025 0.312567 22.9852 0.172763 22.8829 0.0841732Z" fill="#1D2630"/>
</svg>
