<svg width="335" height="87" viewBox="0 0 335 87" fill="none" xmlns="http://www.w3.org/2000/svg">
<mask id="path-1-inside-1_755_5689" fill="white">
<path fill-rule="evenodd" clip-rule="evenodd" d="M63.068 1.83372C62.7396 0.832778 61.8943 0 60.8409 0H3.47552C1.83468 0 0.891982 1.86697 1.86611 3.18735L6.66176 9.68764C7.18255 10.3936 7.18255 11.3564 6.66176 12.0624L0.390594 20.5626C-0.130197 21.2686 -0.130198 22.2314 0.390593 22.9374L6.66176 31.4376C7.18255 32.1436 7.18255 33.1064 6.66176 33.8124L0.390594 42.3126C-0.130197 43.0186 -0.130198 43.9814 0.390593 44.6874L6.66176 53.1876C7.18255 53.8936 7.18255 54.8564 6.66176 55.5624L0.390594 64.0626C-0.130197 64.7686 -0.130198 65.7314 0.390593 66.4374L6.66176 74.9376C7.18255 75.6436 7.18255 76.6064 6.66176 77.3124L1.86611 83.8126C0.891984 85.133 1.83468 87 3.47552 87H62.2128C62.4837 87 62.6968 86.7708 62.6968 86.5C62.6968 82.3579 66.0643 79 70.2184 79C74.3725 79 77.7401 82.3579 77.7401 86.5C77.7401 86.7708 77.9532 87 78.224 87H331.522C333.163 87 334.106 85.133 333.132 83.8126L328.336 77.3124C327.815 76.6064 327.815 75.6436 328.336 74.9376L334.607 66.4374C335.128 65.7314 335.128 64.7686 334.607 64.0626L328.336 55.5624C327.815 54.8564 327.815 53.8936 328.336 53.1876L334.607 44.6874C335.128 43.9814 335.128 43.0186 334.607 42.3126L328.336 33.8124C327.815 33.1064 327.815 32.1436 328.336 31.4376L334.607 22.9374C335.128 22.2314 335.128 21.2686 334.607 20.5626L328.336 12.0624C327.815 11.3564 327.815 10.3936 328.336 9.68764L333.132 3.18735C334.106 1.86696 333.163 0 331.522 0H79.596C78.5426 0 77.6972 0.832779 77.3689 1.83372C76.3848 4.83323 73.5554 7 70.2184 7C66.8815 7 64.052 4.83323 63.068 1.83372Z"/>
</mask>
<path fill-rule="evenodd" clip-rule="evenodd" d="M63.068 1.83372C62.7396 0.832778 61.8943 0 60.8409 0H3.47552C1.83468 0 0.891982 1.86697 1.86611 3.18735L6.66176 9.68764C7.18255 10.3936 7.18255 11.3564 6.66176 12.0624L0.390594 20.5626C-0.130197 21.2686 -0.130198 22.2314 0.390593 22.9374L6.66176 31.4376C7.18255 32.1436 7.18255 33.1064 6.66176 33.8124L0.390594 42.3126C-0.130197 43.0186 -0.130198 43.9814 0.390593 44.6874L6.66176 53.1876C7.18255 53.8936 7.18255 54.8564 6.66176 55.5624L0.390594 64.0626C-0.130197 64.7686 -0.130198 65.7314 0.390593 66.4374L6.66176 74.9376C7.18255 75.6436 7.18255 76.6064 6.66176 77.3124L1.86611 83.8126C0.891984 85.133 1.83468 87 3.47552 87H62.2128C62.4837 87 62.6968 86.7708 62.6968 86.5C62.6968 82.3579 66.0643 79 70.2184 79C74.3725 79 77.7401 82.3579 77.7401 86.5C77.7401 86.7708 77.9532 87 78.224 87H331.522C333.163 87 334.106 85.133 333.132 83.8126L328.336 77.3124C327.815 76.6064 327.815 75.6436 328.336 74.9376L334.607 66.4374C335.128 65.7314 335.128 64.7686 334.607 64.0626L328.336 55.5624C327.815 54.8564 327.815 53.8936 328.336 53.1876L334.607 44.6874C335.128 43.9814 335.128 43.0186 334.607 42.3126L328.336 33.8124C327.815 33.1064 327.815 32.1436 328.336 31.4376L334.607 22.9374C335.128 22.2314 335.128 21.2686 334.607 20.5626L328.336 12.0624C327.815 11.3564 327.815 10.3936 328.336 9.68764L333.132 3.18735C334.106 1.86696 333.163 0 331.522 0H79.596C78.5426 0 77.6972 0.832779 77.3689 1.83372C76.3848 4.83323 73.5554 7 70.2184 7C66.8815 7 64.052 4.83323 63.068 1.83372Z" fill="#FFF9D9"/>
<path d="M328.336 12.0624L329.141 11.4687L328.336 12.0624ZM328.336 9.68764L329.141 10.2813L328.336 9.68764ZM334.607 22.9374L333.802 22.3437L334.607 22.9374ZM334.607 20.5626L333.802 21.1563L334.607 20.5626ZM328.336 33.8124L329.141 33.2187L328.336 33.8124ZM328.336 31.4376L329.141 32.0313L328.336 31.4376ZM334.607 44.6874L333.802 44.0937L334.607 44.6874ZM334.607 42.3126L333.802 42.9063L334.607 42.3126ZM328.336 55.5624L329.141 54.9687L328.336 55.5624ZM328.336 53.1876L329.141 53.7813L328.336 53.1876ZM334.607 66.4374L333.802 65.8437L334.607 66.4374ZM334.607 64.0626L333.802 64.6563L334.607 64.0626ZM328.336 77.3124L329.141 76.7187L328.336 77.3124ZM328.336 74.9376L329.141 75.5313L328.336 74.9376ZM333.132 83.8126L332.327 84.4063L333.132 83.8126ZM1.86611 83.8126L2.67082 84.4063L1.86611 83.8126ZM6.66176 74.9376L5.85705 75.5313L6.66176 74.9376ZM6.66176 77.3124L5.85706 76.7187L6.66176 77.3124ZM0.390594 64.0626L1.1953 64.6563L0.390594 64.0626ZM0.390593 66.4374L1.1953 65.8437L0.390593 66.4374ZM6.66176 53.1876L7.46646 52.594L6.66176 53.1876ZM6.66176 55.5624L7.46646 56.156L6.66176 55.5624ZM0.390594 42.3126L-0.41411 41.719L0.390594 42.3126ZM0.390593 44.6874L-0.414111 45.281L0.390593 44.6874ZM6.66176 31.4376L7.46646 30.844L6.66176 31.4376ZM6.66176 33.8124L7.46646 34.406L6.66176 33.8124ZM0.390594 20.5626L1.1953 21.1563L0.390594 20.5626ZM0.390593 22.9374L1.1953 22.3437L0.390593 22.9374ZM6.66176 9.68764L5.85705 10.2813L6.66176 9.68764ZM77.3689 1.83372L76.4187 1.52201L77.3689 1.83372ZM333.132 3.18735L332.327 2.59367L333.132 3.18735ZM63.068 1.83372L64.0182 1.52201L63.068 1.83372ZM60.8409 -1H3.47552V1H60.8409V-1ZM1.06141 3.78103L5.85705 10.2813L7.46646 9.09397L2.67081 2.59368L1.06141 3.78103ZM5.85706 11.4687L-0.41411 19.969L1.1953 21.1563L7.46646 12.656L5.85706 11.4687ZM-0.414111 23.531L5.85705 32.0313L7.46646 30.844L1.1953 22.3437L-0.414111 23.531ZM5.85706 33.2187L-0.41411 41.719L1.1953 42.9063L7.46646 34.406L5.85706 33.2187ZM-0.414111 45.281L5.85705 53.7813L7.46646 52.594L1.1953 44.0937L-0.414111 45.281ZM5.85706 54.9687L-0.41411 63.469L1.1953 64.6563L7.46646 56.156L5.85706 54.9687ZM-0.414111 67.031L5.85705 75.5313L7.46646 74.344L1.1953 65.8437L-0.414111 67.031ZM5.85706 76.7187L1.06141 83.219L2.67082 84.4063L7.46646 77.906L5.85706 76.7187ZM3.47552 88H62.2128V86H3.47552V88ZM63.6968 86.5C63.6968 82.9129 66.6139 80 70.2184 80V78C65.5148 78 61.6968 81.8029 61.6968 86.5H63.6968ZM70.2184 80C73.823 80 76.7401 82.9129 76.7401 86.5H78.7401C78.7401 81.8029 74.9221 78 70.2184 78V80ZM78.224 88H331.522V86H78.224V88ZM333.936 83.219L329.141 76.7187L327.531 77.906L332.327 84.4063L333.936 83.219ZM329.141 75.5313L335.412 67.031L333.802 65.8437L327.531 74.344L329.141 75.5313ZM335.412 63.469L329.141 54.9687L327.531 56.156L333.802 64.6563L335.412 63.469ZM329.141 53.7813L335.412 45.281L333.802 44.0937L327.531 52.594L329.141 53.7813ZM335.412 41.719L329.141 33.2187L327.531 34.406L333.802 42.9063L335.412 41.719ZM329.141 32.0313L335.412 23.531L333.802 22.3437L327.531 30.844L329.141 32.0313ZM335.412 19.969L329.141 11.4687L327.531 12.656L333.802 21.1563L335.412 19.969ZM329.141 10.2813L333.936 3.78103L332.327 2.59367L327.531 9.09397L329.141 10.2813ZM331.522 -1H79.596V1H331.522V-1ZM76.4187 1.52201C75.5659 4.12155 73.1121 6 70.2184 6V8C73.9987 8 77.2038 5.54492 78.319 2.14544L76.4187 1.52201ZM70.2184 6C67.3248 6 64.871 4.12155 64.0182 1.52201L62.1178 2.14544C63.2331 5.54492 66.4382 8 70.2184 8V6ZM329.141 11.4687C328.88 11.1157 328.88 10.6343 329.141 10.2813L327.531 9.09397C326.75 10.1528 326.75 11.5972 327.531 12.656L329.141 11.4687ZM335.412 23.531C336.193 22.4722 336.193 21.0278 335.412 19.969L333.802 21.1563C334.063 21.5093 334.063 21.9907 333.802 22.3437L335.412 23.531ZM329.141 33.2187C328.88 32.8657 328.88 32.3843 329.141 32.0313L327.531 30.844C326.75 31.9028 326.75 33.3472 327.531 34.406L329.141 33.2187ZM335.412 45.281C336.193 44.2222 336.193 42.7778 335.412 41.719L333.802 42.9063C334.063 43.2593 334.063 43.7407 333.802 44.0937L335.412 45.281ZM329.141 54.9687C328.88 54.6157 328.88 54.1343 329.141 53.7813L327.531 52.594C326.75 53.6528 326.75 55.0972 327.531 56.156L329.141 54.9687ZM335.412 67.031C336.193 65.9722 336.193 64.5278 335.412 63.469L333.802 64.6563C334.063 65.0093 334.063 65.4907 333.802 65.8437L335.412 67.031ZM329.141 76.7187C328.88 76.3657 328.88 75.8843 329.141 75.5313L327.531 74.344C326.75 75.4028 326.75 76.8472 327.531 77.906L329.141 76.7187ZM331.522 88C333.983 88 335.398 85.1995 333.936 83.219L332.327 84.4063C332.814 85.0665 332.343 86 331.522 86V88ZM76.7401 86.5C76.7401 87.2801 77.3588 88 78.224 88V86C78.5475 86 78.7401 86.2616 78.7401 86.5H76.7401ZM62.2128 88C63.078 88 63.6968 87.2801 63.6968 86.5H61.6968C61.6968 86.2616 61.8893 86 62.2128 86V88ZM1.06141 83.219C-0.399781 85.1995 1.01425 88 3.47552 88V86C2.6551 86 2.18375 85.0665 2.67082 84.4063L1.06141 83.219ZM5.85705 75.5313C6.11745 75.8843 6.11745 76.3657 5.85706 76.7187L7.46646 77.906C8.24765 76.8472 8.24765 75.4028 7.46646 74.344L5.85705 75.5313ZM-0.41411 63.469C-1.1953 64.5278 -1.1953 65.9722 -0.414111 67.031L1.1953 65.8437C0.934901 65.4907 0.934901 65.0093 1.1953 64.6563L-0.41411 63.469ZM5.85705 53.7813C6.11745 54.1343 6.11745 54.6157 5.85706 54.9687L7.46646 56.156C8.24765 55.0972 8.24765 53.6528 7.46646 52.594L5.85705 53.7813ZM-0.41411 41.719C-1.1953 42.7778 -1.1953 44.2222 -0.414111 45.281L1.1953 44.0937C0.934901 43.7407 0.934901 43.2593 1.1953 42.9063L-0.41411 41.719ZM5.85705 32.0313C6.11745 32.3843 6.11745 32.8657 5.85706 33.2187L7.46646 34.406C8.24765 33.3472 8.24765 31.9028 7.46646 30.844L5.85705 32.0313ZM-0.41411 19.969C-1.1953 21.0278 -1.1953 22.4722 -0.414111 23.531L1.1953 22.3437C0.934901 21.9907 0.934901 21.5093 1.1953 21.1563L-0.41411 19.969ZM5.85705 10.2813C6.11745 10.6343 6.11745 11.1157 5.85706 11.4687L7.46646 12.656C8.24765 11.5972 8.24765 10.1528 7.46646 9.09397L5.85705 10.2813ZM79.596 -1C77.9747 -1 76.834 0.256037 76.4187 1.52201L78.319 2.14544C78.5605 1.40952 79.1105 1 79.596 1V-1ZM3.47552 -1C1.01426 -1 -0.399786 1.80045 1.06141 3.78103L2.67081 2.59368C2.18375 1.93348 2.6551 1 3.47552 1V-1ZM333.936 3.78103C335.398 1.80044 333.983 -1 331.522 -1V1C332.343 1 332.814 1.93348 332.327 2.59367L333.936 3.78103ZM60.8409 1C61.3264 1 61.8764 1.40952 62.1178 2.14544L64.0182 1.52201C63.6029 0.256039 62.4622 -1 60.8409 -1V1Z" fill="#EBE4A6" mask="url(#path-1-inside-1_755_5689)"/>
</svg>
