<svg width="45" height="44" viewBox="0 0 45 44" fill="none" xmlns="http://www.w3.org/2000/svg">
<rect width="44" height="44" transform="translate(0.515625)" fill="#E8C300"/>
<path fill-rule="evenodd" clip-rule="evenodd" d="M22.9678 4.92969L4.77974 23.1177L18.6904 37.024L17.6847 38.0297C17.5356 38.1789 17.3587 38.2972 17.1639 38.3779C16.9691 38.4586 16.7604 38.5001 16.5495 38.5001C16.3387 38.5001 16.1299 38.4586 15.9351 38.3779C15.7404 38.2972 15.5634 38.1789 15.4144 38.0297L1.63642 24.2518C1.48729 24.1027 1.36899 23.9258 1.28827 23.731C1.20756 23.5362 1.16602 23.3275 1.16602 23.1166C1.16602 22.9058 1.20756 22.697 1.28827 22.5023C1.36899 22.3075 1.48729 22.1305 1.63642 21.9815L17.5541 6.06376C18.1768 5.44109 19.4115 4.92969 20.293 4.92969H22.9678ZM28.8521 4.92969H41.6907C42.1163 4.92969 42.5245 5.09877 42.8255 5.39973C43.1265 5.70069 43.2955 6.10889 43.2955 6.53451V19.3731C43.2955 20.2547 42.7863 21.4872 42.1615 22.112L26.2437 38.0297C26.0947 38.1789 25.9177 38.2972 25.723 38.3779C25.5282 38.4586 25.3194 38.5001 25.1086 38.5001C24.8978 38.5001 24.689 38.4586 24.4942 38.3779C24.2994 38.2972 24.1225 38.1789 23.9734 38.0297L10.1955 24.2518C10.0464 24.1027 9.92805 23.9258 9.84734 23.731C9.76663 23.5362 9.72508 23.3275 9.72508 23.1166C9.72508 22.9058 9.76663 22.697 9.84734 22.5023C9.92805 22.3075 10.0464 22.1305 10.1955 21.9815L26.1132 6.06376C26.7359 5.44109 27.9705 4.92969 28.8521 4.92969ZM32.438 17.5235C32.8275 17.685 33.2449 17.7681 33.6666 17.7683C34.5181 17.7686 35.3349 17.4306 35.9372 16.8286C36.5395 16.2267 36.8781 15.4102 36.8784 14.5586C36.8787 13.7071 36.5407 12.8903 35.9387 12.288C35.3368 11.6857 34.5203 11.3471 33.6687 11.3468C33.2471 11.3467 32.8295 11.4296 32.44 11.5908C32.0504 11.7521 31.6963 11.9884 31.3981 12.2865C31.0998 12.5845 30.8632 12.9384 30.7017 13.3279C30.5403 13.7174 30.4571 14.1349 30.4569 14.5565C30.4568 14.9781 30.5397 15.3957 30.7009 15.7853C30.8621 16.1749 31.0985 16.5289 31.3966 16.8271C31.6946 17.1254 32.0485 17.362 32.438 17.5235Z" fill="white"/>
</svg>
