<svg width="18" height="18" viewBox="0 0 18 18" fill="none" xmlns="http://www.w3.org/2000/svg">
<path fill-rule="evenodd" clip-rule="evenodd" d="M10.042 1.70817C10.042 1.13287 9.57562 0.666504 9.00033 0.666504C8.42503 0.666504 7.95866 1.13287 7.95866 1.70817V7.95817H1.70866C1.13336 7.95817 0.666992 8.42454 0.666992 8.99984C0.666992 9.57513 1.13336 10.0415 1.70866 10.0415H7.95866V16.2915C7.95866 16.8668 8.42503 17.3332 9.00033 17.3332C9.57562 17.3332 10.042 16.8668 10.042 16.2915V10.0415H16.292C16.8673 10.0415 17.3337 9.57513 17.3337 8.99984C17.3337 8.42454 16.8673 7.95817 16.292 7.95817H10.042V1.70817Z" fill="#1D2630"/>
</svg>
