<svg width="42" height="42" viewBox="0 0 42 42" fill="none" xmlns="http://www.w3.org/2000/svg">
<path fill-rule="evenodd" clip-rule="evenodd" d="M21.0003 0.166504C9.49408 0.166504 0.166992 9.49359 0.166992 20.9998C0.166992 32.5061 9.49408 41.8332 21.0003 41.8332C32.5066 41.8332 41.8337 32.5061 41.8337 20.9998C41.8337 9.49359 32.5066 0.166504 21.0003 0.166504ZM13.7087 15.7915C13.7087 14.8339 13.8973 13.8858 14.2637 13.0011C14.6301 12.1164 15.1672 11.3126 15.8443 10.6355C16.5214 9.95842 17.3253 9.42132 18.2099 9.05488C19.0946 8.68844 20.0428 8.49984 21.0003 8.49984C21.9579 8.49984 22.9061 8.68844 23.7907 9.05488C24.6754 9.42132 25.4792 9.95842 26.1563 10.6355C26.8334 11.3126 27.3705 12.1164 27.7369 13.0011C28.1034 13.8858 28.292 14.8339 28.292 15.7915C28.292 17.7254 27.5238 19.58 26.1563 20.9475C24.7889 22.3149 22.9342 23.0832 21.0003 23.0832C19.0665 23.0832 17.2118 22.3149 15.8443 20.9475C14.4769 19.58 13.7087 17.7254 13.7087 15.7915ZM34.0378 31.3832C32.4778 33.3443 30.4951 34.9279 28.2377 36.0159C25.9802 37.1039 23.5063 37.6681 21.0003 37.6665C18.4944 37.6681 16.0204 37.1039 13.763 36.0159C11.5055 34.9279 9.52284 33.3443 7.96283 31.3832C11.3399 28.9603 15.9482 27.2498 21.0003 27.2498C26.0524 27.2498 30.6607 28.9603 34.0378 31.3832Z" fill="#373F46"/>
</svg>
