<svg width="36" height="32" viewBox="0 0 36 32" fill="none" xmlns="http://www.w3.org/2000/svg">
<path d="M5.46094 5.12503H30.4609C30.753 5.12495 31.0447 5.14348 31.3344 5.1805C31.2362 4.49126 30.9994 3.82904 30.6384 3.23378C30.2774 2.63851 29.7995 2.12252 29.2337 1.71691C28.6678 1.31131 28.0257 1.0245 27.346 0.873765C26.6663 0.723033 25.9632 0.711506 25.2789 0.839878L4.71875 4.35003H4.69531C3.40474 4.59683 2.25708 5.32701 1.48672 6.39144C2.64734 5.56591 4.03667 5.12319 5.46094 5.12503ZM30.4609 7.00003H5.46094C4.1353 7.00148 2.86437 7.52873 1.927 8.4661C0.989634 9.40347 0.462385 10.6744 0.460938 12V27C0.462385 28.3257 0.989634 29.5966 1.927 30.534C2.86437 31.4713 4.1353 31.9986 5.46094 32H30.4609C31.7866 31.9986 33.0575 31.4713 33.9949 30.534C34.9322 29.5966 35.4595 28.3257 35.4609 27V12C35.4595 10.6744 34.9322 9.40347 33.9949 8.4661C33.0575 7.52873 31.7866 7.00148 30.4609 7.00003ZM26.75 22C26.2555 22 25.7722 21.8534 25.3611 21.5787C24.95 21.304 24.6295 20.9136 24.4403 20.4567C24.2511 19.9999 24.2016 19.4973 24.298 19.0123C24.3945 18.5274 24.6326 18.0819 24.9822 17.7323C25.3319 17.3826 25.7773 17.1445 26.2623 17.0481C26.7472 16.9516 27.2499 17.0011 27.7067 17.1903C28.1635 17.3796 28.554 17.7 28.8287 18.1111C29.1034 18.5222 29.25 19.0056 29.25 19.5C29.25 20.1631 28.9866 20.799 28.5178 21.2678C28.0489 21.7366 27.413 22 26.75 22Z" fill="#373F46"/>
</svg>
