<svg width="20" height="20" viewBox="0 0 20 20" fill="none" xmlns="http://www.w3.org/2000/svg">
<g clip-path="url(#clip0_755_5881)">
<path fill-rule="evenodd" clip-rule="evenodd" d="M1.41868 0.244078C1.09325 -0.0813592 0.565608 -0.0813592 0.240171 0.244078C-0.0852655 0.569515 -0.0852655 1.09715 0.240171 1.42259L3.80315 4.98557C2.29584 6.28305 1.03806 7.84875 0.0951308 9.60597C-0.0328975 9.84457 -0.0370218 10.1305 0.0840712 10.3727L0.829427 10C0.0840712 10.3727 0.0845824 10.3737 0.0847356 10.374L0.0857096 10.3759L0.0885855 10.3816L0.0980421 10.4001C0.10599 10.4156 0.117224 10.4372 0.131722 10.4646C0.160711 10.5194 0.20278 10.5973 0.257737 10.695C0.367587 10.8903 0.529302 11.1654 0.741373 11.4938C1.16448 12.1489 1.79346 13.0245 2.61731 13.9033C4.24983 15.6446 6.7465 17.5 9.99609 17.5L10.0097 17.4999C11.7334 17.4717 13.4096 16.9613 14.8512 16.0336L18.5735 19.7559C18.8989 20.0814 19.4266 20.0814 19.752 19.7559C20.0775 19.4305 20.0775 18.9028 19.752 18.5774L15.5437 14.3691C15.5377 14.3629 15.5317 14.3569 15.5255 14.3509L12.3556 11.181C12.3535 11.1789 12.3513 11.1767 12.3491 11.1745L8.8215 7.64689C8.81938 7.64475 8.81725 7.64262 8.81512 7.64051L5.64372 4.46912C5.63772 4.46293 5.63165 4.45685 5.62549 4.45089L1.41868 0.244078ZM4.98534 6.16776C3.70469 7.25114 2.62055 8.54847 1.78157 10.0026C1.87247 10.1596 1.9927 10.3592 2.14144 10.5896C2.52562 11.1844 3.09457 11.9755 3.83321 12.7634C5.32438 14.354 7.40869 15.8307 9.9893 15.8333C11.2772 15.8111 12.5325 15.4603 13.6389 14.8213L11.7042 12.8866C11.5719 12.9696 11.4337 13.0433 11.2904 13.1071C10.8815 13.2893 10.4401 13.3873 9.99254 13.3952C9.54497 13.4031 9.10039 13.3207 8.68534 13.1531C8.27028 12.9854 7.89324 12.7359 7.57671 12.4194C7.26018 12.1029 7.01065 11.7258 6.843 11.3108C6.67535 10.8957 6.59302 10.4511 6.60092 10.0036C6.60881 9.55598 6.70678 9.11459 6.88897 8.70571C6.95281 8.56243 7.02653 8.42417 7.10946 8.29188L4.98534 6.16776ZM8.35267 9.53509C8.29919 9.69545 8.27032 9.86331 8.26733 10.033C8.26338 10.2567 8.30454 10.479 8.38837 10.6866C8.47219 10.8941 8.59696 11.0826 8.75522 11.2409C8.91348 11.3991 9.10201 11.5239 9.30954 11.6077C9.51706 11.6915 9.73935 11.7327 9.96313 11.7288C10.1328 11.7258 10.3006 11.6969 10.461 11.6434L8.35267 9.53509ZM8.43602 4.34473C8.94674 4.22518 9.46962 4.16543 9.99413 4.16666L9.99609 4.16666C12.5798 4.16666 14.6665 5.64463 16.159 7.23661C16.8976 8.0245 17.4666 8.81557 17.8507 9.41043C17.9997 9.64113 18.1201 9.84103 18.2111 9.99814C17.7799 10.7485 17.2827 11.4592 16.7251 12.1218C16.4288 12.4739 16.4741 12.9996 16.8262 13.296C17.1784 13.5923 17.7041 13.547 18.0004 13.1949C18.7286 12.3294 19.3645 11.3903 19.8977 10.3928C20.0251 10.1545 20.029 9.86908 19.9081 9.62732L19.1644 9.99916C19.9081 9.62732 19.9076 9.6263 19.9075 9.62599L19.9065 9.62405L19.9036 9.61836L19.8941 9.59985C19.8862 9.58439 19.875 9.56276 19.8605 9.53536C19.8315 9.48058 19.7894 9.40269 19.7345 9.30499C19.6246 9.1097 19.4629 8.83459 19.2508 8.50622C18.8277 7.85109 18.1987 6.97549 17.3749 6.09671C15.7425 4.35553 13.2462 2.50036 9.99706 2.5H9.99609V3.33333L9.99805 2.5L9.99706 2.5C9.34368 2.49854 8.69235 2.57301 8.05617 2.72193C7.60804 2.82682 7.3298 3.27513 7.43469 3.72326C7.53959 4.17138 7.9879 4.44962 8.43602 4.34473ZM19.1628 10C18.4174 10.3727 18.4175 10.3729 18.4176 10.3731L18.417 10.372L18.4119 10.3619C18.4096 10.3574 18.4066 10.3517 18.403 10.3447C18.3987 10.3365 18.3935 10.3265 18.3873 10.3149C18.3646 10.272 18.3294 10.2067 18.2818 10.1221C18.2607 10.0845 18.2371 10.043 18.2111 9.99814C18.2853 9.86897 18.3576 9.73863 18.4278 9.60715L19.1628 10Z" fill="#373F46"/>
</g>
<defs>
<clipPath id="clip0_755_5881">
<rect width="20" height="20" fill="white"/>
</clipPath>
</defs>
</svg>
