<svg width="24" height="22" viewBox="0 0 24 22" fill="none" xmlns="http://www.w3.org/2000/svg">
<path d="M10.8837 0.896633C11.2722 -0.298877 12.9635 -0.298878 13.3519 0.896632L15.1768 6.51308C15.3506 7.04773 15.8488 7.40971 16.411 7.40971H22.3164C23.5735 7.40971 24.0961 9.01826 23.0792 9.75713L18.3015 13.2283C17.8467 13.5587 17.6564 14.1444 17.8301 14.6791L19.655 20.2955C20.0435 21.491 18.6752 22.4852 17.6582 21.7463L12.8806 18.2751C12.4258 17.9447 11.8099 17.9447 11.3551 18.2751L6.57749 21.7463C5.56052 22.4852 4.19221 21.491 4.58065 20.2955L6.40555 14.6791C6.57927 14.1444 6.38896 13.5587 5.93416 13.2283L1.15653 9.75713C0.139564 9.01826 0.662212 7.40971 1.91925 7.40971H7.82473C8.38689 7.40971 8.88512 7.04773 9.05884 6.51308L10.8837 0.896633Z" fill="#EBE4A6"/>
</svg>
