<svg width="24" height="24" viewBox="0 0 24 24" fill="none" xmlns="http://www.w3.org/2000/svg">
<path fill-rule="evenodd" clip-rule="evenodd" d="M14.6853 2.34753L21.7072 4.43742C22.049 4.53929 22.283 4.84787 22.283 5.19778V20.1334C22.283 20.4833 22.049 20.7919 21.7072 20.8937L14.692 22.9822C14.4284 23.0604 14.1627 22.8677 14.1627 22.5983V2.72623C14.1627 2.46047 14.4255 2.27001 14.6853 2.34753ZM16.3773 14.142C16.7855 14.142 17.1155 13.812 17.1155 13.4038V11.9274C17.1155 11.5199 16.7855 11.1891 16.3773 11.1891C15.9691 11.1891 15.6391 11.5199 15.6391 11.9274V13.4038C15.6391 13.812 15.9691 14.142 16.3773 14.142ZM8.99562 3.06877C8.17989 3.06877 7.51919 3.72948 7.51919 4.5452V7.12896C7.51919 7.33271 7.68455 7.49807 7.8883 7.49807H8.62652C8.83026 7.49807 8.99562 7.33271 8.99562 7.12896V4.5452H12.3176C12.5213 4.5452 12.6867 4.37984 12.6867 4.1761V3.43788C12.6867 3.23413 12.5213 3.06877 12.3176 3.06877H8.99562ZM8.99562 20.786V18.2022C8.99562 17.9985 8.83026 17.8331 8.62652 17.8331H7.8883C7.68455 17.8331 7.51919 17.9985 7.51919 18.2022V20.786C7.51919 21.6017 8.17989 22.2624 8.99562 22.2624H12.3176C12.5213 22.2624 12.6867 22.0971 12.6867 21.8933V21.1551C12.6867 20.9513 12.5213 20.786 12.3176 20.786H8.99562ZM12.6865 13.4038C12.6865 13.6075 12.5211 13.7729 12.3173 13.7729H5.30429V16.0953C5.30429 16.192 5.18765 16.24 5.11973 16.1721L1.69588 12.7483C1.65085 12.7032 1.65085 12.6294 1.69588 12.5844L5.11973 9.15904C5.18765 9.09113 5.30429 9.13911 5.30429 9.23582V11.5582H12.3173C12.5211 11.5582 12.6865 11.7236 12.6865 11.9274V13.4038Z" fill="#171614"/>
</svg>
