<svg width="23" height="22" viewBox="0 0 23 22" fill="none" xmlns="http://www.w3.org/2000/svg">
<path d="M10.2646 0.896633C10.653 -0.298877 12.3444 -0.298878 12.7328 0.896632L14.5577 6.51308C14.7314 7.04773 15.2297 7.40971 15.7918 7.40971H21.6973C22.9543 7.40971 23.477 9.01826 22.46 9.75713L17.6824 13.2283C17.2276 13.5587 17.0373 14.1444 17.211 14.6791L19.0359 20.2955C19.4243 21.491 18.056 22.4852 17.0391 21.7463L12.2614 18.2751C11.8066 17.9447 11.1908 17.9447 10.736 18.2751L5.95834 21.7463C4.94138 22.4852 3.57307 21.491 3.96151 20.2955L5.78641 14.6791C5.96012 14.1444 5.76982 13.5587 5.31502 13.2283L0.537385 9.75713C-0.479576 9.01826 0.0430718 7.40971 1.30011 7.40971H7.20559C7.76775 7.40971 8.26598 7.04773 8.4397 6.51308L10.2646 0.896633Z" fill="#E8C300"/>
</svg>
