<svg width="23" height="23" viewBox="0 0 23 23" fill="none" xmlns="http://www.w3.org/2000/svg">
<g clip-path="url(#clip0_755_5272)">
<path d="M16.3356 1.98274L16.8398 2.17249L16.3356 2.36224C16.1238 2.4414 15.9315 2.5651 15.7716 2.72498C15.6117 2.88486 15.488 3.0772 15.4089 3.28899L15.2191 3.79545L15.0285 3.28899C14.9494 3.07729 14.8258 2.88501 14.6661 2.72513C14.5064 2.56526 14.3142 2.44151 14.1026 2.36224L13.5957 2.17249L14.1026 1.98274C14.3142 1.90339 14.5063 1.77961 14.666 1.61975C14.8257 1.45988 14.9493 1.26765 15.0285 1.05599L15.2191 0.549072L15.4089 1.05599C15.4881 1.26774 15.6118 1.46003 15.7717 1.6199C15.9316 1.77977 16.1239 1.9035 16.3356 1.98274Z" fill="#D47A12"/>
<path d="M19.538 4.16209L19.9221 4.306L19.538 4.44992C19.3771 4.50971 19.2309 4.60339 19.1093 4.72461C18.9878 4.84584 18.8937 4.99178 18.8335 5.15254L18.6896 5.53663L18.5462 5.15254C18.486 4.99204 18.3922 4.84628 18.271 4.72508C18.1498 4.60389 18.004 4.51006 17.8435 4.44992L17.459 4.306L17.8435 4.16209C18.0044 4.10217 18.1505 4.00844 18.272 3.88723C18.3935 3.76602 18.4876 3.62015 18.548 3.45946L18.6914 3.07538L18.8335 3.45946C18.8937 3.62022 18.9878 3.76616 19.1093 3.88739C19.2309 4.00862 19.3771 4.1023 19.538 4.16209Z" fill="#D47A12"/>
<path d="M21.6846 2.0286L22.0687 2.17252L21.6846 2.31598C21.5241 2.37612 21.3783 2.46994 21.2571 2.59114C21.1359 2.71234 21.0421 2.8581 20.982 3.0186L20.838 3.40314L20.6946 3.0186C20.6343 2.85819 20.5404 2.71251 20.4192 2.59133C20.2981 2.47016 20.1524 2.37627 19.992 2.31598L19.6074 2.17252L19.992 2.0286C20.1525 1.96846 20.2982 1.87464 20.4194 1.75344C20.5406 1.63224 20.6345 1.48648 20.6946 1.32598L20.838 0.941895L20.982 1.32598C21.042 1.48656 21.1358 1.63238 21.257 1.7536C21.3782 1.87481 21.524 1.9686 21.6846 2.0286Z" fill="#D47A12"/>
<path d="M21.4309 17.5688V17.6696C21.4309 18.8989 20.5944 19.6629 19.2474 19.6629H18.7891V21.3968C18.7891 21.4579 18.8011 21.5183 18.8245 21.5748C18.8479 21.6312 18.8821 21.6824 18.9253 21.7256C18.9686 21.7688 19.0198 21.803 19.0763 21.8263C19.1327 21.8496 19.1932 21.8616 19.2543 21.8616H21.0418C21.1028 21.8616 21.1633 21.8496 21.2198 21.8263C21.2762 21.803 21.3275 21.7688 21.3707 21.7256C21.4139 21.6824 21.4482 21.6312 21.4716 21.5748C21.4949 21.5183 21.507 21.4579 21.507 21.3968V17.5551L21.4309 17.5688Z" fill="#839FB8"/>
<path d="M1.59476 17.6678V17.622L1.49026 17.5881V21.3922C1.48965 21.4537 1.50123 21.5146 1.52431 21.5715C1.54739 21.6284 1.58153 21.6802 1.62475 21.7238C1.66796 21.7675 1.7194 21.8021 1.77609 21.8258C1.83278 21.8494 1.89359 21.8616 1.95501 21.8616H3.74251C3.86577 21.8616 3.98398 21.8126 4.07113 21.7255C4.15829 21.6383 4.20726 21.5201 4.20726 21.3968V19.6629H3.77826C2.43167 19.6629 1.59476 18.8989 1.59476 17.6678Z" fill="#839FB8"/>
<path d="M2.87581 9.2313C2.83921 9.14592 2.77485 9.07538 2.69316 9.03113C2.61148 8.98688 2.51724 8.97149 2.42572 8.98747L1.27943 9.18868C1.17354 9.20579 1.07722 9.26009 1.00775 9.34182C0.938279 9.42356 0.900216 9.52737 0.900391 9.63464V9.85968C0.900413 9.96296 0.93574 10.0631 1.00051 10.1436C1.06529 10.224 1.15562 10.2799 1.25652 10.302L2.88131 10.6732L3.26081 10.0934L2.87581 9.2313Z" fill="#019F74"/>
<path d="M21.7214 9.18863L20.5756 8.98972C20.4841 8.97385 20.39 8.98929 20.3084 9.03353C20.2268 9.07778 20.1625 9.14825 20.1259 9.23355L19.7441 10.0966L20.1282 10.6773L21.7452 10.3019C21.8462 10.28 21.9367 10.2242 22.0016 10.1437C22.0665 10.0633 22.1018 9.963 22.1018 9.85963V9.63459C22.1019 9.52712 22.0637 9.42314 21.9939 9.34138C21.9242 9.25962 21.8275 9.20545 21.7214 9.18863Z" fill="#019F74"/>
<path d="M20.9263 11.8043L19.7406 9.99621L19.6228 9.81654L18.6186 7.44696C18.4566 7.06218 18.1993 6.72498 17.8709 6.46711C17.5425 6.20924 17.154 6.03918 16.7417 5.97296C15.007 5.70958 13.2544 5.58162 11.4998 5.59025C9.74529 5.58205 7.99283 5.71047 6.25828 5.97434C5.84566 6.04024 5.45662 6.21014 5.12784 6.46803C4.79907 6.72592 4.54139 7.06329 4.37911 7.44834L3.37673 9.81654L3.25894 9.99621L2.07323 11.8043C1.69283 12.3845 1.49019 13.0631 1.49023 13.7568V17.6678C1.49023 18.985 2.4069 19.7528 3.7654 19.7528H19.2346C20.5913 19.7528 21.5098 18.985 21.5098 17.6678V13.7568C21.5097 13.0631 21.3069 12.3844 20.9263 11.8043Z" fill="#35A880"/>
<path d="M1.49023 16.9432V17.6678C1.49023 18.9851 2.4069 19.7528 3.7654 19.7528H19.2346C20.5913 19.7528 21.5098 18.9851 21.5098 17.6678V16.9432H1.49023Z" fill="#017A54"/>
<path d="M3.99219 9.53791L4.80252 7.62712C4.93342 7.31339 5.14244 7.03838 5.40967 6.82827C5.67691 6.61815 5.99347 6.47993 6.32923 6.42675C8.04019 6.16721 9.76871 6.04079 11.4992 6.04862C13.2297 6.04079 14.9583 6.16721 16.6692 6.42675C17.005 6.47993 17.3216 6.61815 17.5888 6.82827C17.856 7.03838 18.065 7.31339 18.1959 7.62712L19.0063 9.53791H3.99219Z" fill="#C1ECFB"/>
<path d="M8.92293 9.07958H18.8128L18.1968 7.62712C18.0659 7.31339 17.8569 7.03838 17.5897 6.82827C17.3225 6.61815 17.0059 6.47993 16.6701 6.42675C14.9592 6.16721 13.2307 6.04079 11.5001 6.04862C10.2247 6.04652 8.95001 6.11338 7.68176 6.24891C7.64269 6.27736 7.60796 6.31133 7.57864 6.34975C7.38313 6.60013 7.26216 6.90055 7.2296 7.21655C7.19704 7.53254 7.25421 7.85132 7.39455 8.13631C7.5349 8.4213 7.75272 8.66096 8.02305 8.8278C8.29338 8.99464 8.60527 9.0819 8.92293 9.07958Z" fill="#CEF4FF"/>
<path d="M21.5104 13.7569C21.5103 13.0631 21.3075 12.3845 20.9269 11.8044L19.7412 9.99624L19.6234 9.81657L19.5052 9.5379H4.39347C4.30685 9.69099 4.21931 9.84957 4.13039 10.015C3.47589 11.2324 2.83789 11.979 2.83789 13.7757V16.7411C2.83789 16.8098 2.8411 16.8786 2.84614 16.9432H21.5104V13.7569Z" fill="#1FC091"/>
<path d="M2.84375 16.9432C2.93542 18.1348 3.82504 18.826 5.11067 18.826H20.5799C20.8042 18.8246 21.0277 18.7994 21.2467 18.7508C21.4283 18.4193 21.519 18.0457 21.5094 17.6678V16.9432H2.84375Z" fill="#019F74"/>
<path d="M3.37307 12.7591C3.37307 12.7591 5.17065 12.8709 5.41357 12.9456C5.65648 13.0203 6.58873 14.7927 6.58873 14.7927L3.55548 14.3646C3.42075 14.345 3.29501 14.2853 3.19458 14.1934C3.09414 14.1015 3.02364 13.9815 2.99219 13.849C2.95076 13.6945 2.93451 13.5343 2.94407 13.3746C2.98119 12.964 3.11182 12.7591 3.37307 12.7591Z" fill="#CEF4FF"/>
<path d="M19.6258 12.7591C19.6258 12.7591 17.8282 12.8709 17.5858 12.9456C17.3433 13.0203 16.4102 14.7927 16.4102 14.7927L19.4434 14.3646C19.5781 14.345 19.7039 14.2853 19.8043 14.1934C19.9047 14.1015 19.9753 13.9815 20.0067 13.849C20.0474 13.6944 20.0628 13.5342 20.0525 13.3746C20.0177 12.964 19.8875 12.7591 19.6258 12.7591Z" fill="#CEF4FF"/>
<path d="M7.92865 15.0553L7.02344 13.1354C7.02344 13.1354 10.2121 13.4131 11.4995 13.4131C12.787 13.4131 15.9765 13.1354 15.9765 13.1354L15.0713 15.0553L11.478 15.2607L7.92865 15.0553Z" fill="#019F74"/>
</g>
<defs>
<clipPath id="clip0_755_5272">
<rect width="22" height="22" fill="white" transform="translate(0.5 0.205322)"/>
</clipPath>
</defs>
</svg>
