<svg width="40" height="41" viewBox="0 0 40 41" fill="none" xmlns="http://www.w3.org/2000/svg">
<circle cx="20" cy="20.2053" r="20" fill="white"/>
<g clip-path="url(#clip0_755_5302)">
<path d="M31 20.2053C31 25.1463 26.9949 29.1514 22.0539 29.1514C19.5011 29.1514 17.1984 28.0819 15.5686 26.367H12.7731C12.3885 26.367 12.0405 26.2111 11.7882 25.9593C11.5364 25.707 11.3805 25.359 11.3805 24.9744C11.3805 24.2057 12.0039 23.5822 12.7731 23.5822H13.7678C13.4443 22.7886 13.2311 21.9382 13.1478 21.0501H10.3926C10.008 21.0501 9.66 20.8941 9.40777 20.6423C9.15598 20.3901 9 20.042 9 19.6575C9 18.8883 9.62348 18.2648 10.3926 18.2648H13.3196C13.519 17.3625 13.8546 16.5109 14.3045 15.7331H11.9442C11.5601 15.7331 11.212 15.5771 10.9598 15.3253C10.708 15.0731 10.552 14.7251 10.552 14.3405C10.552 13.5714 11.1755 12.9479 11.9442 12.9479H16.8225C18.2941 11.8857 20.101 11.2592 22.0539 11.2592H22.0784C27.0215 11.2725 31 15.2626 31 20.2053Z" fill="#F3403F"/>
<path d="M31.0008 20.2053C31.0008 25.1463 26.9957 29.1514 22.0547 29.1514V11.2592H22.0792C27.0223 11.2725 31.0008 15.2626 31.0008 20.2053Z" fill="#D10040"/>
<path d="M22.0543 26.367C25.4573 26.367 28.216 23.6083 28.216 20.2053C28.216 16.8023 25.4573 14.0436 22.0543 14.0436C18.6513 14.0436 15.8926 16.8023 15.8926 20.2053C15.8926 23.6083 18.6513 26.367 22.0543 26.367Z" fill="#FAECD8"/>
<path d="M28.2164 20.2053C28.2164 23.6084 25.4578 26.367 22.0547 26.367V14.0436C25.4578 14.0436 28.2164 16.8022 28.2164 20.2053Z" fill="#F4D7AF"/>
<path d="M22.0543 13.399C18.3014 13.399 15.248 16.4524 15.248 20.2053C15.248 23.9582 18.3014 27.0115 22.0543 27.0115C25.8072 27.0115 28.8605 23.9582 28.8605 20.2053C28.8605 16.4524 25.8072 13.399 22.0543 13.399ZM22.0543 25.7225C19.0121 25.7225 16.5371 23.2475 16.5371 20.2053C16.5371 17.1631 19.0121 14.6881 22.0543 14.6881C25.0965 14.6881 27.5715 17.1631 27.5715 20.2053C27.5715 23.2475 25.0965 25.7225 22.0543 25.7225Z" fill="#FF7676"/>
<path d="M24.6564 19.5608V20.8499H21.4102V16.3257H22.6992V19.5608H24.6564Z" fill="#514C7E"/>
<path d="M24.6564 20.8499H22.0547V16.3257H22.6992V19.5608H24.6564V20.8499Z" fill="#2D2F5C"/>
<path d="M28.8609 20.2053C28.8609 23.9582 25.8076 27.0115 22.0547 27.0115V25.7225C25.0969 25.7225 27.5719 23.2475 27.5719 20.2053C27.5719 17.1631 25.0969 14.6881 22.0547 14.6881V13.399C25.8076 13.399 28.8609 16.4524 28.8609 20.2053Z" fill="#F3403F"/>
</g>
<defs>
<clipPath id="clip0_755_5302">
<rect width="22" height="22" fill="white" transform="translate(9 9.20532)"/>
</clipPath>
</defs>
</svg>
