<svg width="41" height="41" viewBox="0 0 41 41" fill="none" xmlns="http://www.w3.org/2000/svg">
<circle cx="20.75" cy="20.2053" r="20" fill="white"/>
<g clip-path="url(#clip0_755_5292)">
<path d="M28.6422 29.9114L19.9893 25.3299C19.7638 25.2103 19.4888 25.2268 19.2757 25.3712L12.6592 29.9527C12.4117 30.1245 12.3045 30.4367 12.3952 30.724C12.4832 31.0087 12.75 31.2053 13.0497 31.2053H28.3191C28.634 31.2053 28.9103 30.9908 28.986 30.6828C29.063 30.3762 28.92 30.0585 28.6422 29.9114Z" fill="#4CAF50"/>
<path d="M26.7495 17.9379C26.6588 17.6506 26.3934 17.4553 26.0923 17.4553H13.3832C13.0614 17.4553 12.7823 17.6794 12.7122 17.9943L10.4008 28.3934C10.3403 28.6698 10.4544 28.9544 10.6882 29.1126C10.8037 29.1909 10.9384 29.2294 11.0718 29.2294C11.2093 29.2294 11.3454 29.1896 11.4637 29.1071L26.4828 18.7079C26.7317 18.5374 26.8375 18.2253 26.7495 17.9379Z" fill="#2196F3"/>
<path d="M29.5037 19.4436C29.4542 19.2195 29.2961 19.0366 29.083 18.9527C28.8685 18.8689 28.6278 18.8977 28.4408 19.027L21.823 23.6085C21.625 23.746 21.5136 23.9756 21.5287 24.2135C21.5425 24.4541 21.6813 24.6686 21.8931 24.78L30.5446 29.3615C30.6463 29.4151 30.7563 29.4426 30.8663 29.4426C31.0135 29.4426 31.1606 29.3959 31.283 29.301C31.4961 29.1387 31.5965 28.8679 31.5387 28.6052L29.5037 19.4436Z" fill="#4CAF50"/>
<path d="M14.7578 9.20532C12.1041 9.20532 9.94531 11.3641 9.94531 14.0178C9.94531 16.4873 13.8063 20.8612 14.2463 21.3521C14.3769 21.4964 14.5626 21.5803 14.7578 21.5803C14.9531 21.5803 15.1387 21.4964 15.2693 21.3521C15.7093 20.8612 19.5703 16.4873 19.5703 14.0178C19.5703 11.3641 17.4116 9.20532 14.7578 9.20532Z" fill="#FFC107"/>
<path d="M14.7578 16.0803C15.8969 16.0803 16.8203 15.1569 16.8203 14.0178C16.8203 12.8787 15.8969 11.9553 14.7578 11.9553C13.6187 11.9553 12.6953 12.8787 12.6953 14.0178C12.6953 15.1569 13.6187 16.0803 14.7578 16.0803Z" fill="#383632"/>
</g>
<defs>
<clipPath id="clip0_755_5292">
<rect width="22" height="22" fill="white" transform="translate(9.75 9.20532)"/>
</clipPath>
</defs>
</svg>
