<svg width="41" height="41" viewBox="0 0 41 41" fill="none" xmlns="http://www.w3.org/2000/svg">
<circle cx="20.25" cy="20.2053" r="20" fill="white"/>
<g clip-path="url(#clip0_755_5237)">
<path d="M29.3496 31.2054L28.6864 27.1888C28.5033 26.0798 27.7655 25.1415 26.7309 24.702L24.0899 23.5801H20.2566H20.2433H16.4101L13.769 24.702C12.7345 25.1415 11.9967 26.0798 11.8136 27.1888L11.1504 31.2054H29.3496Z" fill="#28BDFB"/>
<path d="M27.0509 31.2053L26.334 29.6391L27.9559 28.6436L29.3417 31.2053H27.0509Z" fill="#9EE3FF"/>
<path d="M24.9371 13.4989L25.4268 12.3959C25.7984 11.559 25.3497 10.5851 24.4743 10.3284L21.031 9.31853C20.5164 9.16759 19.9695 9.16759 19.4548 9.31853L16.0115 10.3284C15.1361 10.5851 14.6874 11.559 15.059 12.3959L15.5487 13.4989L20.4052 14.1557L24.9371 13.4989Z" fill="#344DB3"/>
<path d="M17.5124 22.0542L16.4102 23.58L19.2565 25.285L20.2435 22.8891L17.5124 22.0542Z" fill="#9EE3FF"/>
<path d="M22.9751 22.0542L24.0774 23.58L21.2311 25.285L20.2441 22.8891L22.9751 22.0542Z" fill="#9EE3FF"/>
<path d="M23.1534 21.9874L21.1939 22.7176C20.5804 22.9463 19.9056 22.9463 19.2921 22.7176L17.3326 21.9874C16.2604 21.5878 15.5488 20.56 15.5488 19.4109V14.8125H24.9372V19.4109C24.9372 20.56 24.2256 21.5878 23.1534 21.9874Z" fill="#FDCFA4"/>
<path d="M23.1663 14.8125V19.4109C23.1663 20.56 22.4547 21.5878 21.3825 21.9874L19.423 22.7176C19.4013 22.7257 19.3793 22.7329 19.3574 22.7404C19.9532 22.9453 20.6019 22.9382 21.1936 22.7176L23.1531 21.9874C24.2253 21.5878 24.9369 20.56 24.9369 19.4109V14.8125H23.1663Z" fill="#FDC590"/>
<path d="M15.5488 14.8125C15.5488 15.7634 16.3159 16.5343 17.2623 16.5343H23.2237C24.17 16.5343 24.9372 15.7634 24.9372 14.8125L20.243 14.1557L15.5488 14.8125Z" fill="#344DB3"/>
<path d="M20.2427 14.1557L19.3574 14.2796L23.1663 14.8125C23.1663 15.7634 22.3992 16.5342 21.4529 16.5342H23.2235C24.1698 16.5342 24.9369 15.7634 24.9369 14.8125L20.2427 14.1557Z" fill="#1C37A6"/>
<path d="M15.5488 13.4988H24.9372V14.8125H15.5488V13.4988Z" fill="#FFBE00"/>
<path d="M24.4741 10.3284L21.0308 9.31853C20.5162 9.16759 19.9693 9.16759 19.4546 9.31853L19.3574 9.34704L22.7035 10.3283C23.5789 10.5851 24.0276 11.559 23.6561 12.3958L23.1663 13.4988H24.9369L25.4267 12.3958C25.7983 11.559 25.3495 10.5851 24.4741 10.3284Z" fill="#1C37A6"/>
<path d="M23.166 13.4988H24.9366V14.8125H23.166V13.4988Z" fill="#F0B300"/>
<path d="M19.2559 25.2851L20.2428 22.8891L21.2298 25.2851L20.8625 26.3019H19.7007L19.2559 25.2851Z" fill="#FFBE00"/>
<path d="M13.4413 31.2053L14.1582 29.6391L12.5363 28.6436L11.1504 31.2053H13.4413Z" fill="#9EE3FF"/>
<path d="M12.8236 27.9903L12.4518 28.7508C12.3013 29.0586 12.3286 29.4235 12.5231 29.7055L12.5409 29.7313C12.7179 29.9877 13.0096 30.1409 13.3212 30.1409C13.6713 30.1409 13.9928 29.9479 14.1576 29.6391L15.0838 27.9025" fill="#FDCFA4"/>
<path d="M27.6684 27.9903L28.0402 28.7508C28.1907 29.0586 28.1634 29.4235 27.9689 29.7055L27.9511 29.7313C27.7741 29.9877 27.4824 30.1409 27.1708 30.1409C26.8207 30.1409 26.4992 29.9479 26.3344 29.6391L25.4082 27.9025" fill="#FDCFA4"/>
<path d="M27.1969 31.1585C26.4521 28.0082 23.6218 25.6639 20.244 25.6639C16.8662 25.6639 14.0358 28.0082 13.291 31.1585M14.696 31.1585C15.3457 28.9781 17.2487 27.3325 19.5656 27.0607V30.427C19.5656 30.6758 19.5388 30.9208 19.4872 31.1585M21.0008 31.1585C20.9492 30.9209 20.9224 30.6758 20.9224 30.427V27.0607C23.2393 27.3325 25.1423 28.9781 25.792 31.1585" fill="#8986A6"/>
<path d="M12.8242 27.9903C12.8242 27.9903 13.9398 29.2217 14.9078 28.7116C15.8758 28.2014 15.8154 26.5487 15.419 26.3714C14.8644 26.1234 13.367 26.9155 12.8242 27.9903Z" fill="#FDCFA4"/>
<path d="M27.668 27.9903C27.668 27.9903 26.5523 29.2217 25.5843 28.7116C24.6164 28.2014 24.6768 26.5487 25.0732 26.3714C25.6278 26.1234 27.1252 26.9155 27.668 27.9903Z" fill="#FDCFA4"/>
<path d="M20.2443 20.9231C19.7056 20.9231 19.2005 20.6964 18.822 20.2846C18.5408 19.9788 19.017 19.5155 19.3108 19.8353C19.5621 20.1087 19.8936 20.2592 20.2443 20.2592C20.595 20.2592 20.9265 20.1087 21.1778 19.8353C21.4589 19.5294 21.9606 19.9649 21.6666 20.2846C21.2881 20.6964 20.783 20.9231 20.2443 20.9231Z" fill="#DD9962"/>
</g>
<defs>
<clipPath id="clip0_755_5237">
<rect width="22" height="22" fill="white" transform="translate(9.25 9.20532)"/>
</clipPath>
</defs>
</svg>
