<svg width="29" height="28" viewBox="0 0 29 28" fill="none" xmlns="http://www.w3.org/2000/svg">
<path d="M14.0818 0.475106C14.2876 -0.158368 15.1838 -0.158369 15.3897 0.475105L18.2863 9.38995C18.3783 9.67325 18.6423 9.86505 18.9402 9.86505H28.3138C28.9799 9.86505 29.2568 10.7174 28.718 11.1089L21.1345 16.6186C20.8936 16.7937 20.7927 17.104 20.8848 17.3873L23.7814 26.3021C23.9872 26.9356 23.2622 27.4624 22.7233 27.0709L15.1399 21.5612C14.8989 21.3861 14.5726 21.3861 14.3316 21.5612L6.74816 27.0709C6.2093 27.4624 5.48426 26.9356 5.69009 26.3021L8.58669 17.3873C8.67874 17.104 8.5779 16.7937 8.33692 16.6186L0.753498 11.1089C0.214633 10.7174 0.491573 9.86505 1.15765 9.86505H10.5313C10.8291 9.86505 11.0931 9.67324 11.1852 9.38995L14.0818 0.475106Z" fill="#E9DB88"/>
</svg>
