<svg width="29" height="28" viewBox="0 0 29 28" fill="none" xmlns="http://www.w3.org/2000/svg">
<path d="M13.6131 0.475106C13.8189 -0.158368 14.7151 -0.158369 14.9209 0.475105L17.8175 9.38995C17.9096 9.67325 18.1736 9.86505 18.4714 9.86505H27.8451C28.5111 9.86505 28.7881 10.7174 28.2492 11.1089L20.6658 16.6186C20.4248 16.7937 20.324 17.104 20.416 17.3873L23.3126 26.3021C23.5184 26.9356 22.7934 27.4624 22.2545 27.0709L14.6711 21.5612C14.4301 21.3861 14.1038 21.3861 13.8628 21.5612L6.27941 27.0709C5.74055 27.4624 5.01551 26.9356 5.22134 26.3021L8.11794 17.3873C8.20999 17.104 8.10915 16.7937 7.86817 16.6186L0.284748 11.1089C-0.254117 10.7174 0.0228227 9.86505 0.688896 9.86505H10.0625C10.3604 9.86505 10.6244 9.67324 10.7164 9.38995L13.6131 0.475106Z" fill="#E8C300"/>
</svg>
