<svg width="35" height="22" viewBox="0 0 35 22" fill="none" xmlns="http://www.w3.org/2000/svg">
<path d="M33.8809 22H1.11911C0.501006 22 0 21.4445 0 20.7593V1.24067C0 0.555502 0.501006 0 1.11911 0H33.8809C34.4989 0 35 0.555426 35 1.24067V20.7593C35 21.4445 34.499 22 33.8809 22Z" fill="#6CBF81"/>
<path d="M33.7085 0H32C32.7133 0 33.2915 0.555426 33.2915 1.24067V20.7593C33.2915 21.4445 32.7133 22 32 22H33.7085C34.4217 22 35 21.4445 35 20.7593V1.24067C35 0.555502 34.4218 0 33.7085 0Z" fill="#5EA06F"/>
<path d="M31.3414 15.2529C31.4373 15.245 31.5107 15.1651 31.5107 15.069V6.93098C31.5107 6.83501 31.4371 6.75495 31.3414 6.7471C30.3483 6.66559 29.5566 5.87282 29.4767 4.87914C29.4691 4.7853 29.391 4.71338 29.2968 4.71338H5.98127C5.8853 4.71338 5.80524 4.78696 5.79739 4.88259C5.71595 5.87461 4.9249 6.66566 3.93288 6.7471C3.83705 6.75495 3.76367 6.83487 3.76367 6.93098V15.069C3.76367 15.165 3.83725 15.245 3.93288 15.2529C4.9249 15.3343 5.71595 16.1254 5.79739 17.1174C5.80524 17.2132 5.88516 17.2866 5.98127 17.2866H29.2931C29.389 17.2866 29.4691 17.213 29.4769 17.1174C29.5584 16.1254 30.3494 15.3343 31.3414 15.2529Z" fill="#92D355"/>
<path d="M31.3397 6.74703C30.3465 6.66552 29.5549 5.87275 29.4749 4.87914C29.4674 4.78531 29.3892 4.71338 29.2951 4.71338H27.4979C27.592 4.71338 27.6702 4.78531 27.6777 4.87914C27.7577 5.87282 28.5493 6.66552 29.5425 6.74703C29.6382 6.75488 29.7117 6.83494 29.7117 6.93091V15.0689C29.7117 15.1651 29.6384 15.245 29.5425 15.2528C28.5505 15.3343 27.7595 16.1253 27.678 17.1173C27.6702 17.213 27.5901 17.2865 27.4941 17.2865H29.2913C29.3873 17.2865 29.4674 17.213 29.4752 17.1173C29.5567 16.1253 30.3477 15.3343 31.3397 15.2528C31.4356 15.245 31.5089 15.1651 31.5089 15.0689V6.93091C31.5089 6.83494 31.4354 6.75488 31.3397 6.74703Z" fill="#86CF3C"/>
<path d="M17.6379 18.9897C22.0504 18.9897 25.6274 15.4127 25.6274 11.0002C25.6274 6.58776 22.0504 3.01074 17.6379 3.01074C13.2255 3.01074 9.64844 6.58776 9.64844 11.0002C9.64844 15.4127 13.2255 18.9897 17.6379 18.9897Z" fill="#D5F3B7"/>
<path d="M17.6379 3.01074C17.3437 3.01074 17.0535 3.02714 16.7676 3.05814C20.7705 3.49191 23.8867 6.88196 23.8867 11.0002C23.8867 15.1185 20.7705 18.5086 16.7676 18.9423C17.0535 18.9733 17.3438 18.9897 17.6379 18.9897C22.0504 18.9897 25.6274 15.4127 25.6274 11.0002C25.6274 6.58778 22.0504 3.01074 17.6379 3.01074Z" fill="#B6E48B"/>
<path d="M18.6608 10.451C18.482 10.3878 18.2988 10.3213 18.1164 10.2519V7.41561C18.5972 7.51537 18.8845 7.76085 18.908 7.78151C19.1242 7.97766 19.4585 7.96312 19.6569 7.74817C19.8562 7.53211 19.8426 7.19529 19.6265 6.99597C19.5935 6.96566 19.0329 6.46107 18.1163 6.33644V5.73443C18.1163 5.44046 17.878 5.20215 17.584 5.20215C17.29 5.20215 17.0517 5.44046 17.0517 5.73443V6.37736C16.9549 6.39755 16.856 6.42228 16.7549 6.45273C15.9422 6.69752 15.3348 7.39357 15.1698 8.26929C15.0197 9.06613 15.2739 9.83377 15.8333 10.2725C16.1397 10.5128 16.5229 10.7328 17.0517 10.9663V14.5275C16.567 14.4989 16.2481 14.3924 15.7105 14.0406C15.4645 13.8798 15.1346 13.9486 14.9736 14.1946C14.8127 14.4406 14.8817 14.7706 15.1276 14.9315C15.8764 15.4214 16.3838 15.5598 17.0517 15.5924V16.2655C17.0517 16.5596 17.29 16.7978 17.584 16.7978C17.878 16.7978 18.1163 16.5595 18.1163 16.2655V15.5518C19.4192 15.3142 20.18 14.2484 20.3473 13.253C20.56 11.9881 19.8981 10.8883 18.6608 10.451ZM16.4904 9.43479C16.2449 9.2423 16.1397 8.87123 16.216 8.4664C16.2869 8.09003 16.5439 7.6338 17.0517 7.47562V9.7865C16.8388 9.67496 16.6472 9.55777 16.4904 9.43479ZM19.2974 13.0765C19.2026 13.6408 18.8008 14.2417 18.1163 14.4553V11.3868C18.1784 11.4093 18.2411 11.4318 18.306 11.4547C19.4132 11.8461 19.3448 12.795 19.2974 13.0765Z" fill="#1D2630"/>
</svg>
