<svg width="14" height="14" viewBox="0 0 14 14" fill="none" xmlns="http://www.w3.org/2000/svg">
<path d="M6.99755 0.333496C3.31918 0.333496 0.333984 3.3243 0.333984 7.00016C0.333984 10.6768 3.31998 13.6668 6.99755 13.6668C10.6759 13.6668 13.6673 10.676 13.6673 7.00016C13.6673 3.3235 10.6751 0.333496 6.99755 0.333496ZM6.99755 3.13054C7.22651 3.12976 7.41328 3.31331 7.41642 3.54217V6.82592L9.79825 9.20204C9.9608 9.36529 9.9608 9.62852 9.79825 9.79099C9.72011 9.86988 9.61305 9.9144 9.50285 9.9144C9.39189 9.9144 9.28484 9.86988 9.20668 9.79099L6.70921 7.29468C6.70453 7.28922 6.70062 7.28297 6.69671 7.27672C6.67717 7.25641 6.66076 7.23376 6.64592 7.21033C6.63732 7.1947 6.62951 7.17908 6.62325 7.16268C6.61231 7.13847 6.6045 7.11269 6.59903 7.08613C6.5959 7.07207 6.59356 7.05723 6.592 7.04239C6.58887 7.02833 6.58731 7.01427 6.58574 7.00021V3.5423C6.58809 3.31579 6.77093 3.13288 6.99755 3.13054Z" fill="#373F46"/>
</svg>
