<svg width="70" height="64" viewBox="0 0 70 64" fill="none" xmlns="http://www.w3.org/2000/svg">
<path d="M22.6866 45.8896H70V46.9043H22.6866V45.8896Z" fill="#373F46"/>
<path d="M62.7484 24.4471L62.7763 24.5209L62.8242 24.6477H63.0505H63.6172H67.5801C68.2046 24.6477 68.7119 24.1407 68.7119 23.5156V22.3833C68.7119 21.758 68.2046 21.251 67.5801 21.251H64.1831C63.5578 21.251 63.0508 21.758 63.0508 22.3833V22.9495H62.1827C62.3885 23.4953 62.5538 23.9332 62.6512 24.1909L62.7484 24.4471Z" fill="#373F46"/>
<path d="M45.9725 16.8931H43.3312C42.9667 16.8931 42.6709 17.1886 42.6709 17.5536C42.6709 17.9181 42.9667 18.2139 43.3312 18.2139H45.9725C46.3375 18.2139 46.6333 17.9181 46.6333 17.5536C46.6333 17.1888 46.3375 16.8931 45.9725 16.8931Z" fill="#373F46"/>
<path d="M28.3584 38.9259C28.2488 40.8012 26.6924 42.2704 24.8146 42.2704C24.74 42.2704 24.6641 42.2681 24.5898 42.2633C24.4828 42.2572 24.377 42.2445 24.2717 42.2286V44.3299C24.2717 44.9556 24.778 45.4624 25.4038 45.4624H29.9329C30.5574 45.4624 31.0649 44.9556 31.0649 44.3299V42.0652H58.9285V44.4047C58.9285 44.9889 59.4013 45.4624 59.986 45.4624H64.2168C64.8002 45.4624 65.2746 44.9889 65.2746 44.4047V40.179H65.41C67.2962 40.179 67.2962 37.2432 67.2962 37.2432H44.6514H28.4393C28.4175 37.7966 28.3916 38.356 28.3584 38.9259Z" fill="#373F46"/>
<path d="M38.1413 36.5359V30.8751H39.84V36.5359H40.9721V30.8751H42.6706V36.5359H43.8029V30.8751H45.5012V36.5359H46.633V30.8751H48.3317V36.5359H49.4636V30.8751H51.1618V36.5359H66.6674C66.6674 36.5359 66.6674 32.8881 66.6674 29.7427C66.6674 27.2751 63.8292 25.5825 62.6056 24.9671L62.4511 24.5595C62.4483 24.5516 59.5132 16.7917 59.1021 15.5607C58.8519 14.7741 58.1952 14.3381 57.4294 14.1506C56.6558 13.9497 55.7041 13.9018 54.541 13.8041C52.008 13.5926 47.397 13.3833 44.6514 13.3833C41.9045 13.3833 37.2946 13.5926 34.7618 13.8041C33.599 13.9018 32.6473 13.9497 31.8726 14.1506C31.1078 14.3378 30.4499 14.7741 30.2 15.5607C29.8941 16.4787 28.1837 21.0268 27.3324 23.2836C27.7431 24.7728 28.0442 26.4568 28.2392 28.342C28.585 28.1919 28.966 28.1074 29.3672 28.1074C30.9295 28.1074 32.1971 29.3742 32.1971 30.9377C32.1971 32.501 30.9295 33.7685 29.3672 33.7685C29.0672 33.7685 28.7785 33.7214 28.5073 33.6349C28.5081 33.7495 28.5109 33.8601 28.5109 33.9758C28.5106 34.7994 28.4949 35.656 28.4662 36.5359H38.1413ZM59.9379 33.7688C58.3738 33.7688 57.1065 32.5013 57.1065 30.938C57.1065 29.3744 58.3738 28.1076 59.9379 28.1076C61.5004 28.1076 62.7679 29.3744 62.7679 30.938C62.7679 32.5013 61.5004 33.7688 59.9379 33.7688ZM31.0066 17.489C31.1756 17.0177 31.4465 16.8176 32.0892 16.6329C32.7239 16.4645 33.6586 16.4079 34.8326 16.3103C37.3308 16.102 41.9451 15.8927 44.6517 15.8927C47.3577 15.8927 51.9727 16.1018 54.4703 16.3103C55.6444 16.4082 56.5799 16.4645 57.2133 16.6329C57.8561 16.8176 58.128 17.0177 58.2967 17.489C58.6544 18.5605 60.7529 22.4668 61.4393 24.2853H27.8633C28.5502 22.4668 30.6495 18.5605 31.0066 17.489Z" fill="#373F46"/>
<path d="M31.5687 30.9383C31.5687 29.7226 30.581 28.7363 29.3675 28.7363C28.9824 28.7363 28.621 28.836 28.3059 29.0095C28.4145 30.2418 28.4781 31.5603 28.5005 32.9608C28.7668 33.0749 29.0598 33.1388 29.3677 33.1388C30.581 33.1388 31.5687 32.1523 31.5687 30.9383Z" fill="#373F46"/>
<path d="M59.9382 33.1388C61.1537 33.1388 62.1392 32.1534 62.1392 30.9378C62.1392 29.7222 61.1537 28.7368 59.9382 28.7368C58.7226 28.7368 57.7372 29.7222 57.7372 30.9378C57.7372 32.1534 58.7226 33.1388 59.9382 33.1388Z" fill="#373F46"/>
<path d="M10.6551 4.02898C10.7447 4.18878 10.8137 4.35417 10.8657 4.52235C11.8136 4.28594 13.0068 4.14465 14.3048 4.14465C17.3867 4.14465 19.8853 4.93987 19.8853 5.92026C19.8853 6.06586 19.8289 6.20765 19.7247 6.3431C19.1283 5.5664 16.9286 4.99034 14.3048 4.99034C13.0563 4.99034 11.9039 5.12098 10.9743 5.34115C10.9479 6.20258 10.4872 7.03077 9.68237 7.48203C9.34703 7.66948 9.03605 7.85161 8.7446 8.02841C8.64947 8.44162 8.59747 8.87106 8.59747 9.31293C8.59747 12.1501 10.6678 14.502 13.3794 14.9444C13.6808 14.9934 13.9897 15.0202 14.3048 15.0202C14.6201 15.0202 14.9288 14.9936 15.2301 14.9444C17.9417 14.502 20.0121 12.1498 20.0121 9.31293C20.0121 8.59914 19.8799 7.91654 19.6405 7.28671C19.7767 7.14542 19.8584 6.99678 19.8789 6.84281C20.543 6.86615 21.0536 6.7591 21.2791 6.40347C22.0355 5.21077 20.0961 0.230957 14.3045 0.230957C11.5029 0.230957 9.60526 1.39677 8.47546 2.73456C9.37976 2.74725 10.2128 3.23883 10.6551 4.02898Z" fill="#373F46"/>
<path d="M13.7168 37.7355H14.8925V60.6334C14.8925 62.3659 16.297 63.7694 18.0285 63.7694C19.7605 63.7694 21.165 62.3659 21.165 60.6334V35.7749V30.9709V22.5949C21.3152 22.9033 21.4668 23.2569 21.6165 23.6696C22.3313 25.6515 22.9327 28.9028 22.9307 33.9783C22.9307 35.3772 22.8861 36.9136 22.7871 38.601C22.7219 39.7198 23.576 40.6799 24.6949 40.7451C24.735 40.7477 24.7751 40.7487 24.8149 40.7487C25.8818 40.7489 26.7762 39.9162 26.8391 38.8374C26.9413 37.0785 26.9885 35.4637 26.9892 33.9785C26.9788 26.3226 25.7554 22.085 24.0887 19.5373C23.2551 18.2728 22.2803 17.4613 21.3793 17.0119C20.5111 16.5743 19.7478 16.4761 19.2915 16.4711C19.2623 16.4698 19.2339 16.4665 19.2045 16.4665H17.0286C17.3723 18.4311 18.2048 24.1627 16.4404 25.3017C16.1456 25.4919 15.8945 25.6535 15.67 25.7912L15.066 19.7511C14.8175 19.8186 14.562 19.8549 14.3066 19.8549H14.3051H14.3043C14.0486 19.8551 13.7929 19.8188 13.5438 19.7516L12.9396 25.7915C12.7149 25.6535 12.4635 25.4922 12.1685 25.3017C10.4048 24.1627 11.2368 18.4311 11.5805 16.4665H9.77295C9.17356 16.261 7.73532 15.7192 6.46246 14.9362C5.71468 14.4821 5.03716 13.9444 4.62243 13.4419C4.19856 12.9257 4.06007 12.5383 4.05905 12.1789C4.06286 11.8202 4.18715 11.2579 4.97222 10.3455C5.74892 9.44828 7.17321 8.30352 9.43458 7.03929C10.4122 6.49139 10.7607 5.2548 10.2128 4.27695C9.6649 3.29935 8.42831 2.95133 7.45046 3.49924C4.92859 4.91592 3.14588 6.2702 1.91234 7.67927C0.686161 9.07261 -0.00378922 10.6253 1.5654e-05 12.1792C1.5654e-05 13.8421 0.769107 15.2286 1.6767 16.2402C3.05685 17.7713 4.82256 18.7393 6.26283 19.4201C6.69152 19.6192 7.09103 19.7881 7.44387 19.9292V30.9712V35.7752V38.6507V60.6337C7.44387 62.3662 8.84837 63.7697 10.5798 63.7697C11.9199 63.7697 13.0606 62.928 13.5098 61.7455C13.6412 61.3995 13.7163 61.0259 13.7163 60.6337V37.7355H13.7168Z" fill="#373F46"/>
<path d="M15.3705 18.4801L15.0154 16.5776H14.3049H13.5949L13.2397 18.4801L13.4404 18.9098C13.7151 19.0308 14.0091 19.0932 14.3043 19.0934C14.6001 19.0932 14.8949 19.0305 15.1703 18.9093L15.3705 18.4801Z" fill="#373F46"/>
</svg>
