<svg width="70" height="70" viewBox="0 0 70 70" fill="none" xmlns="http://www.w3.org/2000/svg">
<g clip-path="url(#clip0_755_1746)">
<path d="M61.25 0H8.75C6.42936 0 4.20376 0.921873 2.56282 2.56282C0.921872 4.20376 0 6.42936 0 8.75L0 49.5833C0 51.904 0.921872 54.1296 2.56282 55.7705C4.20376 57.4115 6.42936 58.3333 8.75 58.3333H61.25C63.5706 58.3333 65.7962 57.4115 67.4372 55.7705C69.0781 54.1296 70 51.904 70 49.5833V8.75C70 6.42936 69.0781 4.20376 67.4372 2.56282C65.7962 0.921873 63.5706 0 61.25 0ZM35 43.75C35 44.5235 34.6927 45.2654 34.1457 45.8124C33.5987 46.3594 32.8569 46.6667 32.0833 46.6667H14.5833C13.8098 46.6667 13.0679 46.3594 12.5209 45.8124C11.974 45.2654 11.6667 44.5235 11.6667 43.75V40.8333C11.6667 37.7391 12.8958 34.7717 15.0838 32.5838C17.2717 30.3958 20.2391 29.1667 23.3333 29.1667C21.6027 29.1667 19.911 28.6535 18.4721 27.692C17.0332 26.7306 15.9117 25.364 15.2494 23.7651C14.5871 22.1663 14.4138 20.407 14.7515 18.7096C15.0891 17.0123 15.9224 15.4532 17.1462 14.2295C18.3699 13.0058 19.929 12.1724 21.6263 11.8348C23.3236 11.4972 25.083 11.6705 26.6818 12.3327C28.2807 12.995 29.6472 14.1165 30.6087 15.5554C31.5702 16.9944 32.0833 18.6861 32.0833 20.4167C32.0833 22.7373 31.1615 24.9629 29.5205 26.6039C27.8796 28.2448 25.654 29.1667 23.3333 29.1667C26.4275 29.1667 29.395 30.3958 31.5829 32.5838C33.7708 34.7717 35 37.7391 35 40.8333V43.75ZM55.4167 37.9167H43.75C42.9765 37.9167 42.2346 37.6094 41.6876 37.0624C41.1406 36.5154 40.8333 35.7735 40.8333 35C40.8333 34.2265 41.1406 33.4846 41.6876 32.9376C42.2346 32.3906 42.9765 32.0833 43.75 32.0833H55.4167C56.1902 32.0833 56.9321 32.3906 57.4791 32.9376C58.026 33.4846 58.3333 34.2265 58.3333 35C58.3333 35.7735 58.026 36.5154 57.4791 37.0624C56.9321 37.6094 56.1902 37.9167 55.4167 37.9167ZM55.4167 26.25H43.75C42.9765 26.25 42.2346 25.9427 41.6876 25.3957C41.1406 24.8487 40.8333 24.1069 40.8333 23.3333C40.8333 22.5598 41.1406 21.8179 41.6876 21.2709C42.2346 20.724 42.9765 20.4167 43.75 20.4167H55.4167C56.1902 20.4167 56.9321 20.724 57.4791 21.2709C58.026 21.8179 58.3333 22.5598 58.3333 23.3333C58.3333 24.1069 58.026 24.8487 57.4791 25.3957C56.9321 25.9427 56.1902 26.25 55.4167 26.25Z" fill="#373F46"/>
<circle cx="54.5" cy="58.5" r="11.5" fill="#F5F6F7"/>
<path fill-rule="evenodd" clip-rule="evenodd" d="M63.2619 58.5C63.2619 64.0044 60.0044 67.2619 54.5 67.2619C52.7213 67.2619 51.1772 66.9218 49.9019 66.2756L62.2756 53.9019C62.9218 55.1772 63.2619 56.7213 63.2619 58.5ZM47.7947 64.6704L60.6704 51.7947C59.1807 50.4587 57.0889 49.7381 54.5 49.7381C48.9956 49.7381 45.7381 52.9956 45.7381 58.5C45.7381 61.0889 46.4587 63.1807 47.7947 64.6704ZM66 58.5C66 64.8513 60.8513 70 54.5 70C48.1487 70 43 64.8513 43 58.5C43 52.1487 48.1487 47 54.5 47C60.8513 47 66 52.1487 66 58.5Z" fill="#EC2929"/>
</g>
<defs>
<clipPath id="clip0_755_1746">
<rect width="70" height="70" fill="white"/>
</clipPath>
</defs>
</svg>
