<svg width="21" height="20" viewBox="0 0 21 20" fill="none" xmlns="http://www.w3.org/2000/svg">
<path d="M10.1367 6.66525C8.30042 6.66525 6.80191 8.16376 6.80191 10C6.80191 11.8362 8.30042 13.3348 10.1367 13.3348C11.9729 13.3348 13.4714 11.8362 13.4714 10C13.4714 8.16376 11.9729 6.66525 10.1367 6.66525ZM20.1384 10C20.1384 8.61907 20.1509 7.25064 20.0734 5.87221C19.9958 4.27113 19.6306 2.85017 18.4598 1.67938C17.2865 0.506085 15.868 0.14334 14.267 0.065788C12.886 -0.0117644 11.5176 0.000744113 10.1392 0.000744113C8.75823 0.000744113 7.3898 -0.0117644 6.01137 0.065788C4.41029 0.14334 2.98933 0.508587 1.81854 1.67938C0.645246 2.85267 0.282501 4.27113 0.204948 5.87221C0.127396 7.25314 0.139904 8.62157 0.139904 10C0.139904 11.3784 0.127396 12.7494 0.204948 14.1278C0.282501 15.7289 0.647748 17.1498 1.81854 18.3206C2.99183 19.4939 4.41029 19.8567 6.01137 19.9342C7.39231 20.0118 8.76073 19.9993 10.1392 19.9993C11.5201 19.9993 12.8885 20.0118 14.267 19.9342C15.868 19.8567 17.289 19.4914 18.4598 18.3206C19.6331 17.1473 19.9958 15.7289 20.0734 14.1278C20.1534 12.7494 20.1384 11.3809 20.1384 10ZM10.1367 15.131C7.29724 15.131 5.00569 12.8394 5.00569 10C5.00569 7.16058 7.29724 4.86903 10.1367 4.86903C12.9761 4.86903 15.2676 7.16058 15.2676 10C15.2676 12.8394 12.9761 15.131 10.1367 15.131ZM15.4778 5.8572C14.8148 5.8572 14.2795 5.32184 14.2795 4.65889C14.2795 3.99594 14.8148 3.46058 15.4778 3.46058C16.1407 3.46058 16.6761 3.99594 16.6761 4.65889C16.6763 4.81631 16.6454 4.97222 16.5853 5.1177C16.5251 5.26317 16.4369 5.39535 16.3255 5.50666C16.2142 5.61798 16.0821 5.70624 15.9366 5.76639C15.7911 5.82654 15.6352 5.8574 15.4778 5.8572Z" fill="#555B60"/>
</svg>
