<svg width="10" height="20" viewBox="0 0 10 20" fill="none" xmlns="http://www.w3.org/2000/svg">
<path d="M8.88317 0.00416134L6.66912 0C4.18172 0 2.57426 1.9319 2.57426 4.92203V7.19141H0.348137C0.155773 7.19141 0 7.37409 0 7.59943V10.8875C0 11.1128 0.155951 11.2953 0.348137 11.2953H2.57426V19.5922C2.57426 19.8175 2.73003 20 2.92239 20H5.82685C6.01921 20 6.17498 19.8173 6.17498 19.5922V11.2953H8.77784C8.9702 11.2953 9.12597 11.1128 9.12597 10.8875L9.12704 7.59943C9.12704 7.49124 9.09027 7.38762 9.02508 7.31105C8.9599 7.23448 8.87109 7.19141 8.77872 7.19141H6.17498V5.26763C6.17498 4.34298 6.36308 3.87358 7.39133 3.87358L8.88281 3.87295C9.075 3.87295 9.23077 3.69027 9.23077 3.46514V0.411972C9.23077 0.187052 9.07517 0.00457747 8.88317 0.00416134Z" fill="#1D2630"/>
</svg>
