<svg width="27" height="20" viewBox="0 0 27 20" fill="none" xmlns="http://www.w3.org/2000/svg">
<path d="M26.2514 3.138C26.1005 2.53242 25.8063 1.98415 25.4003 1.55149C24.9829 1.10552 24.4712 0.786505 23.9137 0.624561C21.827 0.00619463 13.467 0.00619477 13.467 0.00619477C9.98181 -0.0383868 6.49748 0.157694 3.03367 0.59333C2.4761 0.767239 1.9654 1.09338 1.547 1.54274C1.13589 1.98747 0.838112 2.53588 0.682556 3.13675C0.308882 5.40003 0.127325 7.6981 0.140334 9.99999C0.127001 12.2998 0.308112 14.5971 0.682556 16.8632C0.834779 17.4616 1.13145 18.0075 1.54367 18.4485C1.95589 18.8895 2.46922 19.208 3.03367 19.3767C5.14811 19.9938 13.467 19.9938 13.467 19.9938C16.9566 20.0384 20.4454 19.8424 23.9137 19.4067C24.4712 19.2447 24.9829 18.9257 25.4003 18.4797C25.8114 18.0388 26.1037 17.4903 26.2503 16.8932C26.6338 14.6308 26.8202 12.3318 26.807 10.0287C26.8358 7.71592 26.6496 5.40605 26.2514 3.13675V3.138ZM10.8092 14.2773V5.7239L17.7648 10.0012L10.8092 14.2773Z" fill="#555B60"/>
</svg>
