<svg width="22" height="20" viewBox="0 0 22 20" fill="none" xmlns="http://www.w3.org/2000/svg">
<rect x="0.230957" y="6.66776" width="5.22705" height="13.3328" fill="#555B60"/>
<path d="M19.697 8.1603C18.7356 7.16533 17.4641 6.66776 15.8831 6.66776C15.3006 6.66776 14.7711 6.73569 14.2949 6.87164C13.8187 7.0075 13.4166 7.19812 13.0883 7.44359C12.7601 7.68907 12.4988 7.91695 12.3048 8.12723C12.1203 8.32697 11.9399 8.55964 11.7638 8.82284V6.96997H7.20068L7.21467 7.60119C7.22405 8.02209 7.22866 9.31936 7.22866 11.4932C7.22866 13.6672 7.21943 16.5029 7.20088 20.0005H11.7638V12.7291C11.7638 12.2821 11.8144 11.9272 11.9163 11.664C12.1106 11.2167 12.4039 10.8422 12.7971 10.5399C13.1902 10.2372 13.6778 10.086 14.2605 10.086C15.0554 10.086 15.6404 10.3468 16.0149 10.8684C16.3893 11.3899 16.5765 12.1109 16.5765 13.0314V20.0001H21.1395V12.5321C21.1391 10.6121 20.6587 9.15494 19.697 8.1603Z" fill="#555B60"/>
<path d="M2.85845 0C2.07688 0 1.44359 0.236522 0.95845 0.709106C0.473356 1.18179 0.230957 1.77855 0.230957 2.49995C0.230957 3.21125 0.466379 3.80596 0.937273 4.28341C1.40802 4.76091 2.02967 4.99979 2.8019 4.99979H2.83015C3.62132 4.99979 4.25945 4.76112 4.7444 4.28341C5.22935 3.80596 5.46709 3.21146 5.45774 2.49995C5.44834 1.7786 5.20802 1.18179 4.73728 0.709106C4.26658 0.236317 3.64007 0 2.85845 0Z" fill="#555B60"/>
</svg>
