<svg width="24" height="24" viewBox="0 0 24 24" fill="none" xmlns="http://www.w3.org/2000/svg">
<path d="M22 7.28238V17.1607C22 17.5691 21.9106 17.9561 21.7558 18.3074L16.5577 12.7595L22 7.28238ZM2 7.28238V17.1607C2 17.5691 2.08942 17.9561 2.24423 18.3074L7.43931 12.7634L2 7.28238ZM15.0769 14.2498C14.2567 15.0753 13.1692 15.5301 12 15.5301C10.8308 15.5301 9.74326 15.0763 8.91249 14.2498L8.52596 13.8599L3.23463 19.5084C3.68655 19.8181 4.23271 20 4.82117 20H19.1798C19.7683 20 20.3144 19.8181 20.7663 19.5084L15.4701 13.8561L15.0768 14.2519L15.0769 14.2498ZM12 13.9837C12.7538 13.9837 13.4615 13.6886 13.9942 13.1515L21.6317 5.46511C21.149 4.59612 20.2365 4 19.1788 4H4.82014C3.76244 4 2.84994 4.59513 2.36726 5.46511L10.0047 13.1515C10.5374 13.6886 11.2451 13.9837 11.9989 13.9837H12Z" fill="#ffffff"/>
</svg>
