<svg width="56" height="56" viewBox="0 0 56 56" fill="none" xmlns="http://www.w3.org/2000/svg">
<path d="M6.43336 35.5295C5.68195 35.6017 5.1307 36.2678 5.20289 37.0192C5.26961 37.7268 5.8657 38.2573 6.56242 38.2573C6.60507 38.2573 6.64882 38.2551 6.69367 38.2508C6.97148 38.2245 13.581 37.5595 21.9187 33.517C26.8088 31.1458 31.2801 28.0964 35.2099 24.4531C39.7577 20.2367 43.5826 15.2109 46.597 9.50044L46.7621 9.97512C46.9579 10.5406 47.4873 10.895 48.0538 10.895C48.2026 10.895 48.3535 10.8709 48.5023 10.8195C49.2154 10.5723 49.5938 9.79356 49.3456 9.07934L48.1326 5.58372C48.0134 5.24137 47.764 4.96028 47.437 4.80169C47.111 4.64309 46.7348 4.62122 46.3924 4.74044L42.8968 5.9534C42.1837 6.20059 41.8063 6.97934 42.0535 7.69356C42.3007 8.40669 43.0795 8.78403 43.7937 8.53684L44.0606 8.44387C41.2201 13.7672 37.6424 18.4572 33.4041 22.3979C29.6876 25.8542 25.4559 28.7504 20.8271 31.0068C12.9291 34.8568 6.52086 35.5197 6.43336 35.5284V35.5295Z" fill="#373F46"/>
<path d="M16.1733 29.3388C23.4325 29.3388 29.3388 23.4325 29.3388 16.1733C29.3388 8.91406 23.4325 3.00781 16.1733 3.00781C8.91406 3.00781 3.00781 8.91406 3.00781 16.1733C3.00781 23.4325 8.91406 29.3388 16.1733 29.3388ZM16.1733 5.74328C21.9242 5.74328 26.6044 10.4223 26.6044 16.1744C26.6044 21.9264 21.9253 26.6055 16.1733 26.6055C10.4213 26.6055 5.74219 21.9264 5.74219 16.1744C5.74219 10.4223 10.4213 5.74328 16.1733 5.74328Z" fill="#373F46"/>
<path d="M15.9185 17.5165C16.0618 17.5438 17.3152 17.8009 17.3152 18.4932C17.3152 19.0182 16.8034 19.4459 16.1734 19.4459C15.702 19.4459 15.2721 19.1965 15.1037 18.8257C14.7909 18.1388 13.9804 17.8348 13.2935 18.1476C12.6067 18.4604 12.3026 19.2709 12.6154 19.9577C13.0409 20.8929 13.8415 21.5973 14.8073 21.9429V22.8124C14.8073 23.5671 15.4198 24.1796 16.1745 24.1796C16.9291 24.1796 17.5416 23.5671 17.5416 22.8124V21.9429C19.0062 21.4157 20.0507 20.0693 20.0507 18.4932C20.0507 16.6841 18.6288 15.247 16.4293 14.8291C16.286 14.8018 15.0326 14.5448 15.0326 13.8524C15.0326 13.3263 15.5445 12.8998 16.1745 12.8998C16.6459 12.8998 17.0757 13.1491 17.2441 13.521C17.557 14.2079 18.3663 14.512 19.0543 14.1991C19.7412 13.8863 20.0452 13.0759 19.7324 12.389C19.307 11.4538 18.5063 10.7484 17.5406 10.4027V9.5332C17.5406 8.77852 16.9281 8.16602 16.1734 8.16602C15.4187 8.16602 14.8062 8.77852 14.8062 9.5332V10.4027C13.3416 10.9299 12.2971 12.2774 12.2971 13.8524C12.2971 15.6604 13.719 17.0987 15.9196 17.5154L15.9185 17.5165Z" fill="#373F46"/>
<path d="M51.625 50.2579H47.5235V29.5347C47.5235 26.3683 44.9477 23.7925 41.7813 23.7925C38.6149 23.7925 36.0391 26.3683 36.0391 29.5347V50.2579H33.7433V39.5983C33.7433 36.4319 31.1675 33.8561 28.0011 33.8561C24.8347 33.8561 22.2589 36.4319 22.2589 39.5983V50.2579H19.9631V44.8483C19.9631 41.6819 17.3874 39.1061 14.2209 39.1061C11.0545 39.1061 8.47876 41.6819 8.47876 44.8483V50.2579H4.3772C3.62251 50.2579 3.01001 50.8704 3.01001 51.6251C3.01001 52.3798 3.62251 52.9923 4.3772 52.9923H51.6261C52.3808 52.9923 52.9933 52.3798 52.9933 51.6251C52.9933 50.8704 52.3808 50.2579 51.6261 50.2579H51.625Z" fill="#373F46"/>
</svg>
