<svg width="50" height="50" viewBox="0 0 50 50" fill="none" xmlns="http://www.w3.org/2000/svg">
<path d="M29.5078 11.2734H16.0703C14.7937 11.2734 13.7578 10.2375 13.7578 8.96094V5.4375C13.7578 4.16094 14.7937 3.125 16.0703 3.125H29.5078C30.7844 3.125 31.8203 4.16094 31.8203 5.4375V8.96094C31.8203 10.2391 30.7844 11.2734 29.5078 11.2734Z" fill="#1D2630"/>
<path d="M45.0468 28.1094C43.6093 26.6719 41.2656 26.6719 39.8281 28.1094L38.1218 29.825L43.3437 35.0453L45.0468 33.3422C46.5 31.8906 46.5 29.5625 45.0468 28.1094Z" fill="#1D2630"/>
<path d="M36.4688 31.4844L27.3594 40.5781C27.1719 40.7812 27.0469 41.0313 27 41.2969L26.3125 45.3438C26.1563 46.2344 26.9375 47 27.8281 46.8594L31.875 46.1719C32.1406 46.125 32.3906 46 32.5781 45.8125L41.6875 36.7031L36.4688 31.4844Z" fill="#1D2630"/>
<path d="M36.1094 7.20312H34.1641V8.96094C34.1641 11.5281 32.075 13.6172 29.5078 13.6172H16.0703C13.5016 13.6172 11.4141 11.5281 11.4141 8.96094V7.20312H9.4375C6.35937 7.20312 3.85938 9.70313 3.85938 12.7813V41.2969C3.85938 44.375 6.35937 46.875 9.4375 46.875H24.2141C23.9766 46.2641 23.8875 45.6016 24.0031 44.9406L24.6891 40.9047C24.8109 40.1891 25.1391 39.5281 25.6328 38.9891L35.5781 29.0578L38.1641 26.4578C39.125 25.4953 40.3578 24.925 41.6844 24.7609V12.7969C41.6875 9.6875 39.2031 7.20312 36.1094 7.20312ZM20.3562 30.3797H13.5766C12.8 30.3797 12.1703 29.75 12.1703 28.9734C12.1703 28.1969 12.8 27.5672 13.5766 27.5672H20.3562C21.1328 27.5672 21.7625 28.1969 21.7625 28.9734C21.7625 29.75 21.1328 30.3797 20.3562 30.3797ZM28.6562 22.3984H13.5781C12.8016 22.3984 12.1719 21.7688 12.1719 20.9922C12.1719 20.2156 12.8016 19.5859 13.5781 19.5859H28.6562C29.4328 19.5859 30.0625 20.2156 30.0625 20.9922C30.0625 21.7688 29.4328 22.3984 28.6562 22.3984Z" fill="#1D2630"/>
</svg>
