<svg width="20" height="20" viewBox="0 0 20 20" fill="none" xmlns="http://www.w3.org/2000/svg">
<g clip-path="url(#clip0_755_257)">
<path d="M10.0002 6.66683C8.1585 6.66683 6.66683 8.1585 6.66683 10.0002C6.66683 11.8418 8.1585 13.3335 10.0002 13.3335C11.8418 13.3335 13.3335 11.8418 13.3335 10.0002C13.3335 8.1585 11.8418 6.66683 10.0002 6.66683ZM17.4502 9.16683C17.2614 7.47693 16.5036 5.90144 15.3013 4.69907C14.0989 3.4967 12.5234 2.73892 10.8335 2.55016V0.833496H9.16683V2.55016C7.47693 2.73892 5.90144 3.4967 4.69907 4.69907C3.4967 5.90144 2.73892 7.47693 2.55016 9.16683H0.833496V10.8335H2.55016C2.73892 12.5234 3.4967 14.0989 4.69907 15.3013C5.90144 16.5036 7.47693 17.2614 9.16683 17.4502V19.1668H10.8335V17.4502C12.5234 17.2614 14.0989 16.5036 15.3013 15.3013C16.5036 14.0989 17.2614 12.5234 17.4502 10.8335H19.1668V9.16683H17.4502ZM10.0002 15.8335C6.77516 15.8335 4.16683 13.2252 4.16683 10.0002C4.16683 6.77516 6.77516 4.16683 10.0002 4.16683C13.2252 4.16683 15.8335 6.77516 15.8335 10.0002C15.8335 13.2252 13.2252 15.8335 10.0002 15.8335Z" fill="#555B60"/>
</g>
<defs>
<clipPath id="clip0_755_257">
<rect width="20" height="20" fill="white"/>
</clipPath>
</defs>
</svg>
