<svg width="50" height="50" viewBox="0 0 50 50" fill="none" xmlns="http://www.w3.org/2000/svg">
<g clip-path="url(#clip0_811_2073)">
<path d="M29.3095 44.683C27.5567 41.6139 26.6302 38.1235 26.6302 34.5891V31.9643C26.6302 30.0945 27.809 28.4288 29.5636 27.8195C30.396 27.5305 31.1203 27.0046 31.6581 26.299C32.465 25.2405 33.7578 24.6086 35.1166 24.6086H39.2088V1.46428C39.2088 0.655608 38.5532 0 37.7445 0H13.932V11.3265C13.932 12.1352 13.2764 12.7908 12.4677 12.7908H1.14111V48.5166C1.14111 49.3253 1.79672 49.9809 2.6054 49.9809H33.6718C31.9352 48.4783 30.4545 46.6879 29.3095 44.683ZM33.1563 20.2908C33.1563 21.0994 32.5007 21.7551 31.692 21.7551H21.5607C20.7521 21.7551 20.0965 21.0994 20.0965 20.2908V19.1299C20.0965 16.9292 21.1918 14.9808 22.8648 13.7972C22.1659 12.9525 21.7453 11.8696 21.7453 10.6901C21.7453 7.99879 23.9349 5.8092 26.6263 5.8092C29.3176 5.8092 31.5072 7.99879 31.5072 10.6901C31.5072 11.8696 31.0867 12.9525 30.3878 13.7972C32.0609 14.9808 33.1563 16.9292 33.1563 19.1299V20.2908ZM8.54277 27.6124H18.7075C19.5162 27.6124 20.1718 28.268 20.1718 29.0767C20.1718 29.8853 19.5162 30.5409 18.7075 30.5409H8.54277C7.7341 30.5409 7.07849 29.8853 7.07849 29.0767C7.07849 28.268 7.7341 27.6124 8.54277 27.6124ZM8.54277 33.4302H18.7075C19.5162 33.4302 20.1718 34.0858 20.1718 34.8945C20.1718 35.7031 19.5162 36.3587 18.7075 36.3587H8.54277C7.7341 36.3587 7.07849 35.7031 7.07849 34.8945C7.07849 34.0858 7.7341 33.4302 8.54277 33.4302ZM8.54277 39.2877H18.7075C19.5162 39.2877 20.1718 39.9433 20.1718 40.752C20.1718 41.5606 19.5162 42.2163 18.7075 42.2163H8.54277C7.7341 42.2163 7.07849 41.5606 7.07849 40.752C7.07849 39.9433 7.7341 39.2877 8.54277 39.2877Z" fill="#1D2630"/>
<path d="M11.0035 8.39796V0L1.14111 9.86224H9.53917C10.3478 9.86224 11.0035 9.20673 11.0035 8.39796Z" fill="#1D2630"/>
<path d="M48.8588 34.589V31.9641C48.8588 31.3403 48.4707 30.7866 47.8932 30.5859C46.5155 30.1075 45.318 29.2389 44.4302 28.0742C44.1739 27.7379 43.7517 27.5371 43.301 27.5371H35.1164C34.6657 27.5371 34.2435 27.7379 33.9872 28.0743C33.0994 29.239 31.902 30.1075 30.5242 30.5859C29.9466 30.7866 29.5586 31.3404 29.5586 31.9642V34.589C29.5586 40.7274 32.843 46.4779 38.1299 49.5966L38.4732 49.7991C38.9269 50.0668 39.4906 50.0667 39.9441 49.7992L40.2875 49.5966C45.5745 46.4779 48.8588 40.7274 48.8588 34.589ZM39.4416 41.8139C39.1557 42.0998 38.7809 42.2428 38.4063 42.2428C38.0316 42.2428 37.6568 42.0998 37.3709 41.8139L34.8557 39.2986C34.2838 38.7269 34.2838 37.7997 34.8557 37.2278C35.4274 36.6561 36.3546 36.6561 36.9265 37.2278L38.4063 38.7076L42.4675 34.6464C43.0393 34.0746 43.9665 34.0746 44.5383 34.6464C45.1102 35.2182 45.1102 36.1453 44.5383 36.7172L39.4416 41.8139Z" fill="#1D2630"/>
<path d="M27.0362 15.5527C26.9009 15.5641 26.7645 15.5712 26.6263 15.5712C26.4881 15.5712 26.3518 15.564 26.2165 15.5527C24.5222 15.7456 23.1808 17.118 23.0376 18.8266H30.2149C30.0718 17.118 28.7304 15.7456 27.0362 15.5527Z" fill="#1D2630"/>
<path d="M26.6262 12.6425C27.7045 12.6425 28.5786 11.7684 28.5786 10.6902C28.5786 9.6119 27.7045 8.73779 26.6262 8.73779C25.5479 8.73779 24.6738 9.6119 24.6738 10.6902C24.6738 11.7684 25.5479 12.6425 26.6262 12.6425Z" fill="#1D2630"/>
</g>
<defs>
<clipPath id="clip0_811_2073">
<rect width="50" height="50" fill="white"/>
</clipPath>
</defs>
</svg>
