<svg width="57" height="56" viewBox="0 0 57 56" fill="none" xmlns="http://www.w3.org/2000/svg">
<g clip-path="url(#clip0_811_2028)">
<path d="M23.8333 34.7031L9.23939 42.8485C8.81514 43.1031 8.64545 43.6122 8.89999 44.0364C9.06969 44.291 9.32424 44.4607 9.66363 44.4607C9.83333 44.4607 9.91818 44.4607 10.0879 44.3758L24.6818 36.2304C25.1061 35.9758 25.2758 35.4667 25.0212 35.0425C24.7667 34.6182 24.2576 34.4485 23.8333 34.7031Z" fill="#373F46"/>
<path d="M54.5485 46.7516L47.0818 36.6547C46.9121 36.4001 46.5727 36.2304 46.2333 36.3153L45.2151 34.788C46.5727 33.3456 47.506 31.5637 47.8454 29.6122C48.3545 26.8122 47.8454 24.0122 46.2333 21.6365C45.8939 21.1274 45.5545 20.7031 45.1303 20.2789V20.194V12.8122C45.1303 12.7274 45.1303 12.6425 45.0454 12.5577C45.0454 12.5577 45.0454 12.5577 45.0454 12.4728C45.0454 12.388 44.9606 12.3031 44.8757 12.2183L35.2879 2.54556C35.1182 2.37586 34.7788 2.29102 34.5242 2.29102H34.4394H6.01513C3.63937 2.29102 1.77271 4.15768 1.77271 6.53344V52.3516C1.77271 54.7274 3.63937 56.594 6.01513 56.594H40.8879C43.2636 56.594 45.1303 54.7274 45.1303 52.3516V44.885L48.6939 50.7395C49.203 51.588 49.9666 52.0971 50.9848 52.3516C51.2394 52.4365 51.4939 52.4365 51.7485 52.4365C52.4273 52.4365 53.106 52.2668 53.7 51.8425C54.4636 51.3334 55.0576 50.485 55.2273 49.5516C55.3121 48.5334 55.1424 47.6001 54.5485 46.7516ZM43.4333 42.594V52.4365C43.4333 53.794 42.3303 54.9819 40.8879 54.9819H6.01513C4.57271 54.9819 3.46967 53.794 3.46967 52.4365V6.61829C3.46967 5.17586 4.57271 4.07283 6.01513 4.07283H33.8454V9.75768C33.8454 11.9637 35.6273 13.7456 37.8333 13.7456H43.5182V18.9213C42.3303 18.0728 40.9727 17.4789 39.4454 17.2243C36.6454 16.7153 33.8454 17.3092 31.4697 18.8365C26.6333 22.1456 25.3606 28.7637 28.5848 33.6001C30.6212 36.6547 34.0151 38.2668 37.4091 38.2668C38.6818 38.2668 39.9545 38.0122 41.2273 37.588L42.2454 39.1153C41.9909 39.3698 41.906 39.794 42.1606 40.1334L43.5182 42.4244C43.5182 42.3395 43.4333 42.4244 43.4333 42.594ZM42.4151 34.9577C38.3424 37.6728 32.7424 36.6547 30.0273 32.5819C27.3121 28.5092 28.3303 22.9092 32.403 20.194C33.9303 19.1759 35.6273 18.6668 37.4091 18.6668C38.003 18.6668 38.5121 18.7516 39.106 18.8365C41.4818 19.2607 43.4333 20.6183 44.7909 22.5698C46.1485 24.5213 46.5727 26.8971 46.1485 29.2728C45.7242 31.5637 44.3666 33.6001 42.4151 34.9577Z" fill="#373F46"/>
<path d="M28.6697 51.5033C28.6697 52.0124 28.3303 52.3518 27.8212 52.3518H7.0333C6.52421 52.3518 6.18481 52.0124 6.18481 51.5033C6.18481 51.0791 6.52421 50.6549 7.0333 50.6549H7.79694V48.1094C7.79694 47.6852 8.22118 47.2609 8.64542 47.2609H12.3788C12.8878 47.2609 13.2272 47.6852 13.2272 48.1094V50.6549H14.6697V44.6306C14.6697 44.2064 15.0091 43.7821 15.5181 43.7821H19.2515C19.7606 43.7821 20.1 44.2064 20.1 44.6306V50.6549H21.5424V41.2367C21.5424 40.8124 21.9666 40.3882 22.3909 40.3882H26.1242C26.6333 40.3882 26.9727 40.8124 26.9727 41.2367V50.7397H27.7363C28.2454 50.6549 28.6697 51.0791 28.6697 51.5033Z" fill="#373F46"/>
<path d="M25.106 15.2729C25.106 17.6486 24.1727 20.0244 22.5606 21.8062C22.3909 21.9759 22.2212 22.0608 21.9666 22.0608C21.7121 22.0608 21.5424 21.9759 21.3727 21.8062L19.506 19.9396C19.1666 19.6002 19.1666 19.0911 19.506 18.7517C20.3545 17.8183 20.7787 16.5456 20.7787 15.2729C20.7787 14.3396 20.5242 13.4062 20.0151 12.5577C19.8454 12.2183 19.8454 11.7941 20.1 11.5396L22.0515 9.58804C22.2212 9.41834 22.4757 9.3335 22.7303 9.3335C22.9848 9.3335 23.2393 9.50319 23.3242 9.67289C24.5121 11.3699 25.106 13.3214 25.106 15.2729Z" fill="#373F46"/>
<path d="M20.3546 23.2488C20.3546 23.5033 20.1849 23.7579 19.9303 23.8427C18.5727 24.5215 16.9606 24.9457 15.4333 24.9457C10.0879 24.9457 5.76062 20.6185 5.76062 15.273C5.76062 10.5215 9.15456 6.53363 13.8212 5.68514C14.0758 5.60029 14.3303 5.68514 14.5 5.85484C14.6697 6.02454 14.8394 6.27908 14.8394 6.53363V9.33363C14.8394 9.75787 14.5849 10.0124 14.1606 10.1821C11.7849 10.7761 10.1727 12.8973 10.1727 15.3579C10.1727 18.3276 12.5485 20.7033 15.5182 20.7033C16.1121 20.7033 16.7061 20.6185 17.3 20.3639C17.6394 20.2791 17.9788 20.3639 18.2333 20.5336L20.2697 22.57C20.3546 22.7397 20.4394 22.9942 20.3546 23.2488Z" fill="#373F46"/>
<path d="M21.3727 7.97605C21.3727 8.2306 21.2878 8.48514 21.1181 8.65484L19.1666 10.6064C18.9969 10.7761 18.7424 10.8609 18.5727 10.8609C18.403 10.8609 18.2333 10.8609 18.1484 10.7761C17.7242 10.5215 17.2999 10.3518 16.7908 10.1821C16.4515 10.0973 16.1121 9.75787 16.1121 9.33363V6.53363C16.1121 6.27908 16.1969 6.02454 16.4515 5.85484C16.6212 5.68514 16.8757 5.60029 17.1302 5.68514C18.4878 5.93969 19.8454 6.44878 21.0333 7.29726C21.203 7.46696 21.2878 7.72151 21.3727 7.97605Z" fill="#373F46"/>
<path d="M41.5667 33.685C40.294 34.5334 38.9364 34.9577 37.4091 34.9577C36.9 34.9577 36.4758 34.9577 35.9667 34.788C34.0152 34.4486 32.3182 33.2607 31.2152 31.6486C28.9243 28.2547 29.7727 23.6728 33.1667 21.3819C36.5606 19.091 41.1424 20.0243 43.4334 23.3334C45.8091 26.8122 44.9606 31.394 41.5667 33.685Z" fill="#373F46"/>
<path d="M6.94849 27.576C6.94849 28.0851 7.28788 28.4245 7.79697 28.4245H25.2758C25.7849 28.4245 26.1242 28.0851 26.1242 27.576C26.1242 27.0669 25.7849 26.7275 25.2758 26.7275H7.79697C7.37273 26.7275 6.94849 27.0669 6.94849 27.576Z" fill="#373F46"/>
<path d="M26.1242 30.8851C26.1242 30.376 25.7849 30.0366 25.2758 30.0366H7.79697C7.28788 30.0366 6.94849 30.376 6.94849 30.8851C6.94849 31.3942 7.28788 31.7336 7.79697 31.7336H25.2758C25.7849 31.7336 26.1242 31.3093 26.1242 30.8851Z" fill="#373F46"/>
<path d="M27.6515 11.5397H31.5545C32.0636 11.5397 32.403 11.2003 32.403 10.6913C32.403 10.1822 32.0636 9.84277 31.5545 9.84277H27.6515C27.1424 9.84277 26.803 10.1822 26.803 10.6913C26.803 11.2003 27.2272 11.5397 27.6515 11.5397Z" fill="#373F46"/>
<path d="M27.6515 15.3576H30.2818C30.7909 15.3576 31.1302 15.0182 31.1302 14.5091C31.1302 14 30.7909 13.6606 30.2818 13.6606H27.6515C27.1424 13.6606 26.803 14 26.803 14.5091C26.803 15.0182 27.2272 15.3576 27.6515 15.3576Z" fill="#373F46"/>
<path d="M38.7666 44.8003H31.7242C31.2151 44.8003 30.8757 45.1397 30.8757 45.6488C30.8757 46.1579 31.2151 46.4973 31.7242 46.4973H38.7666C39.2757 46.4973 39.6151 46.1579 39.6151 45.6488C39.6151 45.1397 39.2757 44.8003 38.7666 44.8003Z" fill="#373F46"/>
<path d="M36.3909 48.6182H31.8091C31.3 48.6182 30.9606 48.9576 30.9606 49.4666C30.9606 49.9757 31.3 50.3151 31.8091 50.3151H36.3909C36.9 50.3151 37.2394 49.9757 37.2394 49.4666C37.2394 48.9576 36.8151 48.6182 36.3909 48.6182Z" fill="#373F46"/>
</g>
<defs>
<clipPath id="clip0_811_2028">
<rect width="56" height="56" fill="white" transform="translate(0.5)"/>
</clipPath>
</defs>
</svg>
