<svg width="112" height="20" viewBox="0 0 112 20" fill="none" xmlns="http://www.w3.org/2000/svg">
<path d="M10.1579 0.513671C10.3836 -0.171224 11.3664 -0.171223 11.5921 0.513671L13.5834 6.55646C13.6843 6.86276 13.9738 7.07013 14.3005 7.07013L20.7446 7.07013C21.475 7.07013 21.7787 7.99165 21.1878 8.41494L15.9744 12.1496C15.7101 12.3389 15.5995 12.6744 15.7005 12.9807L17.6918 19.0235C17.9175 19.7084 17.1225 20.2779 16.5316 19.8547L11.3182 16.12C11.0539 15.9307 10.6961 15.9307 10.4318 16.12L5.21843 19.8547C4.62753 20.2779 3.8325 19.7084 4.0582 19.0235L6.04954 12.9807C6.15048 12.6744 6.0399 12.3389 5.77565 12.1496L0.56224 8.41494C-0.0286514 7.99165 0.275027 7.07013 1.00541 7.07013L7.44953 7.07013C7.77617 7.07013 8.06566 6.86276 8.16659 6.55646L10.1579 0.513671Z" fill="#F9B53D"/>
<path d="M32.4079 0.513671C32.6336 -0.171224 33.6164 -0.171223 33.8421 0.513671L35.8334 6.55646C35.9343 6.86276 36.2238 7.07013 36.5505 7.07013L42.9946 7.07013C43.725 7.07013 44.0287 7.99165 43.4378 8.41494L38.2244 12.1496C37.9601 12.3389 37.8495 12.6744 37.9505 12.9807L39.9418 19.0235C40.1675 19.7084 39.3725 20.2779 38.7816 19.8547L33.5682 16.12C33.3039 15.9307 32.9461 15.9307 32.6818 16.12L27.4684 19.8547C26.8775 20.2779 26.0825 19.7084 26.3082 19.0235L28.2995 12.9807C28.4005 12.6744 28.2899 12.3389 28.0256 12.1496L22.8122 8.41494C22.2213 7.99165 22.525 7.07013 23.2554 7.07013L29.6995 7.07013C30.0262 7.07013 30.3157 6.86276 30.4166 6.55646L32.4079 0.513671Z" fill="#F9B53D"/>
<path d="M55.2408 0.513671C55.4797 -0.171224 56.5203 -0.171223 56.7592 0.513671L58.8677 6.55646C58.9746 6.86276 59.2811 7.07013 59.627 7.07013L66.4502 7.07013C67.2235 7.07013 67.545 7.99165 66.9194 8.41494L61.3993 12.1496C61.1195 12.3389 61.0024 12.6744 61.1093 12.9807L63.2178 19.0235C63.4568 19.7084 62.615 20.2779 61.9893 19.8547L56.4692 16.12C56.1894 15.9307 55.8106 15.9307 55.5308 16.12L50.0107 19.8547C49.385 20.2779 48.5432 19.7084 48.7822 19.0235L50.8907 12.9807C50.9976 12.6744 50.8805 12.3389 50.6007 12.1496L45.0806 8.41494C44.455 7.99165 44.7765 7.07013 45.5498 7.07013L52.373 7.07013C52.7189 7.07013 53.0254 6.86276 53.1323 6.55646L55.2408 0.513671Z" fill="#F9B53D"/>
<path d="M78.1579 0.513671C78.3836 -0.171224 79.3664 -0.171223 79.5921 0.513671L81.5834 6.55646C81.6843 6.86276 81.9738 7.07013 82.3005 7.07013L88.7446 7.07013C89.475 7.07013 89.7787 7.99165 89.1878 8.41494L83.9744 12.1496C83.7101 12.3389 83.5995 12.6744 83.7005 12.9807L85.6918 19.0235C85.9175 19.7084 85.1225 20.2779 84.5316 19.8547L79.3182 16.12C79.0539 15.9307 78.6961 15.9307 78.4318 16.12L73.2184 19.8547C72.6275 20.2779 71.8325 19.7084 72.0582 19.0235L74.0495 12.9807C74.1505 12.6744 74.0399 12.3389 73.7756 12.1496L68.5622 8.41494C67.9713 7.99165 68.275 7.07013 69.0054 7.07013L75.4495 7.07013C75.7762 7.07013 76.0657 6.86276 76.1666 6.55646L78.1579 0.513671Z" fill="#F9B53D"/>
<path d="M100.408 0.513671C100.634 -0.171224 101.616 -0.171223 101.842 0.513671L103.833 6.55646C103.934 6.86276 104.224 7.07013 104.55 7.07013L110.995 7.07013C111.725 7.07013 112.029 7.99165 111.438 8.41494L106.224 12.1496C105.96 12.3389 105.85 12.6744 105.95 12.9807L107.942 19.0235C108.168 19.7084 107.372 20.2779 106.782 19.8547L101.568 16.12C101.304 15.9307 100.946 15.9307 100.682 16.12L95.4684 19.8547C94.8775 20.2779 94.0825 19.7084 94.3082 19.0235L96.2995 12.9807C96.4005 12.6744 96.2899 12.3389 96.0256 12.1496L90.8122 8.41494C90.2213 7.99165 90.525 7.07013 91.2554 7.07013L97.6995 7.07013C98.0262 7.07013 98.3157 6.86276 98.4166 6.55646L100.408 0.513671Z" fill="#C9BEAB"/>
</svg>
