<svg width="14" height="14" viewBox="0 0 14 14" fill="none" xmlns="http://www.w3.org/2000/svg">
<path d="M6.99706 0.333496C3.31869 0.333496 0.333496 3.3243 0.333496 7.00016C0.333496 10.6768 3.31949 13.6668 6.99706 13.6668C10.6754 13.6668 13.6668 10.676 13.6668 7.00016C13.6668 3.3235 10.6746 0.333496 6.99706 0.333496ZM6.99706 3.13054C7.22602 3.12976 7.41279 3.31331 7.41593 3.54217V6.82592L9.79776 9.20204C9.96031 9.36529 9.96031 9.62852 9.79776 9.79099C9.71962 9.86988 9.61256 9.9144 9.50237 9.9144C9.3914 9.9144 9.28435 9.86988 9.20619 9.79099L6.70873 7.29468C6.70404 7.28922 6.70013 7.28297 6.69622 7.27672C6.67669 7.25641 6.66028 7.23376 6.64543 7.21033C6.63683 7.1947 6.62902 7.17908 6.62277 7.16268C6.61182 7.13847 6.60401 7.11269 6.59854 7.08613C6.59541 7.07207 6.59307 7.05723 6.59151 7.04239C6.58838 7.02833 6.58682 7.01427 6.58526 7.00021V3.5423C6.5876 3.31579 6.77044 3.13288 6.99706 3.13054Z" fill="#555B60"/>
</svg>
