<svg width="40" height="40" viewBox="0 0 40 40" fill="none" xmlns="http://www.w3.org/2000/svg">
<circle cx="20" cy="20" r="19.5" fill="white" stroke="#1D2630"/>
<path fill-rule="evenodd" clip-rule="evenodd" d="M21.1113 12.2224C21.1113 11.6088 20.6139 11.1113 20.0002 11.1113C19.3866 11.1113 18.8891 11.6088 18.8891 12.2224V18.8891H12.2224C11.6088 18.8891 11.1113 19.3866 11.1113 20.0002C11.1113 20.6139 11.6088 21.1113 12.2224 21.1113H18.8891V27.778C18.8891 28.3916 19.3866 28.8891 20.0002 28.8891C20.6139 28.8891 21.1113 28.3916 21.1113 27.778V21.1113H27.778C28.3916 21.1113 28.8891 20.6139 28.8891 20.0002C28.8891 19.3866 28.3916 18.8891 27.778 18.8891H21.1113V12.2224Z" fill="#1D2630"/>
</svg>
