<svg width="50" height="41" viewBox="0 0 50 41" fill="none" xmlns="http://www.w3.org/2000/svg">
<path d="M2.64314 18.1344H3.91876C3.78601 18.3113 3.66037 18.4814 3.54113 18.6448C2.30004 20.5259 1.66897 22.7443 1.73484 24.9973V37.483C1.73484 38.176 2.00997 38.8405 2.50007 39.3302C2.99018 39.8203 3.6547 40.0954 4.34727 40.0954H7.72532C8.41795 40.0954 9.0825 39.8203 9.57252 39.3302C10.0623 38.8405 10.3378 38.1759 10.3378 37.483V35.5236H31.7683V24.4612C30.0641 23.9302 28.5739 22.8695 27.514 21.4334C26.454 19.9972 25.8799 18.2608 25.875 16.4758V4.31632C25.8707 2.91332 26.222 1.53163 26.8954 0.30083H25.0229C22.0897 0.234628 19.1565 0.423982 16.2565 0.867099C14.501 1.1732 11.9602 1.88751 10.215 4.37754C9.23515 5.79093 7.66376 9.30137 6.42376 12.3986H6.42412C5.65355 11.6116 4.61564 11.1418 3.5155 11.0824H2.55095H2.5513C1.87754 11.0917 1.23403 11.3632 0.757404 11.8398C0.28082 12.316 0.00925741 12.9599 0 13.6337V15.4859C0.0117458 16.1835 0.293996 16.8495 0.786944 17.3435C1.2799 17.8375 1.94549 18.1208 2.64307 18.134L2.64314 18.1344ZM8.41909 23.0379C8.42265 22.4087 8.71628 21.8164 9.21493 21.4324C9.71359 21.0487 10.3614 20.9163 10.9704 21.0736L15.7515 22.3289V22.3285C16.3747 22.5147 16.872 22.9867 17.0901 23.5995C17.3083 24.2121 17.2214 24.8923 16.8563 25.4304C16.4911 25.9686 15.8914 26.3003 15.2414 26.3238H10.45C9.90862 26.3238 9.38966 26.1088 9.0067 25.7262C8.62408 25.3432 8.4091 24.8243 8.4091 24.2829L8.41909 23.0379ZM29.9316 16.4761V4.31663C29.9316 3.17167 30.3865 2.07399 31.1959 1.26424C32.0056 0.454871 33.1037 0 34.2483 0H45.6834C46.8283 0 47.9264 0.454871 48.7358 1.26424C49.5455 2.07396 50 3.17167 50 4.31663V16.4761C50 17.6207 49.5455 18.7187 48.7358 19.5285C47.9264 20.3379 46.8283 20.7927 45.6834 20.7927H44.0913V23.2624C44.0913 23.4828 44.003 23.6942 43.8464 23.849L41.933 25.7624C41.8732 25.8219 41.8397 25.9027 41.8397 25.987C41.8397 26.0714 41.8732 26.1522 41.933 26.2116L43.6371 27.9107C44.0575 28.3343 44.0575 29.0176 43.6371 29.4416L41.933 31.1457C41.8732 31.2052 41.8397 31.286 41.8397 31.3703C41.8397 31.4543 41.8732 31.5351 41.933 31.5945L43.8464 33.508C44.003 33.6632 44.0913 33.8746 44.0913 34.0949V35.8657C44.092 36.0575 44.0148 36.2419 43.877 36.3757L40.3054 39.9474C40.2153 40.0374 40.0932 40.0883 39.9662 40.0883C39.8387 40.0883 39.7167 40.0374 39.6266 39.9474L36.0549 36.3757C35.9207 36.2404 35.8471 36.0561 35.851 35.8657V20.7722H34.2486C33.1072 20.7722 32.0124 20.3202 31.2033 19.5151C30.3947 18.71 29.9373 17.617 29.932 16.4759L29.9316 16.4761Z" fill="#373F46"/>
<path d="M2.64314 18.1345H3.91876C3.78601 18.3114 3.66037 18.4816 3.54113 18.6449C2.30004 20.526 1.66897 22.7444 1.73484 24.9975V37.4831C1.73484 38.1761 2.00997 38.8406 2.50007 39.3303C2.99018 39.8204 3.6547 40.0956 4.34727 40.0956H7.72532C8.41795 40.0956 9.0825 39.8204 9.57252 39.3303C10.0623 38.8406 10.3378 38.1761 10.3378 37.4831V35.5238H31.7683V24.4613C30.0641 23.9303 28.5739 22.8696 27.514 21.4335C26.454 19.9974 25.8799 18.2609 25.875 16.4759V4.31645C25.8707 2.91344 26.222 1.53175 26.8954 0.300952H25.0229C22.0897 0.23475 19.1565 0.424105 16.2565 0.867221C14.501 1.17332 11.9602 1.88763 10.215 4.37766C9.23515 5.79105 7.66376 9.30149 6.42376 12.3987C5.65319 11.6118 4.61564 11.1419 3.5155 11.0825H2.55095C1.87719 11.0918 1.23403 11.3634 0.757404 11.8399C0.28082 12.3162 0.00925741 12.96 0 13.6338V15.4861C0.0117458 16.1837 0.293996 16.8496 0.786944 17.3436C1.2799 17.8377 1.94555 18.1214 2.64314 18.1345ZM8.41909 23.0381C8.42265 22.4088 8.71628 21.8165 9.21493 21.4325C9.71358 21.0488 10.3614 20.9164 10.9704 21.0737L15.7515 22.329C16.3747 22.5152 16.872 22.9868 17.0901 23.5997C17.3083 24.2122 17.2214 24.8924 16.8563 25.4305C16.4911 25.9687 15.8913 26.3004 15.2414 26.3239H10.45C9.90862 26.3239 9.38966 26.1089 9.0067 25.7263C8.62408 25.3433 8.4091 24.8244 8.4091 24.283L8.41909 23.0381Z" fill="#373F46"/>
</svg>
