<svg width="50" height="38" viewBox="0 0 50 38" fill="none" xmlns="http://www.w3.org/2000/svg">
<path d="M2.5 32.2316V35.4667C2.5 36.1385 2.76339 36.7829 3.23223 37.258C3.70107 37.7331 4.33696 38 5 38H7.5C8.16304 38 8.79893 37.7331 9.26777 37.258C9.73661 36.7829 10 36.1385 10 35.4667V32.9333H40V35.4667C40 36.1385 40.2634 36.7829 40.7322 37.258C41.2011 37.7331 41.837 38 42.5 38H45C45.663 38 46.2989 37.7331 46.7678 37.258C47.2366 36.7829 47.5 36.1385 47.5 35.4667V32.2316C48.2585 31.7908 48.8889 31.1553 49.3278 30.389C49.7667 29.6227 49.9986 28.7527 50 27.8667V20.2667C50 18.1615 48.7325 16.3603 46.93 15.5927L43.51 5.19587C43.0139 3.68215 42.0596 2.36537 40.7828 1.43262C39.506 0.499867 37.9715 -0.00141412 36.3975 2.99636e-06H13.6025C12.0285 -0.00141412 10.494 0.499867 9.21721 1.43262C7.94039 2.36537 6.98612 3.68215 6.49 5.19587L3.07 15.5927C2.16075 15.9786 1.38428 16.6281 0.838086 17.4596C0.291893 18.2912 0.000326656 19.2677 0 20.2667V27.8667C0 29.7363 1.01 31.3525 2.5 32.2316ZM8.75 27.8667C8.25738 27.8665 7.76961 27.768 7.31455 27.5768C6.85949 27.3856 6.44605 27.1055 6.09783 26.7524C5.39457 26.0393 4.99967 25.0723 5 24.0641C5.00033 23.056 5.39587 22.0892 6.0996 21.3766C6.80333 20.664 7.75761 20.2638 8.7525 20.2641C9.74739 20.2645 10.7014 20.6653 11.4047 21.3784C12.1079 22.0915 12.5028 23.0585 12.5025 24.0667C12.5022 25.0748 12.1066 26.0416 11.4029 26.7542C10.6992 27.4668 9.74489 27.867 8.75 27.8667ZM41.25 27.8667C40.2551 27.8663 39.3011 27.4655 38.5978 26.7524C37.8946 26.0393 37.4997 25.0723 37.5 24.0641C37.5003 23.056 37.8959 22.0892 38.5996 21.3766C39.3033 20.664 40.2576 20.2638 41.2525 20.2641C42.2474 20.2645 43.2014 20.6653 43.9047 21.3784C44.6079 22.0915 45.0028 23.0585 45.0025 24.0667C45.0022 25.0748 44.6066 26.0416 43.9029 26.7542C43.1992 27.4668 42.2449 27.867 41.25 27.8667ZM13.6025 5.06667H36.395C36.9199 5.06654 37.4315 5.23384 37.8574 5.54486C38.2832 5.85587 38.6016 6.29481 38.7675 6.79947L41.5325 15.2H8.4675L11.23 6.79947C11.5725 5.76334 12.5275 5.06667 13.6025 5.06667Z" fill="#373F46"/>
</svg>
