<svg width="61" height="60" viewBox="0 0 61 60" fill="none" xmlns="http://www.w3.org/2000/svg">
<path d="M30.5 0C14.237 0 0.5 13.737 0.5 30C0.5 46.263 14.237 60 30.5 60C46.763 60 60.5 46.263 60.5 30C60.5 13.737 46.763 0 30.5 0ZM30.5 15C35.681 15 39.5 18.816 39.5 24C39.5 29.184 35.681 33 30.5 33C25.322 33 21.5 29.184 21.5 24C21.5 18.816 25.322 15 30.5 15ZM15.182 44.316C17.873 40.356 22.361 37.716 27.5 37.716H33.5C38.642 37.716 43.127 40.356 45.818 44.316C41.984 48.42 36.545 51 30.5 51C24.455 51 19.016 48.42 15.182 44.316Z" fill="#373F46"/>
</svg>
