<svg width="50" height="50" viewBox="0 0 50 50" fill="none" xmlns="http://www.w3.org/2000/svg">
<path d="M1.46499 17.0512H6.17191C8.1116 16.98 8.11346 14.1936 6.17191 14.1216H1.46499C-0.474707 14.1929 -0.476563 16.9792 1.46499 17.0512Z" fill="#373F46"/>
<path d="M48.534 32.9497H43.8271C41.8874 33.0209 41.8855 35.8074 43.8271 35.8793H48.534C50.4737 35.8081 50.4755 33.0217 48.534 32.9497Z" fill="#373F46"/>
<path d="M7.89317 9.96634C9.31491 11.2875 11.2868 9.3186 9.9647 7.8948L6.63607 4.56618C6.06411 3.99422 5.1366 3.99422 4.56454 4.56618C3.99248 5.13813 3.99248 6.06565 4.56454 6.63771L7.89317 9.96634Z" fill="#373F46"/>
<path d="M42.1053 40.0348C40.6834 38.7136 38.7116 40.6826 40.0337 42.1063L43.3624 45.4349C43.9342 46.0069 44.8616 46.0072 45.4339 45.4349C46.006 44.863 46.006 43.9355 45.4339 43.3634L42.1053 40.0348Z" fill="#373F46"/>
<path d="M15.5857 7.63751C16.3946 7.63751 17.0505 6.98166 17.0505 6.1727V1.46578C17.0505 0.65682 16.3946 0.000976562 15.5857 0.000976562C14.7767 0.000976562 14.1208 0.65682 14.1208 1.46578V6.1727C14.1208 6.98166 14.7767 7.63751 15.5857 7.63751Z" fill="#373F46"/>
<path d="M34.4133 42.3633C33.6043 42.3633 32.9485 43.0191 32.9485 43.8281V48.535C32.9485 49.344 33.6043 49.9998 34.4133 49.9998C35.2223 49.9998 35.8781 49.344 35.8781 48.535V43.8281C35.8781 43.0191 35.2223 42.3633 34.4133 42.3633Z" fill="#373F46"/>
<path d="M49.9989 14.8545C49.9989 6.66445 43.3357 0.00132817 35.1456 0.00132817C25.6749 -0.127966 18.3691 9.20452 20.7107 18.3565C25.8119 20.1413 29.8589 24.1883 31.6436 29.2895C40.7965 31.6308 50.1276 24.3252 49.9989 14.8545ZM37.7155 10.3452C37.7871 8.40464 40.5734 8.40444 40.6451 10.3452V11.8286C40.5734 13.7692 37.7871 13.7693 37.7155 11.8286V10.3452ZM29.6462 10.3452C29.7179 8.40464 32.5042 8.40444 32.5758 10.3452V11.8286C32.5042 13.7692 29.7179 13.7693 29.6462 11.8286V10.3452ZM29.8308 20.1698C28.5095 18.7475 30.4779 16.7764 31.9019 18.0979C33.6906 19.886 36.6008 19.8858 38.3895 18.0979C38.9616 17.5259 39.8889 17.5261 40.461 18.0982C41.0329 18.6703 41.0328 19.5977 40.4606 20.1698C37.53 23.0996 32.7613 23.0995 29.8308 20.1698Z" fill="#373F46"/>
<path d="M14.8532 20.2935C6.66302 20.2935 0 26.9567 0 35.1467C0.746661 54.8243 28.9626 54.8189 29.7063 35.1465C29.7063 26.9567 23.0432 20.2935 14.8532 20.2935ZM17.4229 30.6374C17.4946 28.6969 20.2808 28.6967 20.3525 30.6374V32.1208C20.2808 34.0614 17.4946 34.0616 17.4229 32.1208V30.6374ZM9.35368 30.6374C9.42535 28.6969 12.2116 28.6967 12.2833 30.6374V32.1208C12.2116 34.0614 9.42535 34.0616 9.35368 32.1208V30.6374ZM20.1681 40.462C17.2375 43.3918 12.4687 43.3917 9.53814 40.462C8.96599 39.89 8.96589 38.9626 9.53775 38.3905C10.1097 37.8183 11.0372 37.8183 11.6093 38.3901C13.3979 40.1783 16.3082 40.1781 18.0969 38.3901C19.5175 37.0692 21.491 39.0378 20.1681 40.462Z" fill="#373F46"/>
</svg>
