<svg width="20" height="20" viewBox="0 0 20 20" fill="none" xmlns="http://www.w3.org/2000/svg">
<path fill-rule="evenodd" clip-rule="evenodd" d="M11.041 2.70829C11.041 2.133 10.5746 1.66663 9.99935 1.66663C9.42405 1.66663 8.95768 2.133 8.95768 2.70829V8.95829H2.70768C2.13239 8.95829 1.66602 9.42466 1.66602 9.99996C1.66602 10.5753 2.13239 11.0416 2.70768 11.0416H8.95768V17.2916C8.95768 17.8669 9.42405 18.3333 9.99935 18.3333C10.5746 18.3333 11.041 17.8669 11.041 17.2916V11.0416H17.291C17.8663 11.0416 18.3327 10.5753 18.3327 9.99996C18.3327 9.42466 17.8663 8.95829 17.291 8.95829H11.041V2.70829Z" fill="#E8C300"/>
</svg>
