<svg width="20" height="20" viewBox="0 0 20 20" fill="none" xmlns="http://www.w3.org/2000/svg">
<path d="M19.6861 16.0807L16.2141 12.5878C15.8118 12.1885 15.1631 12.1885 14.7625 12.5878L12.0224 15.3342C11.7085 15.6484 11.2437 15.7612 10.8205 15.6276C7.76129 14.6467 5.36632 12.2441 4.39491 9.1782C4.25617 8.75809 4.36196 8.29457 4.67066 7.97516L7.39692 5.25139V5.24965C7.79581 4.84864 7.79581 4.19937 7.39692 3.79664L3.90755 0.303798C3.71505 0.109366 3.45319 0 3.1809 0C2.90861 0 2.64676 0.109366 2.45598 0.303798L1.33739 1.42004H1.33566C0.515326 2.24985 0.0401408 3.36262 0.00373496 4.53094C-0.0881809 8.12969 1.51777 12.138 4.67079 15.3342C7.8238 18.5305 11.868 20.0979 15.4545 19.9953H15.477C16.6355 19.9605 17.735 19.4832 18.5536 18.662L19.6861 17.5562C19.8873 17.3635 20 17.0961 20 16.8184C20 16.5406 19.8873 16.2734 19.6861 16.0807Z" fill="#1D2630"/>
</svg>
