<svg width="194" height="87" viewBox="0 0 194 87" fill="none" xmlns="http://www.w3.org/2000/svg">
<path d="M96.9785 86.8385C97.7417 86.3637 98.6742 86.0302 99.5146 85.7053C102.985 85.8384 106.502 85.6463 109.981 85.6691L140.544 85.7348L150.385 85.7555C152.144 85.7645 153.98 85.6831 155.731 85.8458C155.666 85.8691 155.603 85.8941 155.537 85.9156C154.554 86.2376 152.019 86.0256 150.878 86.026C148.574 86.0273 131.24 85.8357 130.568 86.1242C130.508 86.3974 130.495 86.2713 130.583 86.5045L130.442 86.6525L130.597 86.5697C130.315 86.7942 129.769 86.5175 129.384 86.7131L129.439 86.7713L129.602 86.7619L129.617 86.8127L145.45 86.8035C147.39 86.7893 153.628 86.3508 155.12 86.8136C151.868 87.0625 148.51 86.9311 145.246 86.938L127.417 86.9435L108.132 86.9346C104.428 86.9326 100.676 87.0479 96.9785 86.8385Z" fill="#928617"/>
<path d="M160.067 81.9712C160.637 82.2352 161.327 83.2775 161.822 83.7615C162.837 84.7532 164.261 85.8384 165.747 85.7739C167.147 85.7132 168.778 84.7403 169.721 83.7213L169.702 83.5851C168.842 84.4315 167.929 85.0399 166.714 85.2052C165.303 85.3972 163.921 85.0202 162.788 84.1629C161.574 83.2445 159.439 80.3497 159.232 78.8814C159.199 78.649 159.184 78.4605 159.098 78.24C159.034 78.0735 159.007 77.9493 158.986 77.7719L159.117 77.6273C160.843 77.119 169.072 77.0704 170.982 77.4904C171.354 77.4324 171.796 77.3085 172.158 77.4432C172.359 77.8319 172.223 78.1796 172.15 78.5998C172.051 79.2178 171.837 79.8513 171.706 80.4696C171.938 79.8481 172.336 79.0535 172.344 78.3963C172.349 78.0504 172.327 77.6384 172.532 77.3587C174.134 77.1123 185.409 77.326 186.454 77.6509C185.722 77.6739 184.991 77.6912 184.258 77.7029C184.173 78.6333 184.148 79.6804 183.791 80.5552C183.195 82.9093 181.751 84.719 179.7 86.0032C182.286 85.7436 184.93 85.8394 187.527 85.8374L185.208 85.8492L185.395 85.8403C185.807 85.8501 186.229 85.88 186.64 85.8646C188.349 85.9043 192.307 85.6925 193.645 86.2595L193.812 86.4559C192.576 87.0294 187.049 86.6807 185.343 86.6925L164.187 86.8065C161.171 86.8203 158.135 86.9036 155.121 86.8135C153.63 86.3507 147.392 86.7892 145.451 86.8034L129.618 86.8126L129.604 86.7618L129.44 86.7712L129.385 86.713C129.77 86.5174 130.316 86.7941 130.599 86.5696L130.443 86.6524L130.584 86.5044C130.496 86.2712 130.51 86.3973 130.569 86.1241C131.241 85.8356 148.575 86.0271 150.879 86.026C152.021 86.0255 154.555 86.2375 155.539 85.9155C155.604 85.8941 155.668 85.8691 155.732 85.8457C158.412 85.7836 161.882 86.1588 164.436 85.7697C162.57 84.9637 161.072 83.7484 160.067 81.9712Z" fill="#1D2630"/>
<path d="M77.5071 0.00450701C90.7149 -0.0419388 103.957 0.242298 117.041 2.19424C119.717 2.59323 122.593 2.82912 125.122 3.82373C126.992 4.56808 128.668 5.48285 130.396 6.5035C137.067 10.7831 143.129 15.7484 148.937 21.1322C150.698 22.7637 152.52 24.3799 154.149 26.1413C153.96 25.2942 153.395 23.6474 153.979 22.9141C154.26 22.5603 154.801 22.4534 155.229 22.4573C155.881 22.4633 156.564 22.5463 157.211 22.6349C158.926 22.851 161.748 23.0642 162.886 24.564C163.55 25.4395 163.501 26.4506 163.355 27.4808C161.934 28.8377 160.274 29.2889 158.403 29.7091C160.56 30.7389 163.281 31.1699 165.618 31.6594C169.418 32.4613 177.635 34.0183 180.719 36.0856C182.286 37.1356 183.571 38.8565 184.592 40.4134C186.2 42.8635 188.834 48.5474 189.484 51.3896C190.481 55.753 190.135 60.5756 190.034 65.0302C189.979 67.4705 189.989 69.9618 189.759 72.3927C189.593 74.1524 189.238 75.9075 188.992 77.6593C188.157 77.6629 187.283 77.7195 186.453 77.6508C185.408 77.3259 174.133 77.1122 172.531 77.3586C172.326 77.6383 172.348 78.0503 172.343 78.3961C172.335 79.0533 171.937 79.848 171.705 80.4695C171.836 79.8512 172.05 79.2178 172.149 78.5997C172.222 78.1796 172.358 77.8318 172.157 77.4431C171.795 77.3083 171.353 77.4323 170.981 77.4902C169.071 77.0703 160.842 77.1189 159.116 77.6272L158.985 77.7718C159.006 77.9492 159.033 78.0734 159.097 78.2399C159.183 78.4604 159.198 78.6488 159.231 78.8813C159.438 80.3495 161.573 83.2445 162.787 84.1628C163.92 85.02 165.302 85.3971 166.713 85.2051C167.928 85.0398 168.841 84.4313 169.701 83.585L169.72 83.7212C168.777 84.7401 167.145 85.7131 165.746 85.7738C164.26 85.8383 162.836 84.7531 161.821 83.7614C161.326 83.2774 160.636 82.2351 160.066 81.9711C159.203 80.7831 158.79 79.3488 158.47 77.9355C156.862 78.0611 155.218 78.0334 153.605 78.0052C143.1 78.2623 132.58 77.9159 122.075 78.1388C120.804 79.6186 119.415 80.0891 117.506 80.2453C116.14 80.357 114.744 80.2951 113.373 80.2917C110.666 80.285 107.956 80.2455 105.251 80.311C103.867 82.6737 101.927 84.4318 99.5147 85.7048C98.6743 86.0297 97.7418 86.3633 96.9786 86.8381C81.354 86.7871 65.7297 86.8401 50.1056 86.9972C39.1351 87.0292 28.162 86.7791 17.193 86.8626L6.83345 86.8364C5.63572 86.8314 1.22354 87.0381 0.521166 86.8711C0.193204 86.7929 0.156443 86.6964 0 86.4305L0.0805991 86.2136C0.915407 85.7588 5.46524 85.991 6.63294 85.9732C13.7703 85.9405 6.41092 85.9793 13.5473 86.0897C12.6345 85.4464 11.8903 84.7569 11.1754 83.8984C7.72839 79.1534 6.7768 73.4136 6.46612 67.6893C6.01152 67.3668 5.53958 67.0001 5.18628 66.5664C3.518 64.5188 4.08045 48.6644 4.31338 45.4432C4.50328 42.8171 6.26201 33.2268 7.65684 31.1021C9.21825 28.7231 13.8719 27.2313 16.213 25.3106C18.0774 23.7807 19.6135 21.5919 21.2228 19.7908C23.744 16.9694 26.5217 14.1703 29.3848 11.6989C32.6628 8.63027 36.9417 5.53109 41.1314 3.88757C45.1208 2.32256 49.5511 1.87568 53.7818 1.39678C61.6656 0.512975 69.574 0.0488074 77.5071 0.00450701Z" fill="#1D2630"/>
<path d="M48.0506 76.9275L49.452 76.9631L49.5235 77.1754C49.0641 77.3622 48.5469 77.2524 48.0612 77.3171L46.6481 77.2853L46.5391 77.0637C46.797 76.8452 47.6793 76.9429 48.0506 76.9275Z" fill="#1D2630"/>
<path d="M84.2801 44.6145C86.9605 45.5728 89.1515 48.7989 90.3187 51.2471C92.7804 56.4093 94.1987 65.4085 93.7335 71.1297C93.3778 70.2106 93.5898 68.1032 93.1528 67.47C93.0673 62.5834 92.2371 56.5921 90.2372 52.1387C89.0533 49.5021 87.4443 46.8856 84.6342 45.8082C84.38 45.7724 83.9601 45.7798 83.7637 45.6236C84.8159 45.5745 85.3436 46.0414 86.2829 46.2703C85.5874 45.6017 84.9422 45.2008 84.1372 44.6877L84.2801 44.6145Z" fill="#1D2630"/>
<path d="M21.053 70.7653C21.1798 70.5569 21.0983 70.6455 21.2997 70.5011C21.344 70.6118 21.3673 70.6522 21.3794 70.7858C21.4398 71.4587 21.2314 72.2329 21.1122 72.8954C20.6384 75.5338 20.0836 78.1822 18.4534 80.3893C17.7689 81.3161 16.8167 82.1771 15.63 82.3266C14.5543 82.4621 13.5288 81.9755 12.7144 81.3093C9.71119 78.8526 8.76447 73.6501 8.46365 70.0137C8.0675 65.2231 8.37244 57.3047 11.6782 53.567C12.4338 52.7125 13.5238 52.0894 14.6814 52.0329C15.7508 51.9809 16.7378 52.5024 17.5077 53.2073C18.6672 54.2696 20.0764 56.507 20.1677 58.0922L19.9855 58.2161C19.2093 56.3247 18.1237 53.702 16.1166 52.8176C15.2509 52.4362 14.2725 52.4626 13.3989 52.8106C11.7133 53.4823 10.89 55.2216 10.2527 56.7989C7.81265 62.8365 8.02036 71.6983 10.6127 77.6775C11.3046 79.2733 12.3677 81.0359 14.0664 81.6934C14.8202 81.9851 15.5893 82.0441 16.34 81.7127C18.0723 80.9483 19.1432 78.6691 19.7443 76.9731C20.4275 75.0466 20.9406 72.8164 21.053 70.7653Z" fill="#1D2630"/>
<path d="M33.6201 12.9233C33.6259 13.1291 33.6509 13.073 33.573 13.2323C31.7379 16.9763 30.7611 20.5347 29.8642 24.6035C29.2117 24.2892 28.6842 24.0079 28.1827 23.4715C27.5425 22.2549 26.9466 20.7147 26.7852 19.3439C28.27 17.2073 31.5666 14.6318 33.6201 12.9233Z" fill="#8B8A69"/>
<path d="M78.5409 43.6221L78.6788 43.7792C78.6417 43.792 78.6044 43.804 78.5676 43.8172C77.9207 44.0485 76.444 44.9871 76.1666 45.6713C76.1076 45.8164 76.1165 45.825 76.111 45.9591L76.2075 46.0217L76.1232 45.8149L76.3347 46.0147C76.599 45.9119 76.8521 45.819 77.0996 45.6785L77.1828 45.7283L77.2365 45.5969C78.0133 44.9488 79.1291 43.8182 80.2243 43.8478L80.329 43.9783L80.1976 44.0473C79.5389 44.3876 78.853 44.59 78.2372 45.0244C76.3958 46.323 75.4795 48.8181 74.8133 50.8673C74.4372 52.0284 74.1304 53.2076 73.893 54.4048C73.5527 57.5673 73.2112 60.7147 73.0755 63.8947C73.0008 66.7756 72.9316 69.8931 73.545 72.719L72.094 72.4485C72.6954 72.1089 72.1532 70.4746 72.0856 69.8701C71.8678 67.9215 71.9323 65.9418 71.9427 63.984C71.9718 58.5119 72.1626 53.1926 74.505 48.1228C75.3493 46.2958 76.5675 44.3484 78.5409 43.6221Z" fill="#F7EA9C"/>
<path d="M73.0783 63.8949C72.7948 63.4244 72.7382 62.9691 72.7298 62.424C72.7072 60.9182 72.9695 55.345 73.8958 54.405C73.5555 57.5675 73.2141 60.7149 73.0783 63.8949Z" fill="#D9E459"/>
<path d="M71.4046 41.9422C74.2976 42.3857 77.6659 43.1859 80.4293 41.9102L80.5518 42.0726C80.2089 42.6586 78.4061 42.8995 78.543 43.6222C76.5696 44.3485 75.3514 46.296 74.5071 48.1231C72.1648 53.1928 71.974 58.5121 71.9449 63.9842C71.9345 65.942 71.87 67.9217 72.0878 69.8703C72.1554 70.4748 72.6976 72.1091 72.0962 72.4487C71.7689 72.4061 71.4291 72.4068 71.1649 72.1897C70.8741 69.1605 71.0912 65.9143 71.0965 62.8666C71.0808 55.89 71.1835 48.9152 71.4046 41.9422Z" fill="#F5F8E3"/>
<path d="M48.811 8.06899C48.9494 8.04782 48.8551 8.05334 49.0909 8.11643C49.1006 8.50365 47.6056 12.4666 47.3348 13.3311C45.9127 17.8725 44.7978 22.4557 43.6051 27.0583C40.1906 26.775 36.599 25.9996 33.2338 25.3282C32.5191 25.235 31.7899 25.0322 31.084 24.8767C31.7911 21.4805 33.1539 15.0414 35.3179 12.4517C38.1371 9.07758 44.6573 8.37126 48.811 8.06899Z" fill="#D9E459"/>
<path d="M44.8099 29.5376C47.9428 30.0319 51.0889 30.4192 54.2481 30.6995C57.4073 30.9796 60.5724 31.152 63.7433 31.2167C64.5755 32.2958 65.4342 33.508 66.8123 33.9053C68.167 34.2959 69.5404 33.8076 70.7208 33.1554C70.3552 32.5391 70.0886 31.8849 69.8101 31.2262C70.527 31.2361 71.2461 31.2746 71.9628 31.3013C71.9301 31.7419 71.8678 32.1845 71.8196 32.624C71.5556 35.5786 71.1068 38.5553 71.0921 41.5241C70.6873 41.8317 70.4469 41.8326 69.9627 41.8394C69.7745 41.8417 69.8431 41.8375 69.6457 41.9335C64.9733 40.6666 60.2085 39.6405 55.475 38.6285C53.6063 38.229 50.9292 37.8478 49.2059 37.3164C49.0648 37.2729 48.9649 37.1939 48.848 37.1087C47.4286 36.7615 45.6518 36.5369 44.2042 36.6885C43.9462 36.2724 43.8866 35.9798 43.8355 35.4958L43.7349 36.0161C43.2693 36.2325 42.63 36.0044 42.1372 35.9151L42.084 35.4595C42.0967 33.3265 43.7301 31.2843 44.8099 29.5376Z" fill="white"/>
<path d="M43.8379 35.4965C44.0944 35.0867 44.2576 34.9204 44.7372 34.8097C46.1388 34.4855 48.7168 34.808 49.9379 35.5834C50.1348 35.7083 50.2541 35.839 50.3766 36.0395C50.3839 36.3336 50.34 36.5054 50.1247 36.7253C49.7743 37.083 49.2927 36.9898 48.8504 37.1094C47.431 36.7622 45.6542 36.5376 44.2066 36.6892C43.9486 36.2731 43.8889 35.9805 43.8379 35.4965Z" fill="#1D2630"/>
<path d="M44.6348 35.098C45.5984 35.0179 46.4736 35.0275 47.4307 35.1762C48.0882 35.2783 49.5351 35.4816 49.9264 36.0135C49.8619 36.3357 49.8246 36.3326 49.5674 36.5453C49.2426 36.5482 48.9181 36.5398 48.5939 36.52C47.6657 36.4598 44.8603 36.4038 44.3008 35.7665C44.3193 35.4063 44.3965 35.3774 44.6348 35.098Z" fill="white"/>
<path d="M25.6836 69.5667C28.1097 69.6252 30.5519 69.8675 32.9732 70.0364L45.9071 70.9764C48.803 71.3151 51.7609 71.3867 54.6725 71.5711L71.007 72.6218C71.8697 72.6687 72.7147 72.811 73.5734 72.8779C73.9277 74.5803 74.1948 76.4215 74.8746 78.0304C74.0932 78.51 56.1706 77.1628 53.4617 77.1876C52.1412 77.0305 50.7822 77.0079 49.4528 76.9636L48.0514 76.928C46.271 76.5935 44.1946 76.7155 42.3822 76.684C40.4011 76.3458 38.148 76.4635 36.1359 76.4327C33.5201 76.2347 30.8914 76.3955 28.2697 76.1815C28.145 76.1083 28.0235 76.0364 27.9055 75.9526C26.24 74.773 25.9731 71.4445 25.6836 69.5667Z" fill="#928617"/>
<path d="M21.0564 70.7653C20.9441 72.8165 20.4309 75.0466 19.7477 76.9731C19.1465 78.6691 18.0756 80.9483 16.3434 81.7127C15.5928 82.0441 14.8236 81.9851 14.0698 81.6934C12.371 81.0359 11.308 79.2733 10.6161 77.6775C8.02376 71.6983 7.81606 62.8365 10.2561 56.7989C10.8934 55.2216 11.7167 53.4823 13.4023 52.8106C14.2759 52.4627 15.2544 52.4361 16.12 52.8176C18.1271 53.702 19.2127 56.3247 19.9889 58.2161C21.048 62.4359 21.4256 66.4306 21.0564 70.7653Z" fill="#CBCDCD"/>
<path d="M9.60352 64.8992C9.64805 64.7223 9.63964 64.5048 9.81 64.4076C10.0824 64.2523 10.5067 64.2485 10.7998 64.3426C10.9822 64.4011 10.9324 64.397 11.0458 64.5787C11.0263 64.9582 11.0345 65.0117 11.2147 65.3456L9.60352 64.8992Z" fill="#F7EA9C"/>
<path d="M11.2828 76.225C11.0855 75.9597 10.8937 75.8134 10.9329 75.4589C11.0462 74.4376 12.7939 72.76 13.5286 72.0964C13.1125 73.5909 11.7858 74.7398 11.2828 76.225Z" fill="#9B9E73"/>
<path d="M15.4707 62.0076C16.2808 61.0734 15.1581 56.0783 16.0408 54.4327C16.427 54.4006 16.6446 54.6577 16.9722 54.8526C17.015 54.8781 17.0581 54.9026 17.1012 54.9277C16.3332 56.5475 16.0762 59.5685 16.1325 61.3725C16.107 61.8399 16.101 62.2983 15.9604 62.7484L15.9739 62.7055C15.58 62.4692 15.6093 62.4239 15.4707 62.0076Z" fill="#BABBBC"/>
<path d="M16.0493 72.073C16.3754 74.4541 16.5547 76.9894 17.1174 79.3176L16.2132 81.0732C15.9386 78.849 15.2161 74.1306 16.0493 72.073Z" fill="#F7EA9C"/>
<path d="M11.4212 56.821C11.7892 56.1303 12.3109 55.4926 12.7521 54.8442C13.5663 57.2869 14.4401 59.6483 15.472 62.0075C15.6107 62.4238 15.5813 62.469 15.9753 62.7054L15.9618 62.7482C16.1024 62.2982 16.1084 61.8397 16.1339 61.3723C16.0776 59.5684 16.3346 56.5474 17.1026 54.9275C17.7088 55.7414 18.3228 56.6131 18.1358 57.6787C17.956 58.7025 17.5084 59.6309 17.3387 60.6824C17.3839 61.8619 17.1094 63.1949 17.4963 64.3313L17.5815 64.2995C17.7219 63.8928 17.916 63.474 17.8552 63.0384C18.2039 62.7458 19.0113 62.3682 19.4772 62.3896C19.6717 62.3983 20.0394 62.4501 20.1583 62.6267C20.2999 62.8368 20.2859 63.1186 20.3015 63.3635C20.3029 63.9438 20.3532 64.5524 20.1906 65.1131C20.1973 66.2209 20.4912 69.2414 19.7552 70.0765L19.6247 70.0368L19.793 69.6616C18.8392 69.0756 18.0739 68.7526 17.2223 67.9609C17.3695 68.8646 17.2271 69.691 16.7944 70.5032C17.2033 72.5396 18.1286 74.3451 19.02 76.2063C18.5447 77.3461 17.9272 78.3826 17.115 79.3173C16.5523 76.9892 16.373 74.4538 16.0469 72.0727C15.949 71.4244 15.8763 70.7602 15.7365 70.1201C14.312 72.9538 13.2021 75.5464 12.7039 78.7079C11.9651 77.9215 11.6188 77.244 11.283 76.225C11.786 74.7399 13.1128 73.591 13.5289 72.0965C14.1391 71.1423 14.8826 70.1125 15.1635 68.9975C15.2547 68.6358 15.2833 68.3549 15.085 68.0207C14.5271 67.7331 13.7219 67.9757 13.0984 68.0633C12.1194 68.4252 10.6961 68.443 9.64492 68.5749L9.60352 64.8991L11.2147 65.3455C12.3711 65.5806 13.5414 65.8533 14.6299 66.3181C14.6506 65.6028 14.751 64.9453 14.8884 64.2443C13.5927 61.8258 12.6587 59.2529 11.4212 56.821Z" fill="#1D2630"/>
<path d="M15.9757 64.7114C16.0748 64.734 16.2755 64.7742 16.3627 64.8185C16.6488 64.9631 16.707 65.3735 16.7662 65.6562C16.883 66.2146 16.8442 67.0585 16.5188 67.5302L16.3706 67.4123C16.0885 67.1902 15.8933 67.019 15.7675 66.672C15.5175 65.983 15.6799 65.3549 15.9757 64.7114Z" fill="#69684C"/>
<path d="M12.162 56.0945C12.2003 56.1414 12.2441 56.1842 12.2768 56.235C12.4792 56.5518 14.6374 62.2939 14.6916 62.6549C14.7044 62.7413 14.6654 62.8275 14.6523 62.9136C13.6582 61.2627 12.7095 59.2612 12.1033 57.4316C11.9069 56.8388 11.891 56.6359 12.162 56.0945Z" fill="#8B8A69"/>
<path d="M17.3392 60.6826C17.3844 61.8621 17.1099 63.1951 17.4969 64.3315L17.5821 64.2997C17.7224 63.893 17.9166 63.4742 17.8557 63.0387C18.2044 62.746 19.0118 62.3684 19.4778 62.3899C19.6722 62.3985 20.0399 62.4503 20.1588 62.6269C20.3004 62.837 20.2864 63.1188 20.302 63.3638C20.3035 63.944 20.3537 64.5526 20.1911 65.1134C19.4145 65.2214 18.7411 65.6431 18.0547 66.0024C17.8441 66.1126 17.7518 66.1754 17.5008 66.1535C17.4839 66.152 17.4709 66.1376 17.4562 66.1294C17.4367 65.315 17.1939 64.1327 16.8753 63.3828C16.8315 63.6362 16.7615 63.8278 16.6527 64.0605L16.4852 64.1116C16.4606 64.0711 16.4289 64.0343 16.4118 63.9902C16.192 63.423 16.8454 61.9576 17.0517 61.3954L17.3392 60.6826Z" fill="#BABBBC"/>
<path d="M18.4199 64.401C18.4762 64.0884 18.4762 63.9702 18.6738 63.7281C19.0447 63.5845 19.0507 63.5469 19.4196 63.6778L19.5087 64.0627C19.1506 64.1883 18.7942 64.3315 18.4199 64.401Z" fill="#8B8A69"/>
<path d="M82.9053 51.3523C83.7688 51.4459 84.3808 51.6798 85.0599 52.2314C87.8713 54.515 89.0438 60.2564 89.3906 63.6514C89.8709 68.3541 89.4986 75.7638 86.3674 79.5253C85.3138 80.791 84.1507 81.3579 82.5397 81.491C81.6156 81.3796 80.9913 81.1928 80.2212 80.629C77.592 78.7042 76.4257 74.5612 75.9464 71.5109C75.132 66.3312 75.7035 58.0763 78.8634 53.7923C79.9172 52.364 81.168 51.6216 82.9053 51.3523Z" fill="#CBCDCD"/>
<path d="M85.9664 57.5106C86.5338 56.6849 85.8338 56.5319 85.9637 55.7574C86.0025 55.5261 86.1312 55.4984 86.3069 55.3599C86.8139 56.1449 87.2012 57.0103 87.5196 57.888C86.9514 57.5785 86.6217 57.497 85.9664 57.5106Z" fill="#1D2630"/>
<path d="M83.2676 52.6692C83.908 52.9775 84.5111 53.2821 85.0437 53.7603C84.5804 54.742 84.5337 55.998 84.4011 57.0639C83.7912 55.7766 83.5763 54.0693 83.2676 52.6692Z" fill="#BABBBC"/>
<path d="M78.1914 75.7995C78.2114 75.733 78.2301 75.6664 78.2511 75.6002C78.6299 74.3926 80.6197 70.0253 81.6322 69.5144C80.8118 72.1422 79.9381 74.9309 78.8391 77.4545C78.8225 77.4271 78.8052 77.4001 78.789 77.3722C78.7623 77.3262 78.737 77.2791 78.7105 77.2327C78.446 76.7681 78.3248 76.3116 78.1914 75.7995Z" fill="#BABBBC"/>
<path d="M85.0429 53.76C85.4959 54.2278 86.0268 54.7669 86.3088 55.3602C86.1331 55.4988 86.0044 55.5265 85.9656 55.7577C85.8357 56.5322 86.5358 56.6852 85.9683 57.5109C85.4988 58.6045 85.3445 59.8191 84.8743 60.896C84.2582 61.4845 84.5041 62.2805 84.0308 62.887C83.8411 62.8372 83.7523 62.8042 83.5898 62.7111C84.0488 60.9131 84.1528 58.9084 84.4004 57.0635C84.533 55.9977 84.5796 54.7417 85.0429 53.76Z" fill="url(#paint0_linear_755_4828)"/>
<path d="M80.7274 53.5945C81.0723 55.8095 81.4082 60.732 82.4279 62.4989C82.8185 62.6637 83.198 62.3489 83.4471 62.6633C83.475 62.6984 83.5041 62.7328 83.5325 62.7677L83.5842 62.7112C83.7467 62.8043 83.8355 62.8373 84.0251 62.8871C84.4985 62.2806 84.2526 61.4845 84.8686 60.8961C84.4542 63.0772 84.5703 63.6192 84.885 65.7646L84.7497 65.6602L84.4912 65.4617C84.4881 65.3998 84.4866 65.3377 84.4821 65.2759C84.4374 64.6945 84.0316 63.5877 83.5378 63.2502C83.2878 63.0794 83.0148 62.9872 82.7116 63.0645C82.1932 63.1963 81.89 63.727 81.5974 64.1296C81.6332 63.8808 81.6883 63.6057 81.6366 63.3559C81.3813 62.1249 79.6967 58.6854 78.9906 57.5769C78.8584 57.2644 78.7275 56.9544 78.5742 56.6514C79.1005 55.3944 79.6564 54.4695 80.7274 53.5945Z" fill="#1D2630"/>
<path d="M78.9916 57.5769C79.6977 58.6854 81.3823 62.1249 81.6377 63.3558C81.6894 63.6056 81.6343 63.8807 81.5985 64.1296C81.8911 63.7269 82.1943 63.1963 82.7127 63.0644C83.0159 62.9872 83.2888 63.0793 83.5389 63.2502C84.0327 63.5876 84.4384 64.6944 84.4832 65.2758C84.4878 65.3377 84.4892 65.3998 84.4923 65.4616L84.1191 65.3394C84.0469 65.8515 84.0687 66.3661 83.9963 66.8726C83.9655 67.2825 83.9316 67.6639 83.8276 68.0622C83.5747 68.3671 83.4036 68.6111 83.0109 68.7387C82.5933 68.7271 82.3815 68.5538 82.0626 68.3142L81.6461 68.5786C81.4983 68.4655 81.5156 68.5065 81.4398 68.3616C81.0519 67.6215 80.9602 66.6177 81.1686 65.8144C81.1652 65.4322 81.2829 65.0486 81.3664 64.6776L81.2593 64.8816C81.0747 65.2385 81.0612 65.613 80.6899 65.7824C80.4584 65.7006 80.2478 65.6183 80.0329 65.4992C79.0436 65.0296 78.0688 64.5315 77.1084 64.0051C77.0221 65.5605 76.9817 67.117 76.9873 68.6747C76.5638 67.0339 76.6906 64.9466 76.776 63.2632C77.2004 63.4523 77.6308 63.6263 78.0674 63.7852C78.6034 63.7243 79.194 64.0626 79.7251 64.1628C80.2459 64.2609 80.662 64.2136 81.101 63.9062C81.8574 62.4175 78.9742 59.2131 78.9848 57.7367C78.9854 57.6835 78.9893 57.6304 78.9916 57.5769Z" fill="#F7EA9C"/>
<path d="M81.5918 66.1578C81.7044 65.3704 81.8496 64.5218 82.5203 63.9986C82.7864 63.7909 82.9414 63.7989 83.2622 63.8376C83.8003 64.1983 83.9476 64.7463 84.1228 65.3396C84.0507 65.8517 84.0725 66.3662 84.0001 66.8728C83.9693 67.2826 83.9354 67.6641 83.8314 68.0624C83.5785 68.3673 83.4074 68.6113 83.0146 68.7389C82.5971 68.7273 82.3853 68.554 82.0664 68.3144C81.9203 67.7409 81.7731 67.1772 81.6886 66.5903L81.5918 66.1578Z" fill="#1D2630"/>
<path d="M81.8086 66.5188C81.9917 65.9095 82.1672 65.2559 82.6529 64.8202C82.9703 64.7252 82.9638 64.7321 83.2689 64.8657C83.7342 65.4539 83.7996 66.0266 83.8121 66.7602C83.7719 67.03 83.6713 67.2473 83.565 67.4964C83.4242 67.6001 83.3546 67.7113 83.1681 67.6882C82.629 67.6213 82.1448 66.908 81.8086 66.5188Z" fill="#F7EA9C"/>
<path d="M76.9888 68.6749C76.9832 67.1172 77.0235 65.5607 77.1098 64.0054C78.0702 64.5318 79.0451 65.0298 80.0343 65.4994C80.2492 65.6185 80.4598 65.7009 80.6914 65.7827C81.0627 65.6132 81.0762 65.2388 81.2608 64.8819L81.3679 64.6778C81.2844 65.0489 81.1667 65.4325 81.17 65.8146C80.9616 66.6179 81.0533 67.6217 81.4413 68.3618C81.5171 68.5067 81.4998 68.4657 81.6475 68.5789L82.0641 68.3144C82.383 68.5541 82.5948 68.7274 83.0123 68.7389C83.4051 68.6113 83.5762 68.3673 83.8291 68.0624C83.9331 67.6641 83.967 67.2826 83.9978 66.8728C84.0702 66.3662 84.0483 65.8517 84.1205 65.3396L84.4938 65.4618L84.7523 65.6604C84.7145 66.1051 84.6661 66.5462 84.6912 66.9929C84.707 66.9327 84.7244 66.8731 84.7388 66.8124C84.8016 66.548 84.7884 66.6536 84.762 66.3752L84.9083 66.2476C85.0028 66.2996 84.9809 66.2702 85.0153 66.4245C85.2413 67.4432 84.6844 69.1692 84.2101 70.0445C84.2175 70.8933 84.8055 72.1132 85.1022 72.9394C85.9106 73.142 87.2272 73.2024 87.8578 73.7155C87.9049 73.7538 87.9533 73.7901 88.0012 73.8274C87.6313 74.9847 87.319 76.3259 86.6904 77.3677C86.1648 78.0857 85.6887 78.4861 84.9107 78.9085C84.3331 75.9811 83.7996 72.8631 83.6487 69.8835C83.3108 69.8856 82.9685 69.8986 82.6311 69.8885C81.9628 72.981 81.539 76.1858 80.7547 79.2408C79.9468 78.7542 79.4065 78.213 78.8374 77.4547C79.9365 74.9311 80.8101 72.1423 81.6304 69.5146L81.4528 69.1011C81.3886 68.9497 81.3214 68.7406 81.2227 68.6114C80.4966 67.6606 78.1358 69.2759 77.2227 69.0357C77.0581 68.9921 77.0477 68.8169 76.9888 68.6749Z" fill="#1D2630"/>
<path d="M84.4966 65.4615L84.7551 65.6601C84.7173 66.1048 84.6689 66.5459 84.6939 66.9926C84.6059 67.51 84.4228 67.9273 84.2073 68.401C83.9588 68.8224 83.7027 69.3386 83.2113 69.5193C82.8652 69.6464 82.5271 69.5345 82.2299 69.3494C82.0268 69.2228 81.8631 69.0447 81.7019 68.8703L81.6504 68.5786L82.0669 68.3142C82.3858 68.5539 82.5976 68.7271 83.0152 68.7387C83.4079 68.6111 83.579 68.3671 83.8319 68.0622C83.9359 67.6639 83.9698 67.2824 84.0006 66.8726C84.0731 66.366 84.0512 65.8515 84.1234 65.3394L84.4966 65.4615Z" fill="#CBCDCD"/>
<path d="M85.1055 72.9392C85.9138 73.1419 87.2305 73.2022 87.861 73.7153C87.9082 73.7536 87.9566 73.79 88.0045 73.8272C87.6346 74.9846 87.3222 76.3257 86.6936 77.3676C85.8866 76.0702 85.5355 74.3988 85.1055 72.9392Z" fill="#9B9E73"/>
<path d="M85.968 57.5107C86.6233 57.497 86.953 57.5785 87.5212 57.8881C88.0976 59.0351 88.7134 61.291 88.654 62.5757C88.9519 64.7645 88.8068 66.8555 88.9269 69.0374C88.8355 70.6488 88.4415 72.2764 88.004 73.827C87.9561 73.7897 87.9077 73.7534 87.8605 73.7151C87.23 73.202 85.9134 73.1416 85.105 72.939C84.8083 72.1128 84.2203 70.8929 84.2129 70.0441C84.6872 69.1688 85.2441 67.4428 85.0181 66.4241C84.9837 66.2698 85.0056 66.2992 84.911 66.2472L84.7647 66.3747C84.7912 66.6532 84.8044 66.5475 84.7416 66.812C84.7272 66.8727 84.7098 66.9323 84.6939 66.9925C84.6689 66.5459 84.7173 66.1047 84.755 65.6599L84.8903 65.7644C84.5755 63.6189 84.4596 63.077 84.874 60.8959C85.3443 59.8189 85.4985 58.6043 85.968 57.5107Z" fill="#BABBBC"/>
<path d="M85.1426 66.1877C86.3432 64.9731 87.5487 63.8921 88.655 62.5757C88.9529 64.7645 88.8078 66.8555 88.9279 69.0374L88.7453 69.3664C87.8572 69.2886 86.3048 68.134 85.197 67.8437C85.2164 67.2914 85.1729 66.7391 85.1426 66.1877Z" fill="#1D2630"/>
<path d="M53.6957 7.84187C55.737 7.83705 57.9703 8.0777 59.9066 8.75496C64.9531 10.5194 67.2552 15.3252 69.4011 19.8154C69.0223 22.0685 68.5884 24.3025 68.1401 26.5424C68.4888 27.5936 68.8722 28.646 68.9906 29.7537C65.6815 29.7231 62.3737 29.6427 59.0672 29.5126C57.9624 29.4652 55.8472 29.1138 54.8557 29.2909C54.0273 29.516 48.8751 28.4163 47.6133 28.247C47.8907 25.9811 48.4534 23.712 48.981 21.4945C50.0736 16.9015 51.177 11.9016 53.6957 7.84187Z" fill="#1D2630"/>
<path d="M54.8528 29.2905C54.6174 29.1377 54.4066 28.9846 54.2552 28.7411C53.9599 28.2651 53.799 27.1638 53.9816 26.6375C54.2261 25.9328 54.8205 25.489 55.4722 25.1774C57.6245 24.1481 63.8113 22.9912 66.0497 23.8254C67.1892 24.2501 67.6708 25.5244 68.1372 26.5419C68.4859 27.5931 68.8693 28.6456 68.9877 29.7533C65.6786 29.7226 62.3708 29.6423 59.0643 29.5122C57.9595 29.4647 55.8443 29.1134 54.8528 29.2905Z" fill="white"/>
<path d="M54.1406 8.19165C56.2796 8.28216 58.4645 8.52663 60.4586 9.35356C64.8244 11.164 67.2782 15.4776 69.0259 19.6336C68.6206 21.4267 68.2784 23.2381 67.9234 25.0422C67.5956 24.6458 67.2684 24.2242 66.8397 23.9318C64.9111 22.6156 61.4073 23.3342 59.2168 23.6764C57.6773 24.0174 54.9362 24.4739 53.9986 25.8811C53.3526 26.8509 53.615 27.9053 53.8532 28.9536C52.0232 28.5813 50.1425 28.3702 48.2969 28.0723C49.0386 23.0456 51.7354 12.4932 54.1406 8.19165Z" fill="#D9E459"/>
<path d="M30.5319 34.1719C33.0184 34.2263 35.637 34.7331 38.0823 35.1569C39.0755 35.3293 40.7399 35.857 41.6619 35.746L41.7887 35.4543L41.9348 35.6803C41.9879 35.61 42.0565 35.5448 42.0811 35.4601L42.1343 35.9157C42.6272 36.0049 43.2664 36.2331 43.7321 36.0167L43.8327 35.4964C43.8837 35.9804 43.9433 36.273 44.2013 36.6891C45.6489 36.5375 47.4257 36.7621 48.8451 37.1093C48.9621 37.1945 49.062 37.2735 49.203 37.317C50.9263 37.8484 53.6034 38.2296 55.4721 38.6291C60.2057 39.6411 64.9705 40.6672 69.6429 41.9341C69.8402 41.838 69.7716 41.8423 69.9598 41.84C70.444 41.8332 70.6844 41.8322 71.0892 41.5247C70.8041 50.2255 70.8794 58.9118 70.8811 67.6151C70.8811 68.3241 71.0199 71.57 70.8428 72.0035C70.8423 72.0052 70.6447 72.2018 70.6337 72.2117C70.623 72.2213 70.6096 72.2275 70.5976 72.2355C69.162 71.8732 65.6768 71.8242 63.9869 71.7027C58.0679 71.2762 52.1224 70.8539 46.1944 70.5901C43.7625 70.4326 41.332 70.2547 38.9029 70.0565C40.0624 69.8216 42.572 70.5013 43.3717 70.0734C43.0976 69.0443 43.3609 67.1629 42.754 66.348C42.5114 66.0221 36.2104 65.305 35.3303 65.2231C35.1036 65.2022 34.9034 65.1825 34.682 65.1242L34.8397 64.9849C33.3397 64.3106 28.1056 64.5459 26.998 63.7736L27.0644 63.6454C28.4745 63.1119 40.636 64.9859 43.0455 65.4205L42.8982 62.1518C42.8825 60.0025 42.6828 57.8147 42.5699 55.6667C42.3222 51.311 42.1196 46.9531 41.962 42.5931C41.6155 41.0541 41.8215 39.0413 41.8147 37.4442C37.7948 36.8716 34.2835 35.6091 30.5319 34.1719Z" fill="#F6F7CC"/>
<path d="M41.962 42.5929C41.9959 42.2363 41.8902 41.5009 42.0573 41.2202C42.1251 41.4192 42.1603 41.6373 42.207 41.8426C42.5309 49.7105 43.1785 57.5908 43.3371 65.4606L53.3866 66.7549C57.2393 67.2327 61.1546 67.6641 64.9479 68.4946C62.5942 68.5681 60.1458 68.1298 57.8097 67.854C53.0054 67.2865 48.1987 66.5942 43.3942 66.0669C43.4563 67.1756 43.5198 68.2826 43.5373 69.3935C43.3633 68.2744 43.2127 67.1718 43.1352 66.0407C40.409 65.6838 37.5793 65.1307 34.8397 64.9846C33.3397 64.3103 28.1056 64.5457 26.998 63.7734L27.0644 63.6451C28.4745 63.1116 40.636 64.9856 43.0455 65.4202L42.8982 62.1516C42.8825 60.0023 42.6828 57.8144 42.5699 55.6665C42.3222 51.3107 42.1195 46.9529 41.962 42.5929Z" fill="#1D2630"/>
<path d="M30.5332 34.1719C33.0197 34.2263 35.6383 34.7331 38.0836 35.1569C39.0769 35.3293 40.7413 35.857 41.6632 35.746L41.79 35.4543L41.9361 35.6803C41.9893 35.61 42.0579 35.5448 42.0824 35.4601L42.1356 35.9157C42.6285 36.0049 43.2677 36.2331 43.7334 36.0167L43.834 35.4964C43.885 35.9804 43.9447 36.273 44.2027 36.6891C45.6502 36.5375 47.427 36.7621 48.8464 37.1093C48.9634 37.1945 49.0633 37.2735 49.2043 37.317C50.9277 37.8484 53.6048 38.2296 55.4735 38.6291C60.207 39.6411 64.9718 40.6672 69.6442 41.9341C68.7706 42.1716 63.2268 40.7904 61.9183 40.5462C56.1815 39.4757 50.3623 38.8289 44.6454 37.6797L42.1407 37.453C42.1672 38.8953 42.2964 40.4076 42.2083 41.8429C42.1616 41.6376 42.1265 41.4196 42.0586 41.2205C41.8916 41.5011 41.9972 42.2366 41.9632 42.5932C41.6167 41.0542 41.8227 39.0414 41.816 37.4444C37.7961 36.8716 34.2849 35.6091 30.5332 34.1719Z" fill="#D9E459"/>
<path d="M77.5066 0.00450701C90.7144 -0.0419388 103.957 0.242298 117.041 2.19424C119.716 2.59323 122.593 2.82912 125.121 3.82373C126.991 4.56808 128.668 5.48285 130.395 6.5035C137.067 10.7831 143.128 15.7484 148.937 21.1322C150.697 22.7637 152.519 24.3799 154.148 26.1413C153.96 25.2942 153.395 23.6474 153.978 22.9141C154.259 22.5603 154.801 22.4534 155.229 22.4573C155.88 22.4633 156.564 22.5463 157.21 22.6349C158.926 22.851 161.748 23.0642 162.885 24.564C163.549 25.4395 163.5 26.4506 163.355 27.4808C161.933 28.8377 160.274 29.2889 158.403 29.7091C160.559 30.7389 163.28 31.1699 165.618 31.6594C169.418 32.4613 177.634 34.0183 180.718 36.0856C182.285 37.1356 183.57 38.8565 184.592 40.4134C186.2 42.8635 188.833 48.5474 189.483 51.3896C190.48 55.753 190.135 60.5756 190.034 65.0302C189.978 67.4705 189.988 69.9618 189.759 72.3927C189.593 74.1524 189.237 75.9075 188.992 77.6593C188.157 77.6629 187.283 77.7195 186.453 77.6508C185.407 77.3259 174.132 77.1122 172.53 77.3586C172.325 77.6383 172.347 78.0503 172.343 78.3962C172.334 79.0534 171.937 79.8481 171.705 80.4695C171.836 79.8512 172.049 79.2178 172.149 78.5997C172.222 78.1796 172.358 77.8318 172.156 77.4431C171.794 77.3084 171.353 77.4323 170.98 77.4903C169.07 77.0703 160.842 77.1189 159.115 77.6272L158.984 77.7718C159.006 77.9492 159.032 78.0734 159.097 78.2399C159.182 78.4604 159.198 78.6489 159.23 78.8813C159.437 80.3496 161.572 83.2445 162.787 84.1628C163.92 85.0201 165.301 85.3971 166.712 85.2051C167.927 85.0398 168.841 84.4313 169.701 83.585L169.72 83.7212C168.777 84.7402 167.145 85.7131 165.745 85.7738C164.259 85.8383 162.835 84.7532 161.82 83.7614C161.325 83.2774 160.635 82.2351 160.065 81.9711C159.202 80.7832 158.79 79.3488 158.47 77.9355C156.862 78.0611 155.217 78.0334 153.605 78.0052C152.598 77.5993 148.332 77.8358 146.964 77.8366L128.394 77.855C127.327 77.8565 123.136 78.0505 122.364 77.8255C122.268 77.7973 122.202 77.7083 122.121 77.6496C123.284 77.1526 128.937 77.9328 130.079 77.5253C129.534 77.2214 107.914 77.0536 105.406 77.2796C105.331 77.1694 105.251 77.0741 105.164 76.9733C103.853 77.0067 102.549 77.0426 101.241 77.1569C98.9078 77.1516 96.3472 77.4298 94.0624 76.9661L94.0889 76.9037C98.7613 76.5134 103.516 77.1786 108.174 76.8164L163.599 77.0116C171.918 77.052 180.228 76.9671 188.548 77.1101C188.653 76.1854 188.707 75.2496 188.776 74.3216C186.054 74.245 183.306 74.3741 180.581 74.4022L166.618 74.4503L121.32 74.3427C113.77 74.3216 106.21 74.4168 98.6607 74.2877C97.0984 74.0157 95.4014 74.4426 93.8875 74.0345C94.1308 73.8078 101.193 74.053 102.402 73.9132C104.637 73.6655 107.45 73.9159 109.754 73.919L127.098 73.9455L158.307 73.9409C168.514 73.9887 178.719 73.9249 188.924 73.7495C189.251 71.4592 189.198 69.062 189.265 66.7495C189.394 62.2499 189.765 57.3433 189.015 52.8984C188.595 50.4068 187.847 48.0224 186.473 45.8901C184.535 46.691 182.622 47.5437 180.637 48.2269C179.033 48.7793 177.175 49.3481 175.564 48.5131C174.788 48.1107 173.711 47.0523 173.507 46.1761C173.15 44.647 177.664 37.5797 178.704 35.996C173.191 33.439 164.995 32.4886 158.963 30.8923C160.059 31.745 161.173 32.5912 162.187 33.5427C164.81 36.0058 166.784 38.8394 166.898 42.526C166.101 39.1602 164.626 36.5515 162.178 34.0823C160.628 32.5187 158.299 30.3403 156.128 29.7536C153.171 28.9544 149.824 29.0136 146.78 28.9295L137.354 28.7057C118 28.2882 98.657 28.5589 79.3029 28.5281L79.9594 31.2283C81.5039 31.3066 83.0418 31.4547 84.5728 31.6726C86.104 31.8905 87.6223 32.1772 89.1273 32.533C93.2393 33.4764 97.2789 34.8806 101.241 36.3202C106.012 38.0539 110.71 40.1912 115.346 42.2612C116.683 42.858 117.996 43.5032 119.328 44.1059C120.1 44.4553 120.936 44.753 121.662 45.1922C121.929 45.3534 122.265 45.5919 122.395 45.8882C122.475 46.0708 122.481 46.2407 122.43 46.4277C122.197 47.2691 120.532 48.4074 119.799 48.8555C119.176 49.2367 118.469 49.584 117.727 49.6076C115.382 49.6819 111.925 48.7123 109.522 48.2134C106.199 47.5235 102.831 46.8807 99.5385 46.0598C98.9038 45.9014 98.1379 45.7531 97.5567 45.4523C95.6706 44.4764 93.7742 42.4133 92.7288 40.5917C92.4494 40.1051 92.2735 39.6729 92.4177 39.1136C93.6077 37.4557 97.5748 36.7091 99.5248 36.2806C97.8243 35.4748 95.9816 34.8992 94.1915 34.329C87.2389 32.1145 82.6399 31.7586 75.4384 31.3557C75.4235 31.295 75.4114 31.2334 75.3936 31.1735C75.0974 30.1654 74.5812 29.1291 74.1925 28.1436C72.6268 24.1728 70.8998 20.4535 68.8643 16.695C67.7938 14.7182 66.6584 12.6377 65.2453 10.8836C65.0543 10.6428 64.8529 10.411 64.641 10.1886C64.4289 9.96601 64.2071 9.75361 63.9758 9.5513C63.7444 9.34899 63.5043 9.15758 63.2555 8.97707C63.0068 8.79656 62.7503 8.62783 62.4861 8.47075C61.2002 7.70785 59.6939 7.1262 58.2305 6.82126C57.2455 6.61576 56.0126 6.55459 55.1197 6.09204L55.1606 5.99364L55.8008 5.9022C46.4971 4.85053 38.6201 6.79215 31.2516 12.6796C28.8404 14.6064 26.3443 16.7697 24.1884 18.9847C25.3633 21.1521 25.6185 23.6499 26.8357 25.7944C29.4779 27.3365 41.0271 29.018 44.6088 29.4825C43.4561 31.3156 42.0114 33.2529 41.7905 35.4544L41.6637 35.7462C40.7417 35.8571 39.0773 35.3294 38.0841 35.157C35.6388 34.7332 33.0202 34.2264 30.5337 34.172C34.2853 35.6092 37.7965 36.8717 41.8165 37.4445C41.8232 39.0415 41.6172 41.0544 41.9638 42.5934C42.1212 46.9533 42.3238 51.3111 42.5717 55.667C42.6846 57.8148 42.8843 60.0027 42.9 62.1521L43.0472 65.4207C40.6377 64.9861 28.4763 63.1121 27.0662 63.6456L26.9998 63.7739C28.1073 64.5462 33.3415 64.3108 34.8415 64.9851L34.6838 65.1245C34.9052 65.1827 35.1054 65.2025 35.3321 65.2234C36.2122 65.3052 42.5132 66.0224 42.7558 66.3482C43.3627 67.1631 43.0994 69.0446 43.3735 70.0737C42.5738 70.5016 40.0642 69.8219 38.9047 70.0568C37.5914 70.1362 36.114 69.8905 34.7875 69.8015C31.7395 69.5857 28.69 69.3913 25.6393 69.2184L25.3375 67.0433C25.3517 65.0586 24.1443 58.3403 23.3811 56.4856L23.1645 56.5108C22.529 55.424 22.301 54.0333 21.8272 52.8622C20.8398 50.4214 18.4079 47.1978 15.7443 46.4753C14.3954 46.1093 12.9909 46.3805 11.8172 47.1201C9.07174 48.8492 7.69495 52.8399 7.07474 55.8497C7.02105 56.1092 6.97315 56.3626 6.94358 56.6263C6.43268 57.557 6.30488 62.2393 6.38142 63.5359C6.43969 64.5246 6.60356 65.4573 6.83509 66.419C7.03821 72.4134 8.03862 78.5978 11.4177 83.6861L11.1747 83.899C7.72771 79.154 6.77612 73.4142 6.46544 67.6899C6.01084 67.3674 5.5389 67.0006 5.1856 66.567C3.51731 64.5194 4.07977 48.665 4.31269 45.4438C4.50259 42.8177 6.26133 33.2274 7.65616 31.1026C9.21757 28.7237 13.8712 27.2319 16.2123 25.3112C18.0767 23.7813 19.6129 21.5925 21.2222 19.7914C23.7433 16.9699 26.521 14.1708 29.3841 11.6995C32.6621 8.63085 36.941 5.53167 41.1307 3.88815C45.1201 2.32314 49.5504 1.87626 53.7812 1.39736C61.6651 0.512976 69.5735 0.0488074 77.5066 0.00450701Z" fill="#1D2630"/>
<path d="M8.45111 31.293C8.66989 31.969 8.72642 32.7956 8.72282 33.5049C8.71198 35.5933 7.64205 37.7087 6.19422 39.1748L6.10156 39.1033C6.14563 37.8504 7.34215 33.5036 7.82348 32.32C7.97749 31.9418 8.20664 31.6169 8.45111 31.293Z" fill="#EDE98C"/>
<path d="M175.283 47.7856C178.767 46.8836 182.524 45.6811 185.636 43.8518L186.183 45.2676C183.905 46.3934 178.518 48.9139 176.09 48.1245C175.812 48.0338 175.543 47.9208 175.283 47.7856Z" fill="white"/>
<path d="M179.433 36.1082C181.351 37.2044 182.843 39.1493 184.074 40.9382C183.59 41.1567 176.1 42.308 175.707 42.1783C176.905 40.1299 178.09 38.0654 179.433 36.1082Z" fill="#F7EA9C"/>
<path d="M154.476 23.2804C155.304 23.2382 156.143 23.2691 156.968 23.3394C158.555 23.4741 161.35 23.7331 162.401 25.0844C162.747 25.5299 162.928 26.2184 162.794 26.7736C162.664 27.3162 162.09 27.5865 161.654 27.8597C160.58 28.462 159.188 29.0791 157.94 29.0716C157.124 29.0666 156.376 28.7446 155.831 28.1326C154.763 26.9346 154.433 24.8433 154.476 23.2804Z" fill="white"/>
<path d="M4.98134 54.8949L5.06171 54.7536C5.62944 53.7335 5.95891 52.5738 6.36463 51.4824C7.49429 48.4448 9.14691 44.6991 12.5655 43.7076C12.6579 43.6817 12.7508 43.6582 12.8444 43.6371C12.9379 43.6159 13.0319 43.5971 13.1264 43.5805C13.2207 43.5639 13.3156 43.5499 13.4109 43.5381C13.506 43.5264 13.6014 43.5171 13.697 43.5102C13.7927 43.5031 13.8884 43.4985 13.9844 43.4963C14.0804 43.4942 14.1762 43.4944 14.272 43.497C14.368 43.4995 14.4637 43.5045 14.5594 43.5119C14.655 43.5193 14.7504 43.5291 14.8455 43.5413C14.9407 43.5533 15.0354 43.5678 15.1298 43.5848C15.2243 43.6017 15.3182 43.6209 15.4116 43.6423C15.5051 43.664 15.598 43.6879 15.6903 43.7141C15.7825 43.7404 15.874 43.7689 15.9649 43.7995C16.0557 43.8303 16.1457 43.8633 16.2349 43.8986C16.3242 43.934 16.4124 43.9715 16.4996 44.0112C16.5869 44.0508 16.6732 44.0927 16.7584 44.1366C16.8435 44.1807 16.9276 44.2268 17.0106 44.275C18.0319 44.8597 19.9175 46.2012 20.265 47.3494C20.3142 47.5116 20.3389 47.6765 20.3661 47.8435L20.2691 47.9989C20.0973 47.6155 20.0188 47.1812 19.8294 46.8149C19.5264 46.2286 18.4608 45.7124 17.9732 45.1969C17.8822 45.42 17.6028 46.0712 17.6921 46.2849C18.2312 47.5742 20.0792 47.6211 20.393 49.381C18.9411 47.6377 17.2165 45.8393 14.8039 45.659C13.2098 45.5398 11.6941 46.1986 10.5187 47.2447C7.11553 50.2747 6.14881 55.9147 5.93177 60.2189C5.90544 60.8555 5.89582 61.4925 5.90289 62.1298C5.88092 63.6741 5.92272 65.2168 6.02826 66.7576C5.05429 65.1722 5.03625 63.4014 4.91883 61.6006C4.86688 58.1495 4.79492 54.7057 4.79272 51.2532C4.7915 49.6074 4.70029 47.8806 4.90555 46.2472C5.08194 49.113 4.68098 52.0402 4.98134 54.8949Z" fill="#F7EA9C"/>
<path d="M184.078 40.9382C184.426 41.3734 184.679 41.8455 184.948 42.3307C185.122 42.7046 185.314 43.0777 185.467 43.4608L185.637 43.8519C182.525 45.6811 178.768 46.8837 175.284 47.7857C174.805 47.4398 174.308 46.9022 174.076 46.3506C173.875 45.8726 173.932 45.5066 174.139 45.0441L174.352 44.565C174.773 43.7778 175.166 42.882 175.711 42.1783C176.105 42.308 183.594 41.1567 184.078 40.9382Z" fill="#8B8A69"/>
<path d="M184.949 42.3303C185.124 42.7043 185.315 43.0773 185.469 43.4604C185.428 43.4484 185.387 43.4368 185.346 43.4241C184.86 43.2718 185.493 43.476 185.022 43.2888C183.597 42.7216 176.478 45.2465 174.141 45.0437L174.353 44.5646C177.922 44.213 181.325 42.4803 184.949 42.3303Z" fill="#9B9E73"/>
<path d="M184.074 40.9382C184.421 41.3734 184.675 41.8455 184.943 42.3307C181.32 42.4806 177.916 44.2134 174.348 44.565C174.769 43.7778 175.162 42.882 175.707 42.1783C176.1 42.308 183.59 41.1567 184.074 40.9382Z" fill="#8B8A69"/>
<path d="M120.346 3.55811C122.362 3.64549 124.529 4.24714 126.362 5.07453C128.701 6.13055 130.918 7.63758 133.029 9.08899C141.358 14.8155 149.098 21.7852 156.069 29.0938C154.898 28.8888 153.696 28.7988 152.513 28.671C150.861 26.1405 148.053 23.3839 145.9 21.218C139.827 15.1065 133.238 9.33618 125.405 5.59129C123.753 4.80159 122.031 4.25647 120.346 3.55811Z" fill="white"/>
<path d="M99.8955 36.7637C101.39 37.1769 102.845 37.8173 104.279 38.4019C107.566 39.7416 110.8 41.2301 114.044 42.6716L113.863 42.7831C111.256 42.3208 97.6 38.4926 96.4163 39.2711C96.2043 40.2542 96.5513 41.219 97.0971 42.0409C98.8464 44.6759 102.744 44.9736 105.611 45.4893L113.507 46.8966C114.841 47.1327 116.327 47.5238 117.679 47.5459C118.142 47.5537 118.618 47.4535 118.994 47.1715C120.593 45.9725 119.097 46.1405 121.533 46.1186C121.566 46.1997 121.564 46.3285 121.573 46.4165C120.952 47.3053 119.421 48.286 118.397 48.6912C117.959 48.8648 117.571 48.8734 117.103 48.8409C113.742 48.6085 110.204 47.6578 106.896 46.9729C104.084 46.3905 100.378 45.9145 97.7916 44.7863C95.8073 43.9209 93.5993 41.3393 92.7988 39.3464C94.981 37.9641 97.4239 37.385 99.8955 36.7637Z" fill="#B8BA9B"/>
<path d="M121.533 46.1188C119.097 46.1407 120.593 45.9728 118.994 47.1717C118.618 47.4538 118.142 47.5539 117.68 47.5462C116.327 47.524 114.841 47.133 113.507 46.8969L105.612 45.4895C102.744 44.9738 98.8468 44.6761 97.0973 42.0411C96.5515 41.2192 96.2045 40.2544 96.4166 39.2714C97.6004 38.4928 111.256 42.321 113.863 42.7833L114.044 42.6719C116.514 43.2925 119.273 44.9285 121.533 46.1188Z" fill="#69684C"/>
<path d="M77.6368 0.714661C86.8951 0.611332 96.1417 0.892736 105.377 1.55892C108.792 1.834 112.3 2.0424 115.662 2.71166C118.817 3.34004 122.48 4.50142 125.288 6.0927C118.04 5.68901 110.787 5.48896 103.528 5.4925C91.7745 5.4297 80.0019 5.35629 68.2683 6.12592C65.7652 4.33564 62.7926 3.01707 59.7636 2.45369C58.4708 2.21305 57.157 2.12085 55.8633 1.87801C63.0275 0.932915 70.4146 0.826108 77.6368 0.714661Z" fill="white"/>
<path d="M9.86497 30.0759C9.92661 30.1115 9.98651 30.1505 10.0501 30.1832C11.1511 30.7493 16.1731 30.2088 18.2619 31.0533C18.4979 30.8516 18.3971 30.9702 18.5608 30.6937L18.7449 30.7418C18.8527 31.1221 18.4715 34.4588 18.4578 35.1647C18.4318 36.4991 18.503 37.9077 18.7269 39.2246C19.1078 41.4654 21.7007 46.8087 21.6602 48.123C21.653 48.3632 21.7507 48.516 21.8525 48.7205C22.8534 50.7334 23.6491 52.9463 24.3592 55.0787C24.8278 56.4854 25.8022 60.4895 26.5027 61.4793L26.4339 61.0719C26.7169 61.79 26.9886 62.506 27.2305 63.2392C28.2177 63.508 29.5471 63.3899 30.6038 63.5203C33.1893 63.8394 35.7939 64.1437 38.372 64.5015C39.8134 64.7017 41.2753 65.0459 42.7299 65.0978C43.031 64.2382 42.3427 62.8142 42.901 62.1517L43.0483 65.4203C40.6388 64.9857 28.4773 63.1117 27.0673 63.6452L27.0009 63.7735C28.1084 64.5458 33.3425 64.3104 34.8425 64.9847L34.6849 65.1241C34.9062 65.1823 35.1065 65.2021 35.3332 65.223C36.2133 65.3048 42.5143 66.022 42.7568 66.3479C43.3637 67.1627 43.1005 69.0442 43.3746 70.0733C42.5749 70.5012 40.0653 69.8216 38.9057 70.0564C37.5924 70.1358 36.115 69.8901 34.7885 69.8011C31.7405 69.5853 28.6911 69.3909 25.6403 69.218L25.3385 67.0429C25.3527 65.0582 24.1453 58.3399 23.3822 56.4852C22.8518 53.9982 21.6831 51.5584 20.3925 49.3814C20.0787 47.6214 18.2306 47.5745 17.6915 46.2853C17.6022 46.0716 17.8817 45.4203 17.9726 45.1973C18.4602 45.7127 19.5259 46.229 19.8289 46.8152C20.0182 47.1815 20.0967 47.6159 20.2686 47.9993L20.3656 47.8438C20.3384 47.6768 20.3136 47.512 20.2645 47.3497C19.917 46.2016 18.0314 44.8601 17.01 44.2753C16.9271 44.2272 16.843 44.181 16.7578 44.1369C16.6726 44.093 16.5864 44.0512 16.4991 44.0116C16.4118 43.9718 16.3236 43.9342 16.2344 43.899C16.1452 43.8637 16.0551 43.8306 15.9643 43.7998C15.8735 43.7692 15.782 43.7407 15.6897 43.7144C15.5975 43.6883 15.5046 43.6643 15.411 43.6427C15.3177 43.6212 15.2238 43.602 15.1292 43.5852C15.0349 43.5683 14.9402 43.5538 14.845 43.5416C14.7498 43.5294 14.6545 43.5196 14.5588 43.5123C14.4632 43.5049 14.3674 43.4999 14.2715 43.4973C14.1757 43.4948 14.0798 43.4945 13.9839 43.4966C13.8879 43.4989 13.7922 43.5035 13.6965 43.5105C13.6009 43.5174 13.5055 43.5268 13.4103 43.5385C13.315 43.5502 13.2202 43.5643 13.1259 43.5808C13.0314 43.5973 12.9374 43.6162 12.8438 43.6374C12.7503 43.6586 12.6573 43.6821 12.5649 43.7079C9.14636 44.6995 7.49374 48.4451 6.36408 51.4827C5.9583 52.5741 5.62889 53.7338 5.06116 54.754L4.98079 54.8953C4.68043 52.0406 5.0814 49.1134 4.90501 46.2477C4.87375 44.4141 5.04266 41.7769 6.10181 40.248C6.63151 39.4834 7.34629 38.8359 7.90485 38.0876C9.64579 35.7561 9.53341 33.3917 9.12595 30.6602C9.34925 30.4386 9.61227 30.2617 9.86497 30.0759Z" fill="#F5F8E3"/>
<path d="M92.2241 5.85893C96.1681 5.75404 124.277 5.97015 126.221 6.69305C127.514 7.17362 128.713 8.11872 129.869 8.86209C134.204 11.6491 138.25 14.5335 142.002 18.0938C144.542 20.5009 146.981 23.0056 149.32 25.6079C150.162 26.5269 151.127 27.44 151.858 28.4477C150.989 28.4284 150.121 28.3856 149.254 28.3192C148.407 27.7211 147.31 27.3659 146.369 26.9186C144.781 26.1605 143.205 25.3788 141.64 24.5733C131.3 19.3048 120.744 14.0389 109.659 10.514C106.1 9.38216 102.551 8.54561 98.9119 7.72425C96.8667 7.26269 93.4905 6.36595 91.5041 6.20835C91.4673 6.20545 91.43 6.20522 91.3929 6.20377L91.32 6.03602L91.2773 6.11859L91.4273 5.96406C91.7033 5.95594 91.9534 5.90857 92.2241 5.85893Z" fill="#CBCDCD"/>
<path d="M68.5039 6.59336C71.0217 6.27085 73.6598 6.28269 76.2012 6.19751C81.5438 6.01891 86.8833 5.96696 92.2269 5.85864C91.9561 5.90822 91.7061 5.95565 91.4301 5.96382L91.2801 6.11836L91.3227 6.03578L91.3957 6.20354C91.4327 6.20499 91.47 6.20522 91.5069 6.20812C93.4933 6.36578 96.8695 7.26245 98.9146 7.72401C102.554 8.54536 106.102 9.38192 109.662 10.5137C120.747 14.0387 131.303 19.3045 141.643 24.5731C143.207 25.3785 144.784 26.1602 146.372 26.9183C147.313 27.3657 148.41 27.7209 149.257 28.3189C146.225 28.0973 143.175 28.0698 140.136 27.9916C135.489 27.8658 130.842 27.7772 126.193 27.7257C125.531 27.5185 124.099 25.999 123.44 25.4471C121.738 24.0229 119.732 22.6656 117.749 21.6719C108.522 17.0474 98.7611 13.9284 88.6899 11.7544C85.1715 10.9946 81.5943 10.2842 78.0073 9.93619C75.5901 9.70182 73.1884 9.67264 70.7613 9.67508C70.1031 8.57203 69.3513 7.55765 68.5039 6.59336Z" fill="#F7EA9C"/>
<path d="M70.7617 9.67494C73.1888 9.6725 75.5906 9.70166 78.0077 9.93604C81.5947 10.284 85.1719 10.9944 88.6903 11.7542C98.7615 13.9284 108.522 17.0472 117.749 21.6718C119.732 22.6654 121.739 24.0228 123.44 25.447C124.1 25.9988 125.531 27.5183 126.194 27.7256L79.6856 27.7231C78.5983 25.7832 77.7909 23.6312 76.8424 21.6147C74.9635 17.5595 72.9367 13.5796 70.7617 9.67494Z" fill="#9B9E73"/>
<path d="M9.86328 30.0756C12.2547 28.3953 14.9711 27.3757 17.1716 25.3923C18.1229 24.5351 18.9325 23.5114 19.7826 22.5562C21.2788 20.8456 22.804 19.1613 24.3582 17.5033C29.3324 12.1212 37.3875 5.32037 44.6073 3.51588C51.4502 1.80603 59.7633 1.74224 65.9461 5.53259C67.2101 6.3075 68.1405 7.32937 69.0006 8.52374C70.9408 11.2174 72.3451 14.3655 73.8075 17.3357C76.0007 21.7903 78.5206 26.3758 79.6741 31.2294L75.7711 31.1127C73.2228 24.2231 70.3156 17.1314 66.071 11.0939C63.5472 7.50449 59.9256 6.62967 55.8002 5.90144C46.4965 4.84977 38.6195 6.79139 31.251 12.6789C28.8398 14.6056 26.3437 16.7689 24.1879 18.9839C25.3627 21.1513 25.6179 23.6491 26.8351 25.7936C29.4773 27.3358 41.0265 29.0172 44.6082 29.4817C43.4555 31.3148 42.0108 33.2521 41.7899 35.4537L41.6631 35.7454C40.7411 35.8563 39.0767 35.3286 38.0835 35.1563C35.6382 34.7325 33.0196 34.2256 30.5331 34.1712C34.2847 35.6084 37.796 36.871 41.8159 37.4437C41.8227 39.0407 41.6166 41.0536 41.9632 42.5926C42.1206 46.9525 42.3232 51.3104 42.5711 55.6662C42.684 57.8141 42.8837 60.0019 42.8994 62.1513C42.341 62.8138 43.0293 64.2378 42.7283 65.0975C41.2737 65.0455 39.8117 64.7013 38.3704 64.5011C35.7922 64.1433 33.1876 63.8391 30.6022 63.52C29.5455 63.3895 28.2161 63.5077 27.2289 63.2389C26.987 62.5056 26.7153 61.7896 26.4323 61.0715L26.5011 61.479C25.8005 60.4891 24.8261 56.485 24.3576 55.0784C23.6474 52.9459 22.8518 50.733 21.8509 48.7202C21.7491 48.5156 21.6514 48.3628 21.6586 48.1226C21.699 46.8083 19.1062 41.465 18.7252 39.2242C18.5014 37.9073 18.4302 36.4988 18.4562 35.1643C18.4699 34.4584 18.8511 31.1217 18.7433 30.7414L18.5591 30.6933C18.3955 30.9698 18.4963 30.8512 18.2602 31.0529C16.1716 30.2084 11.1494 30.7489 10.0484 30.1829C9.98482 30.1502 9.92486 30.1112 9.86328 30.0756Z" fill="#F7F5CD"/>
<path d="M23.1309 32.8247C23.8913 32.928 24.7859 32.966 25.5132 33.203L25.2973 33.2853C24.5315 33.5847 24.0557 34.046 23.1756 33.9988L23.1309 32.8247Z" fill="#928617"/>
<path d="M20.6016 32.7898C21.4302 32.7876 22.3042 32.7301 23.1256 32.8247L23.1703 33.9989C22.2214 33.545 21.3917 33.6143 20.6016 32.7898Z" fill="#D9E459"/>
<path d="M20.6073 32.7902C20.4761 32.4208 20.2872 31.9323 20.4545 31.5472C20.6271 31.1501 21.1079 30.9487 21.5026 30.861C22.6936 30.5966 25.1363 30.8069 26.1285 31.5349C26.4212 31.7493 26.5095 31.9024 26.6181 32.242C26.5117 32.5551 26.4375 32.7618 26.1392 32.9406C25.9507 33.0535 25.7195 33.1271 25.5137 33.2034C24.7864 32.9664 23.8919 32.9283 23.1314 32.8251C22.31 32.7305 21.4359 32.7881 20.6073 32.7902Z" fill="#1D2630"/>
<path d="M21.3321 31.123C22.0818 31.066 22.8502 31.0689 23.5958 31.1666C24.3211 31.2614 25.7163 31.4265 26.1637 32.0099C26.1268 32.3372 26.0816 32.3456 25.8479 32.5855C24.4848 32.522 22.7543 32.4746 21.4405 32.129C21.1279 32.0467 21.0186 31.9859 20.8574 31.7091C20.9581 31.3661 21.0573 31.3375 21.3321 31.123Z" fill="#EDF2B6"/>
<path d="M79.3028 28.5276C98.6569 28.5584 118 28.2877 137.354 28.7052L146.78 28.9291C149.824 29.013 153.171 28.9538 156.128 29.7531C158.299 30.3398 160.628 32.5183 162.178 34.0818C164.626 36.551 166.101 39.1597 166.898 42.5256C166.784 38.8389 164.81 36.0054 162.187 33.5422C161.173 32.5906 160.059 31.7445 158.962 30.8919C164.995 32.4882 173.191 33.4385 178.704 35.9955C177.664 37.5793 173.15 44.6465 173.507 46.1756C173.711 47.0519 174.788 48.1103 175.564 48.5126C177.175 49.3477 179.033 48.7788 180.637 48.2265C182.622 47.5432 184.535 46.6906 186.473 45.8896C187.847 48.0219 188.595 50.4064 189.015 52.8979C189.765 57.3429 189.394 62.2495 189.265 66.749C189.198 69.0615 189.251 71.4587 188.924 73.7491C178.719 73.9244 168.513 73.9882 158.307 73.9404L127.097 73.945L109.754 73.9185C107.45 73.9154 104.637 73.6651 102.402 73.9127C101.45 73.7996 100.426 73.8595 99.4663 73.8499L93.7211 73.8059C93.7485 72.9198 93.8152 72.013 93.736 71.1295C94.2012 65.4083 92.783 56.4091 90.3213 51.2469C89.1541 48.7987 86.9631 45.5726 84.2826 44.6143C83.01 43.8676 81.7471 43.9053 80.3288 43.9777L80.2241 43.8473C79.1289 43.8177 78.0132 44.9483 77.2364 45.5964L77.1827 45.7278L77.0994 45.678C76.852 45.8185 76.5988 45.9114 76.3346 46.0142L76.1231 45.8144L76.2073 46.0211L76.1108 45.9586C76.1163 45.8245 76.1075 45.8159 76.1664 45.6707C76.4439 44.9865 77.9206 44.048 78.5675 43.8167C78.6043 43.8035 78.6416 43.7915 78.6786 43.7787L78.5407 43.6216C78.4038 42.8988 80.2066 42.658 80.5496 42.072L80.427 41.9095C77.6635 43.1852 74.2953 42.385 71.4023 41.9415C71.4673 38.8088 71.8203 35.6887 72.1029 32.5702C72.2266 32.1864 72.2096 31.7043 72.2389 31.301L75.4382 31.3549C82.6397 31.7578 87.2387 32.1137 94.1914 34.3283C95.9814 34.8984 97.8241 35.4741 99.5246 36.2798C97.5746 36.7084 93.6076 37.4549 92.4175 39.1128C92.2733 39.6721 92.4493 40.1043 92.7286 40.591C93.774 42.4125 95.6704 44.4757 97.5565 45.4515C98.1377 45.7524 98.9037 45.9006 99.5383 46.059C102.831 46.8799 106.199 47.5227 109.522 48.2127C111.925 48.7116 115.381 49.6811 117.727 49.6068C118.469 49.5832 119.176 49.2359 119.799 48.8547C120.532 48.4066 122.196 47.2683 122.429 46.427C122.481 46.24 122.475 46.0701 122.395 45.8874C122.265 45.5912 121.928 45.3527 121.662 45.1914C120.936 44.7523 120.1 44.4546 119.327 44.1051C117.995 43.5024 116.683 42.8573 115.346 42.2604C110.709 40.1905 106.012 38.0532 101.241 36.3195C97.2788 34.8798 93.2391 33.4756 89.1271 32.5322C87.622 32.1765 86.1039 31.8897 84.5727 31.6718C83.0416 31.454 81.5038 31.3058 79.9592 31.2275L79.3028 28.5276Z" fill="#F0EBBF"/>
<path d="M125.033 67.9935C125.299 67.8123 125.578 67.641 125.865 67.4956C126.743 67.0506 127.773 66.8309 128.751 66.7659C130.894 66.6237 133.08 66.7096 135.228 66.7077L146.613 66.7029C149.634 66.7026 169.446 66.4309 170.848 66.9055C170.567 67.1645 170.502 67.1373 170.12 67.1657C166.56 67.4295 162.603 67.1804 159.003 67.1666C152.429 67.1286 145.854 67.1334 139.28 67.1811C136.117 67.1801 129.029 66.7756 126.343 67.758C126.072 67.8694 125.462 68.1955 125.193 68.0826C125.137 68.059 125.086 68.0233 125.033 67.9935Z" fill="#1D2630"/>
<path d="M177.755 62.5701C178.824 62.1567 186.997 59.255 187.691 59.4098C188.586 60.2589 188.614 63.0558 188.645 64.2278C188.688 65.7861 188.645 67.4541 188.346 68.9875C187.441 69.6852 186.575 70.2108 185.482 70.5658C182.537 71.5226 174.998 71.9652 171.768 71.7592C171.339 71.6661 170.918 71.6276 170.48 71.5915C171.805 71.5876 173.06 71.3171 174.379 71.3061C174.164 70.7133 173.874 70.1509 174.024 69.5271C174.45 70.0734 174.818 70.625 175.171 71.2206C178.742 70.713 182.43 70.707 185.928 69.7793C184.739 69.3364 183.904 68.7381 182.909 67.9664C181.349 68.1835 176.177 69.0895 174.964 68.6987C175.348 68.2075 181.454 67.5404 182.466 67.4321C182.58 67.4193 182.695 67.4092 182.809 67.402C183.141 65.1496 184.135 62.9556 184.934 60.831C182.624 61.5132 180.15 62.3013 177.755 62.5701Z" fill="#1D2630"/>
<path d="M187.125 59.9626C187.284 60.0122 187.352 60.0661 187.457 60.205C188.308 61.3344 188.109 67.0301 187.861 68.6184C187.39 69.0329 186.907 69.3228 186.363 69.6246C185.963 69.487 185.576 69.2889 185.192 69.1121C184.486 68.6435 183.998 68.1097 183.496 67.44C183.792 65.886 184.963 62.1791 185.713 60.8074C186.012 60.2606 186.576 60.1444 187.125 59.9626Z" fill="#69684C"/>
<path d="M99.6211 60.4534C102.579 60.5085 116.892 61.6925 119.193 62.6799C114.515 62.2482 109.8 61.9955 105.112 61.679C105.809 63.599 106.932 65.5926 107.913 67.3868C112.577 67.4847 117.68 67.3851 122.223 68.5814C119.877 68.6851 117.488 68.4812 115.142 68.3913C111.831 68.2787 108.519 68.1831 105.207 68.1046C105.531 68.9267 105.891 69.6205 106.494 70.2809C110.468 70.6546 114.451 70.8761 118.442 70.9454L121.46 70.923C122.534 69.8855 123.73 68.7301 125.031 67.9932C125.084 68.023 125.134 68.0587 125.191 68.0823C125.459 68.1952 126.069 67.869 126.341 67.7576C129.027 66.7752 136.114 67.1798 139.277 67.1807C145.852 67.133 152.426 67.1282 159.001 67.1663C162.6 67.18 166.557 67.4291 170.118 67.1654C170.5 67.1369 170.564 67.1641 170.845 66.9052C171.97 67.4382 173.377 68.435 174.021 69.5267C173.871 70.1505 174.161 70.7129 174.376 71.3056C173.057 71.3167 171.802 71.5872 170.477 71.591C170.915 71.6272 171.336 71.6657 171.766 71.7588C168.925 71.977 165.967 71.8505 163.114 71.8608L144.267 71.7867L129.744 71.7786C127.018 71.7766 124.213 71.9022 121.5 71.6618C117.961 71.6944 114.424 71.6105 110.89 71.4099C109.254 71.3324 107.519 71.3512 105.911 71.058C105.573 70.9988 105.243 70.9102 104.92 70.7924C104.598 70.6746 104.288 70.5294 103.992 70.3568C101.311 68.7609 100.384 63.3326 99.6211 60.4534Z" fill="#1D2630"/>
<path d="M99.6211 60.4534C102.579 60.5085 116.892 61.6925 119.193 62.6799C114.515 62.2482 109.8 61.9955 105.112 61.679C105.809 63.599 106.932 65.5926 107.913 67.3868C112.577 67.4847 117.68 67.3851 122.223 68.5814C119.877 68.6851 117.488 68.4813 115.142 68.3913C111.831 68.2787 108.519 68.1831 105.207 68.1046C105.531 68.9267 105.891 69.6205 106.494 70.2809C110.468 70.6546 114.451 70.8761 118.442 70.9454C119.251 71.1377 120.056 71.0089 120.86 71.1406C117.625 71.2823 114.252 71.0306 111.016 70.8241C109.219 70.7095 107.363 70.6561 105.58 70.4138C104.48 70.2643 103.746 69.8768 103.087 68.9864C102.438 68.1095 100.424 62.7613 100.561 61.9156C101.307 62.8436 101.927 66.5613 102.687 68.0337C103.443 69.4978 104.559 70.0648 106.055 70.5404C105.399 69.6452 104.94 68.766 104.543 67.7309C105.47 67.5721 106.414 67.5788 107.351 67.5588C106.487 65.5313 105.383 63.5853 104.588 61.5373C103.341 61.325 102.054 61.2391 100.796 61.1034L100.494 60.9787C101.579 60.7826 103.295 61.1727 104.404 61.3515C104.557 61.5262 104.68 61.68 104.787 61.886L105.156 61.9758L104.838 61.945L105.033 62.0011L105.109 61.6641C106.005 61.2369 113.044 62.2181 115.048 62.0607C114.75 62.0325 114.463 61.9998 114.17 61.9389C112.705 61.6343 101.048 60.5641 100.094 60.721C99.7822 61.4335 101.297 65.7915 101.678 66.7661C102.313 68.3946 103.012 69.8143 104.711 70.5177C107.612 71.7188 120.308 71.3451 124.286 71.5186L124.351 71.4818L124.48 71.5766L124.455 71.5302L124.649 71.5567C123.609 71.5713 122.533 71.5369 121.501 71.6618C117.961 71.6944 114.424 71.6104 110.89 71.4098C109.254 71.3324 107.519 71.3512 105.911 71.058C105.573 70.9988 105.243 70.9102 104.92 70.7923C104.598 70.6745 104.289 70.5293 103.992 70.3567C101.311 68.7609 100.384 63.3326 99.6211 60.4534Z" fill="#1D2630"/>
<path d="M136.146 46.0028C137.676 45.8208 139.266 45.8548 140.806 45.821C144.059 45.7547 147.311 45.7325 150.564 45.7544C153.002 45.763 157.843 45.6341 160.086 46.0167C167.355 46.0694 169.116 47.1428 174.281 52.3706C174.488 52.5797 174.689 52.7935 174.886 53.0122C172.909 54.5804 168.385 58.0902 166.021 58.8064C164.477 59.274 160.255 59.0184 158.462 59.0198L145.403 59.0249L137.668 59.0256C136.314 59.0246 134.863 59.1259 133.524 58.9509C132.868 58.8653 132.221 58.6436 131.611 58.3924C130.264 57.8386 122.561 54.234 121.907 53.4998C121.88 53.469 121.86 53.4324 121.836 53.3987C122.432 51.9492 129.568 47.4484 131.247 46.7455C132.221 46.338 133.132 46.1464 134.185 46.0863C134.825 45.9743 135.497 46.0087 136.146 46.0028Z" fill="#1D2630"/>
<path d="M160.086 46.0166C167.355 46.0693 169.116 47.1427 174.281 52.3705C174.488 52.5796 174.689 52.7934 174.886 53.0121C172.909 54.5803 168.385 58.09 166.021 58.8063C164.477 59.2738 160.255 59.0182 158.462 59.0197L145.403 59.0247L137.668 59.0254C136.314 59.0245 134.863 59.1258 133.524 58.9508C132.868 58.8652 132.221 58.6435 131.611 58.3923C130.264 57.8385 122.561 54.2339 121.907 53.4997C121.88 53.4689 121.86 53.4323 121.836 53.3986C122.432 51.9491 129.568 47.4483 131.247 46.7454C132.221 46.3379 133.132 46.1463 134.185 46.0862L134.472 46.2299L134.249 46.2354C133.99 46.2441 133.762 46.2941 133.509 46.3492C133.315 46.3911 133.12 46.4257 132.926 46.4635C133.402 46.5066 133.995 46.2924 134.408 46.4115L134.311 46.5836C133.594 46.5995 132.936 46.679 132.257 46.922C129.466 47.9209 124.864 51.3836 122.531 53.3274C124.493 54.3805 131.911 58.3032 133.785 58.4229C135.376 58.5247 137.031 58.4327 138.631 58.4298L148.234 58.4116L160.284 58.4216C161.666 58.4236 164.468 58.664 165.702 58.3145C167.613 57.774 172.362 54.2582 173.992 52.854C171.634 50.5453 168.823 47.6127 165.449 47.006C163.756 46.7018 161.956 46.6693 160.24 46.4513C161.004 46.3061 162.61 46.8561 163.222 46.484C162.646 45.9524 160.841 46.5665 160.086 46.0166Z" fill="#1D2630"/>
<defs>
<linearGradient id="paint0_linear_755_4828" x1="83.0757" y1="58.628" x2="86.3868" y2="57.938" gradientUnits="userSpaceOnUse">
<stop stop-color="#060606"/>
<stop offset="1" stop-color="#112229"/>
</linearGradient>
</defs>
</svg>
