<svg width="17" height="16" viewBox="0 0 17 16" fill="none" xmlns="http://www.w3.org/2000/svg">
<path d="M8.63232 1.33325C4.95394 1.33325 1.96875 4.32405 1.96875 7.99992C1.96875 11.6766 4.95474 14.6666 8.63232 14.6666C12.3107 14.6666 15.3021 11.6758 15.3021 7.99992C15.3021 4.32325 12.3099 1.33325 8.63232 1.33325ZM8.63232 4.13029C8.86128 4.12951 9.04805 4.31307 9.05119 4.54193V7.82567L11.433 10.2018C11.5956 10.365 11.5956 10.6283 11.433 10.7907C11.3549 10.8696 11.2478 10.9142 11.1376 10.9142C11.0267 10.9142 10.9196 10.8696 10.8414 10.7907L8.34398 8.29444C8.33929 8.28897 8.33538 8.28272 8.33148 8.27648C8.31194 8.25617 8.29553 8.23352 8.28068 8.21008C8.27209 8.19446 8.26427 8.17884 8.25802 8.16244C8.24708 8.13822 8.23926 8.11245 8.23379 8.08589C8.23067 8.07183 8.22832 8.05699 8.22676 8.04215C8.22364 8.02809 8.22207 8.01403 8.22051 7.99997V4.54206C8.22285 4.31554 8.40569 4.13263 8.63232 4.13029Z" fill="#373F46"/>
</svg>
