<svg width="17" height="22" viewBox="0 0 17 22" fill="none" xmlns="http://www.w3.org/2000/svg">
<path d="M16.1964 16.625H14.5416V12.9613C14.5416 9.66437 11.8594 6.98218 8.56249 6.98218C5.2656 6.98218 2.5834 9.66437 2.5834 12.9613V16.625H0.928571C0.484759 16.625 0.125 16.9848 0.125 17.4286V20.4822C0.125 20.926 0.484759 21.2857 0.928571 21.2857H16.1964C16.6402 21.2857 17 20.926 17 20.4822V17.4286C17 16.9848 16.6402 16.625 16.1964 16.625ZM4.19054 12.9613C4.19054 10.5506 6.15178 8.58932 8.56249 8.58932C10.9732 8.58932 12.9344 10.5506 12.9344 12.9613V16.625H4.19054V12.9613ZM15.3928 19.6786H1.73214V18.2322C2.17113 18.2322 14.3326 18.2322 15.3928 18.2322V19.6786Z" fill="#F01D50"/>
<path d="M8.56334 5.375C9.00715 5.375 9.36691 5.01524 9.36691 4.57143V1.51786C9.36691 1.07405 9.00715 0.714294 8.56334 0.714294C8.11952 0.714294 7.75977 1.07405 7.75977 1.51786V4.57143C7.75977 5.01524 8.11952 5.375 8.56334 5.375Z" fill="#F01D50"/>
<path d="M14.6042 6.48288L16.7634 4.32369C17.0772 4.0099 17.0772 3.50111 16.7634 3.18728C16.4496 2.87345 15.9408 2.87345 15.627 3.18728L13.4678 5.34647C13.154 5.66027 13.154 6.16905 13.4678 6.48288C13.7816 6.79672 14.2904 6.79668 14.6042 6.48288Z" fill="#F01D50"/>
<path d="M2.51957 6.48287C2.8334 6.7967 3.34219 6.79666 3.65598 6.48287C3.96981 6.16907 3.96981 5.66029 3.65598 5.34646L1.49679 3.18727C1.18299 2.87343 0.67421 2.87347 0.360376 3.18727C0.0465414 3.50106 0.0465414 4.00984 0.360376 4.32367L2.51957 6.48287Z" fill="#F01D50"/>
</svg>
