<svg width="25" height="24" viewBox="0 0 25 24" fill="none" xmlns="http://www.w3.org/2000/svg">
<path d="M3.96258 2.00006V2.00112C3.15384 2.00536 2.5 2.67724 2.5 3.50405V16.0944C2.5 16.9213 3.15384 17.5931 3.96258 17.5985L11.265 17.5995L17.5061 21.9087C17.5934 21.9692 17.6943 22 17.7961 22C17.8783 22 17.9604 21.9798 18.0352 21.9406C18.2036 21.8503 18.3107 21.6731 18.3138 21.4799L18.371 17.5995L21.0364 17.5984C21.8451 17.5931 22.5 16.9213 22.5 16.0944V3.50402C22.5 2.67718 21.8451 2.00533 21.0364 2L3.96258 2.00006ZM6.99068 7.98413H18.0083C18.2941 7.98413 18.526 8.22082 18.526 8.51271C18.526 8.80353 18.2941 9.04022 18.0083 9.04022H6.99068C6.70482 9.04022 6.47301 8.80353 6.47301 8.51165C6.47301 8.22083 6.70482 7.98413 6.99068 7.98413ZM6.99068 11.0812H12.9929C13.2787 11.0812 13.5095 11.3179 13.5095 11.6098C13.5095 11.9016 13.2787 12.1383 12.9929 12.1383H6.99068C6.70482 12.1383 6.47301 11.9016 6.47301 11.6098C6.47301 11.3179 6.70482 11.0812 6.99068 11.0812Z" fill="#1D2630"/>
</svg>
