<svg width="36" height="22" viewBox="0 0 36 22" fill="none" xmlns="http://www.w3.org/2000/svg">
<path d="M34.3809 22H1.61911C1.00101 22 0.5 21.4445 0.5 20.7593V1.24067C0.5 0.555502 1.00101 0 1.61911 0H34.3809C34.9989 0 35.5 0.555426 35.5 1.24067V20.7593C35.5 21.4445 34.999 22 34.3809 22Z" fill="#6CBF81"/>
<path d="M34.2085 0H32.5C33.2133 0 33.7915 0.555426 33.7915 1.24067V20.7593C33.7915 21.4445 33.2133 22 32.5 22H34.2085C34.9217 22 35.5 21.4445 35.5 20.7593V1.24067C35.5 0.555502 34.9218 0 34.2085 0Z" fill="#5EA06F"/>
<path d="M31.8414 15.2529C31.9373 15.245 32.0107 15.1651 32.0107 15.069V6.93098C32.0107 6.83501 31.9371 6.75495 31.8414 6.7471C30.8483 6.66559 30.0566 5.87282 29.9767 4.87914C29.9691 4.7853 29.891 4.71338 29.7968 4.71338H6.48127C6.3853 4.71338 6.30524 4.78696 6.29739 4.88259C6.21595 5.87461 5.4249 6.66566 4.43288 6.7471C4.33705 6.75495 4.26367 6.83487 4.26367 6.93098V15.069C4.26367 15.165 4.33725 15.245 4.43288 15.2529C5.4249 15.3343 6.21595 16.1254 6.29739 17.1174C6.30524 17.2132 6.38516 17.2866 6.48127 17.2866H29.7931C29.889 17.2866 29.9691 17.213 29.9769 17.1174C30.0584 16.1254 30.8494 15.3343 31.8414 15.2529Z" fill="#92D355"/>
<path d="M31.8397 6.74703C30.8465 6.66552 30.0549 5.87275 29.9749 4.87914C29.9674 4.78531 29.8892 4.71338 29.7951 4.71338H27.9979C28.092 4.71338 28.1702 4.78531 28.1777 4.87914C28.2577 5.87282 29.0493 6.66552 30.0425 6.74703C30.1382 6.75488 30.2117 6.83494 30.2117 6.93091V15.0689C30.2117 15.1651 30.1384 15.245 30.0425 15.2528C29.0505 15.3343 28.2595 16.1253 28.178 17.1173C28.1702 17.213 28.0901 17.2865 27.9941 17.2865H29.7913C29.8873 17.2865 29.9674 17.213 29.9752 17.1173C30.0567 16.1253 30.8477 15.3343 31.8397 15.2528C31.9356 15.245 32.0089 15.1651 32.0089 15.0689V6.93091C32.0089 6.83494 31.9354 6.75488 31.8397 6.74703Z" fill="#86CF3C"/>
<path d="M18.1379 18.9895C22.5504 18.9895 26.1274 15.4125 26.1274 11C26.1274 6.58752 22.5504 3.0105 18.1379 3.0105C13.7255 3.0105 10.1484 6.58752 10.1484 11C10.1484 15.4125 13.7255 18.9895 18.1379 18.9895Z" fill="#D5F3B7"/>
<path d="M18.1379 3.0105C17.8437 3.0105 17.5535 3.0269 17.2676 3.0579C21.2705 3.49166 24.3867 6.88172 24.3867 11C24.3867 15.1183 21.2705 18.5083 17.2676 18.9421C17.5535 18.9731 17.8438 18.9895 18.1379 18.9895C22.5504 18.9895 26.1274 15.4125 26.1274 11C26.1274 6.58754 22.5504 3.0105 18.1379 3.0105Z" fill="#B6E48B"/>
<path d="M19.1608 10.451C18.982 10.3878 18.7988 10.3213 18.6164 10.2519V7.41561C19.0972 7.51537 19.3845 7.76085 19.408 7.78151C19.6242 7.97766 19.9585 7.96312 20.1569 7.74817C20.3562 7.53211 20.3426 7.19529 20.1265 6.99597C20.0935 6.96566 19.5329 6.46107 18.6163 6.33644V5.73443C18.6163 5.44046 18.378 5.20215 18.084 5.20215C17.79 5.20215 17.5517 5.44046 17.5517 5.73443V6.37736C17.4549 6.39755 17.356 6.42228 17.2549 6.45273C16.4422 6.69752 15.8348 7.39357 15.6698 8.26929C15.5197 9.06613 15.7739 9.83377 16.3333 10.2725C16.6397 10.5128 17.0229 10.7328 17.5517 10.9663V14.5275C17.067 14.4989 16.7481 14.3924 16.2105 14.0406C15.9645 13.8798 15.6346 13.9486 15.4736 14.1946C15.3127 14.4406 15.3817 14.7706 15.6276 14.9315C16.3764 15.4214 16.8838 15.5598 17.5517 15.5924V16.2655C17.5517 16.5596 17.79 16.7978 18.084 16.7978C18.378 16.7978 18.6163 16.5595 18.6163 16.2655V15.5518C19.9192 15.3142 20.68 14.2484 20.8473 13.253C21.06 11.9881 20.3981 10.8883 19.1608 10.451ZM16.9904 9.43479C16.7449 9.2423 16.6397 8.87123 16.716 8.4664C16.7869 8.09003 17.0439 7.6338 17.5517 7.47562V9.7865C17.3388 9.67496 17.1472 9.55777 16.9904 9.43479ZM19.7974 13.0765C19.7026 13.6408 19.3008 14.2417 18.6163 14.4553V11.3868C18.6784 11.4093 18.7411 11.4318 18.806 11.4547C19.9132 11.8461 19.8448 12.795 19.7974 13.0765Z" fill="black"/>
</svg>
