<svg width="16" height="16" viewBox="0 0 16 16" fill="none" xmlns="http://www.w3.org/2000/svg">
<g clip-path="url(#clip0_755_5028)">
<path fill-rule="evenodd" clip-rule="evenodd" d="M12.3027 1.45455C11.4994 1.45455 10.8481 2.10577 10.8481 2.90909C10.8481 3.16329 10.9134 3.40227 11.028 3.61019C11.0344 3.62015 11.0407 3.63032 11.0468 3.6407C11.0528 3.65101 11.0585 3.66142 11.064 3.6719C11.3201 4.08699 11.7791 4.36364 12.3027 4.36364C13.106 4.36364 13.7572 3.71241 13.7572 2.90909C13.7572 2.10577 13.106 1.45455 12.3027 1.45455ZM10.2357 4.95609C10.7629 5.48843 11.4943 5.81818 12.3027 5.81818C13.9093 5.81818 15.2118 4.51574 15.2118 2.90909C15.2118 1.30244 13.9093 0 12.3027 0C10.696 0 9.3936 1.30244 9.3936 2.90909C9.3936 3.1832 9.43151 3.44846 9.50238 3.69991L5.64192 5.95278C5.11473 5.42057 4.38341 5.09091 3.57511 5.09091C1.96846 5.09091 0.666016 6.39335 0.666016 8C0.666016 9.60664 1.96846 10.9091 3.57511 10.9091C4.38357 10.9091 5.11501 10.5793 5.64223 10.0469L9.50329 12.2968C9.43184 12.5492 9.3936 12.8156 9.3936 13.0909C9.3936 14.6975 10.696 16 12.3027 16C13.9093 16 15.2118 14.6975 15.2118 13.0909C15.2118 11.4843 13.9093 10.1818 12.3027 10.1818C11.4955 10.1818 10.7651 10.5106 10.238 11.0415L6.37545 8.79068C6.4463 8.53928 6.4842 8.27406 6.4842 8C6.4842 7.72578 6.44626 7.46042 6.37534 7.20889L10.2357 4.95609ZM4.81061 7.232C4.81685 7.24424 4.82348 7.25636 4.83049 7.26837C4.83755 7.28048 4.84492 7.29231 4.85256 7.30385C4.96547 7.51062 5.02965 7.74781 5.02965 8C5.02965 8.25214 4.96549 8.4893 4.85261 8.69604C4.84487 8.70774 4.83741 8.71973 4.83026 8.732C4.82332 8.74391 4.81675 8.75593 4.81056 8.76806C4.55378 9.18023 4.09648 9.45454 3.57511 9.45454C2.77178 9.45454 2.12056 8.80332 2.12056 8C2.12056 7.19667 2.77178 6.54545 3.57511 6.54545C4.09651 6.54545 4.55383 6.81979 4.81061 7.232ZM10.8481 13.0909C10.8481 12.8537 10.9049 12.6298 11.0056 12.432C11.023 12.4089 11.0393 12.3845 11.0543 12.3589C11.0686 12.3343 11.0813 12.3092 11.0925 12.2837C11.3533 11.8934 11.798 11.6364 12.3027 11.6364C13.106 11.6364 13.7572 12.2876 13.7572 13.0909C13.7572 13.8942 13.106 14.5454 12.3027 14.5454C11.4994 14.5454 10.8481 13.8942 10.8481 13.0909Z" fill="#1D2630"/>
</g>
<defs>
<clipPath id="clip0_755_5028">
<rect width="16" height="16" fill="white"/>
</clipPath>
</defs>
</svg>
