<svg width="450" height="450" viewBox="0 0 450 450" fill="none" xmlns="http://www.w3.org/2000/svg">
<g clip-path="url(#clip0_5241_931)">
<path fill-rule="evenodd" clip-rule="evenodd" d="M225 449C348.712 449 449 348.712 449 225C449 101.288 348.712 1 225 1C101.288 1 1 101.288 1 225C1 348.712 101.288 449 225 449ZM225 450C349.264 450 450 349.264 450 225C450 100.736 349.264 0 225 0C100.736 0 0 100.736 0 225C0 349.264 100.736 450 225 450Z" fill="#555B60"/>
<rect x="403.393" y="347.494" width="15.8306" height="25.1851" transform="rotate(37.2458 403.393 347.494)" fill="#1D2630"/>
<path d="M416.451 350.579L409.715 345.458C407.93 344.1 404.973 344.986 403.616 346.771L388.458 366.708C387.101 368.492 387.447 371.041 389.232 372.398L395.968 377.519C397.753 378.876 400.302 378.53 401.659 376.744L416.817 356.808C418.173 355.022 418.236 351.936 416.451 350.579ZM412.938 360.733L407.858 367.415L406.142 366.428L408.235 363.675L412.938 360.733ZM413.605 358.153C411.325 359.945 408.628 362.062 408.628 362.062L400.742 356.065L403.175 350.223C403.176 350.224 409.578 352.363 413.605 358.153ZM399.174 357.07L397.217 359.643L395.805 358.254L400.75 351.75L399.174 357.07ZM390.544 365.175L395.055 359.241L396.469 360.626L392.9 365.321L390.544 365.175ZM390.153 367.539L392.877 366.594L400.765 372.592L400.583 375.469L390.153 367.539ZM401.961 371.927L405.389 367.418L407.107 368.403L402.731 374.159L401.961 371.927Z" fill="#E8C300"/>
<rect x="420.227" y="132.019" width="15.8306" height="25.1851" transform="rotate(-21.3598 420.227 132.019)" fill="#1D2630"/>
<path d="M429.662 122.479L421.782 125.561C419.693 126.378 418.909 129.363 419.726 131.452L428.847 154.776C429.664 156.864 432.019 157.896 434.108 157.079L441.988 153.998C444.076 153.181 445.108 150.825 444.291 148.736L435.17 125.412C434.352 123.324 431.75 121.663 429.662 122.479ZM436.5 130.767L439.557 138.585L437.82 139.535L436.561 136.314L436.5 130.767ZM434.645 128.854C434.986 131.734 435.389 135.139 435.389 135.139L426.162 138.747L422.443 133.626C422.443 133.626 427.605 129.275 434.645 128.854ZM426.202 140.609L427.38 143.619L425.459 144.101L422.483 136.492L426.202 140.609ZM428.625 152.197L425.91 145.255L427.83 144.77L429.978 150.262L428.625 152.197ZM430.44 153.762L431.052 150.945L440.281 147.336L442.642 148.99L430.44 153.762ZM440.337 145.969L438.273 140.694L440.009 139.741L442.643 146.474L440.337 145.969Z" fill="#E8C300"/>
<rect x="50.3867" y="95.4121" width="15.8306" height="25.1851" transform="rotate(-138.998 50.3867 95.4121)" fill="#1D2630"/>
<path d="M37.5586 91.4789L43.9443 97.0303C45.637 98.5018 48.6456 97.8116 50.1171 96.1189L66.548 77.2184C68.0191 75.5263 67.8408 72.9609 66.1481 71.4894L59.7623 65.938C58.0702 64.4669 55.5043 64.6457 54.0328 66.3384L37.6019 85.2389C36.1314 86.9325 35.8664 90.0078 37.5586 91.4789ZM41.7288 81.5764L47.2358 75.2417L48.8835 76.3394L46.6146 78.9493L41.7288 81.5764ZM40.8942 84.107C43.2872 82.4687 46.1168 80.5332 46.1168 80.5332L53.5936 87.033L50.7827 92.7034C50.7822 92.703 44.5334 90.1482 40.8942 84.107ZM55.2241 86.1336L57.3448 83.6942L58.6626 85.1725L53.3023 91.3384L55.2241 86.1336ZM64.3665 78.6114L59.476 84.2369L58.1554 82.7618L62.0247 78.3109L64.3665 78.6114ZM64.9108 76.2776L62.1314 77.0421L54.653 70.5408L55.0229 67.6816L64.9108 76.2776ZM53.4162 71.1256L49.6998 75.4005L48.0502 74.3049L52.7939 68.8483L53.4162 71.1256Z" fill="#E8C300"/>
<rect x="50.6846" y="352.378" width="15.8306" height="25.1851" transform="rotate(144.89 50.6846 352.378)" fill="#1D2630"/>
<path d="M43.7872 363.887L50.709 359.02C52.5438 357.73 52.5959 354.644 51.3059 352.809L36.9018 332.322C35.6122 330.488 33.0791 330.045 31.2443 331.335L24.3224 336.202C22.4882 337.492 22.0459 340.025 23.3359 341.86L37.74 362.347C39.0312 364.181 41.9529 365.177 43.7872 363.887ZM35.1751 357.462L30.3474 350.595L31.8086 349.259L33.7976 352.088L35.1751 357.462ZM37.4314 358.879C36.4154 356.163 35.2156 352.952 35.2156 352.952L43.3201 347.254L48.1501 351.343C48.1495 351.344 44.1696 356.797 37.4314 358.879ZM42.8383 345.455L40.9793 342.811L42.7307 341.886L47.4297 348.57L42.8383 345.455ZM37.7304 334.774L42.0176 340.872L40.2687 341.8L36.8766 336.976L37.7304 334.774ZM35.5955 333.686L35.6705 336.567L27.5643 342.267L24.8774 341.221L35.5955 333.686ZM27.8351 343.608L31.093 348.242L29.6335 349.58L25.475 343.665L27.8351 343.608Z" fill="#E8C300"/>
</g>
<defs>
<clipPath id="clip0_5241_931">
<rect width="450" height="450" fill="white"/>
</clipPath>
</defs>
</svg>
