<svg width="334" height="337" viewBox="0 0 334 337" fill="none" xmlns="http://www.w3.org/2000/svg">
<g clip-path="url(#clip0_5241_930)">
<path fill-rule="evenodd" clip-rule="evenodd" d="M166 327C253.813 327 325 255.813 325 168C325 80.1867 253.813 9 166 9C78.1867 9 7 80.1867 7 168C7 255.813 78.1867 327 166 327ZM166 328C254.366 328 326 256.366 326 168C326 79.6344 254.366 8 166 8C77.6344 8 6 79.6344 6 168C6 256.366 77.6344 328 166 328Z" fill="#555B60"/>
<rect x="317.275" y="159.492" width="15.8306" height="25.1851" transform="rotate(-0.154878 317.275 159.492)" fill="#1D2630"/>
<path d="M329.522 154.011L321.06 154.034C318.817 154.04 317.006 156.54 317.013 158.783L317.08 183.826C317.086 186.069 318.909 187.883 321.152 187.877L329.613 187.854C331.855 187.848 333.67 186.025 333.663 183.782L333.596 158.738C333.588 156.495 331.764 154.005 329.522 154.011ZM332.899 164.211L332.922 172.605L330.959 172.863L330.949 169.405L332.899 164.211ZM331.862 161.757C331.138 164.565 330.282 167.885 330.282 167.885L320.375 167.911L318.759 161.792C318.76 161.792 325.146 159.603 331.862 161.757ZM319.739 169.662L319.748 172.894L317.783 172.648L317.76 164.478L319.739 169.662ZM317.806 181.342L317.786 173.888L319.751 174.129L319.767 180.027L317.806 181.342ZM318.932 183.457L320.522 181.053L330.431 181.026L332.034 183.422L318.932 183.457ZM330.977 179.772L330.962 174.107L332.925 173.846L332.945 181.077L330.977 179.772Z" fill="#E8C300"/>
<rect x="159.448" y="16.3231" width="15.8306" height="25.1851" transform="rotate(-90 159.448 16.3231)" fill="#1D2630"/>
<path d="M154 4.06124L154 12.5227C154 14.7656 156.495 16.5833 158.738 16.5833L183.782 16.5833C186.024 16.5833 187.843 14.7656 187.843 12.5227L187.843 4.06124C187.843 1.81905 186.025 -3.03193e-05 183.782 -3.02212e-05L158.738 -2.91265e-05C156.495 0.00141012 154 1.81905 154 4.06124ZM164.209 0.71163L172.603 0.71163L172.856 2.67534L169.397 2.67534L164.209 0.71163ZM161.752 1.74206C164.558 2.47314 167.876 3.33879 167.876 3.33879L167.876 13.2459L161.752 14.8448C161.752 14.844 159.58 8.45208 161.752 1.74206ZM169.624 13.8863L172.856 13.8863L172.605 15.8507L164.435 15.8507L169.624 13.8863ZM181.299 15.8507L173.845 15.8507L174.092 13.8863L179.99 13.8863L181.299 15.8507ZM183.418 14.7304L181.017 13.1343L181.017 3.2251L183.418 1.62836L183.418 14.7304ZM179.764 2.67534L174.1 2.67534L173.844 0.71163L181.075 0.711629L179.764 2.67534Z" fill="#E8C300"/>
<rect width="15.8306" height="25.1851" transform="matrix(4.37114e-08 -1 -1 -4.37114e-08 180.395 336.323)" fill="#1D2630"/>
<path d="M185.843 324.061L185.843 332.523C185.843 334.766 183.348 336.583 181.105 336.583L156.061 336.583C153.819 336.583 152 334.766 152 332.523L152 324.061C152 321.819 153.818 320 156.061 320L181.105 320C183.348 320.001 185.843 321.819 185.843 324.061ZM175.633 320.712L167.24 320.712L166.987 322.675L170.445 322.675L175.633 320.712ZM178.091 321.742C175.284 322.473 171.967 323.339 171.967 323.339L171.967 333.246L178.091 334.845C178.091 334.844 180.262 328.452 178.091 321.742ZM170.219 333.886L166.986 333.886L167.237 335.851L175.408 335.851L170.219 333.886ZM158.544 335.851L165.998 335.851L165.751 333.886L159.853 333.886L158.544 335.851ZM156.425 334.73L158.826 333.134L158.826 323.225L156.425 321.628L156.425 334.73ZM160.078 322.675L165.743 322.675L165.998 320.712L158.768 320.712L160.078 322.675Z" fill="#E8C300"/>
<rect x="16.3232" y="177.395" width="15.8306" height="25.1851" transform="rotate(180 16.3232 177.395)" fill="#1D2630"/>
<path d="M4.06149 182.843L12.5229 182.843C14.7659 182.843 16.5835 180.348 16.5835 178.105L16.5835 153.061C16.5835 150.819 14.7659 149 12.5229 149L4.06148 149C1.81929 149 0.000212421 150.818 0.000212618 153.061L0.000214807 178.105C0.00165415 180.348 1.8193 182.843 4.06149 182.843ZM0.711874 172.634L0.711873 164.24L2.67559 163.987L2.67559 167.446L0.711874 172.634ZM1.7423 175.091C2.47339 172.285 3.33903 168.967 3.33903 168.967L13.2461 168.967L14.845 175.091C14.8443 175.091 8.45232 177.263 1.7423 175.091ZM13.8865 167.219L13.8865 163.987L15.851 164.238L15.851 172.408L13.8865 167.219ZM15.851 155.544L15.851 162.998L13.8865 162.751L13.8865 156.853L15.851 155.544ZM14.7306 153.425L13.1346 155.826L3.22534 155.826L1.62861 153.425L14.7306 153.425ZM2.67559 157.079L2.67559 162.743L0.711873 162.999L0.711872 155.768L2.67559 157.079Z" fill="#E8C300"/>
</g>
<defs>
<clipPath id="clip0_5241_930">
<rect width="333.674" height="336.583" fill="white"/>
</clipPath>
</defs>
</svg>
