<svg width="77" height="45" viewBox="0 0 77 45" fill="none" xmlns="http://www.w3.org/2000/svg">
<rect x="19.0195" width="28.1135" height="24.806" fill="#FFDC00"/>
<path d="M38.0645 44.9363C38.364 44.7499 38.73 44.619 39.0599 44.4915C40.4222 44.5437 41.8023 44.4683 43.168 44.4773L55.1641 44.5031L59.0267 44.5112C59.7171 44.5147 60.4379 44.4828 61.125 44.5466C61.0997 44.5558 61.0746 44.5656 61.049 44.574C60.6632 44.7004 59.6682 44.6172 59.2201 44.6174C58.3158 44.6179 51.5122 44.5427 51.2483 44.6559C51.2251 44.7631 51.2197 44.7136 51.2543 44.8052L51.1988 44.8633L51.26 44.8308C51.1491 44.9189 50.9349 44.8103 50.7836 44.8871L50.8053 44.9099L50.8694 44.9062L50.8753 44.9261L57.0897 44.9226C57.8514 44.917 60.2997 44.7449 60.8853 44.9265C59.6088 45.0242 58.2909 44.9726 57.0095 44.9754L50.0118 44.9775L42.4422 44.974C40.9883 44.9732 39.5155 45.0185 38.0645 44.9363Z" fill="#928617"/>
<path d="M62.8261 43.0261C63.0498 43.1297 63.3206 43.5388 63.5149 43.7288C63.9132 44.1181 64.4723 44.544 65.0555 44.5187C65.6048 44.4949 66.2453 44.113 66.6154 43.713L66.6079 43.6596C66.2705 43.9918 65.9119 44.2306 65.435 44.2955C64.8811 44.3708 64.339 44.2228 63.8942 43.8864C63.4175 43.5259 62.5795 42.3896 62.4984 41.8134C62.4855 41.7221 62.4794 41.6481 62.4458 41.5616C62.4205 41.4963 62.4101 41.4475 62.4017 41.3779L62.4531 41.3211C63.1308 41.1216 66.3605 41.1025 67.1103 41.2674C67.2565 41.2446 67.4297 41.196 67.5717 41.2489C67.651 41.4014 67.5975 41.5379 67.5688 41.7028C67.5299 41.9454 67.446 42.194 67.3946 42.4367C67.4857 42.1928 67.6417 41.8809 67.645 41.6229C67.6467 41.4872 67.6381 41.3255 67.7187 41.2157C68.3474 41.119 72.7729 41.2029 73.1832 41.3304C72.896 41.3394 72.6087 41.3462 72.3213 41.3508C72.2878 41.716 72.278 42.127 72.1378 42.4703C71.9038 43.3943 71.3371 44.1046 70.5323 44.6087C71.5473 44.5068 72.5848 44.5444 73.6042 44.5436L72.694 44.5482L72.7675 44.5447C72.9292 44.5486 73.0948 44.5603 73.2563 44.5543C73.927 44.5699 75.4805 44.4868 76.0055 44.7093L76.0713 44.7864C75.5861 45.0115 73.4167 44.8746 72.7469 44.8792L64.4431 44.924C63.2594 44.9294 62.0678 44.9621 60.8849 44.9267C60.2994 44.7451 57.851 44.9172 57.0893 44.9228L50.8749 44.9264L50.8691 44.9065L50.8049 44.9101L50.7832 44.8873C50.9345 44.8105 51.1488 44.9191 51.2597 44.831L51.1985 44.8635L51.2539 44.8054C51.2193 44.7139 51.2247 44.7634 51.248 44.6562C51.5118 44.5429 58.3155 44.6181 59.2197 44.6176C59.6679 44.6174 60.6628 44.7006 61.0487 44.5743C61.0743 44.5659 61.0993 44.556 61.1246 44.5469C62.1767 44.5225 63.5384 44.6698 64.5409 44.517C63.8084 44.2007 63.2208 43.7237 62.8261 43.0261Z" fill="#1D2630"/>
<path d="M30.4219 10.8538C35.606 10.8356 40.8036 10.9472 45.9392 11.7133C46.9893 11.8699 48.1184 11.9625 49.1107 12.3529C49.8447 12.645 50.5029 13.0041 51.1808 13.4047C53.7996 15.0845 56.1787 17.0334 58.4586 19.1465C59.1495 19.7869 59.8646 20.4213 60.5041 21.1126C60.43 20.7801 60.2084 20.1337 60.4373 19.8459C60.5476 19.7071 60.7601 19.6651 60.9281 19.6666C61.184 19.669 61.4522 19.7016 61.7058 19.7363C62.3792 19.8212 63.4869 19.9048 63.9334 20.4935C64.194 20.8372 64.1748 21.234 64.1176 21.6384C63.5597 22.171 62.9083 22.3481 62.1739 22.513C63.0203 22.9172 64.0884 23.0864 65.006 23.2785C66.4974 23.5932 69.7225 24.2044 70.933 25.0158C71.5479 25.4279 72.0523 26.1034 72.4533 26.7145C73.0845 27.6762 74.118 29.9071 74.3731 31.0227C74.7645 32.7353 74.6288 34.6282 74.5892 36.3767C74.5675 37.3345 74.5714 38.3124 74.4813 39.2665C74.4161 39.9572 74.2766 40.6461 74.1802 41.3336C73.8524 41.3351 73.5095 41.3573 73.1837 41.3303C72.7733 41.2028 68.3479 41.1189 67.7192 41.2156C67.6386 41.3254 67.6472 41.4871 67.6455 41.6229C67.6422 41.8808 67.4861 42.1927 67.3951 42.4367C67.4464 42.194 67.5303 41.9454 67.5692 41.7028C67.598 41.5379 67.6514 41.4014 67.5722 41.2488C67.4302 41.1959 67.257 41.2445 67.1107 41.2673C66.361 41.1025 63.1312 41.1216 62.4536 41.3211L62.4022 41.3778C62.4106 41.4474 62.421 41.4962 62.4463 41.5616C62.4798 41.6481 62.486 41.7221 62.4988 41.8133C62.58 42.3896 63.418 43.5259 63.8947 43.8863C64.3395 44.2228 64.8816 44.3708 65.4355 44.2954C65.9124 44.2305 66.271 43.9917 66.6084 43.6595L66.6159 43.713C66.2458 44.1129 65.6053 44.4948 65.056 44.5186C64.4727 44.5439 63.9136 44.118 63.5154 43.7287C63.3211 43.5388 63.0503 43.1297 62.8266 43.0261C62.4878 42.5598 62.3258 41.9968 62.2002 41.442C61.569 41.4914 60.9236 41.4805 60.2907 41.4694C56.1673 41.5703 52.0383 41.4344 47.9151 41.5219C47.4162 42.1027 46.871 42.2874 46.1217 42.3487C45.5856 42.3925 45.0374 42.3682 44.4992 42.3669C43.437 42.3643 42.3733 42.3488 41.3113 42.3745C40.7682 43.3018 40.0066 43.9919 39.06 44.4916C38.7301 44.6191 38.3641 44.75 38.0645 44.9364C31.9318 44.9164 25.7992 44.9372 19.6667 44.9988C15.3607 45.0114 11.0537 44.9132 6.74834 44.946L2.68216 44.9357C2.21204 44.9337 0.480243 45.0149 0.20456 44.9493C0.0758334 44.9186 0.0614046 44.8808 0 44.7764L0.0316355 44.6913C0.359301 44.5127 2.14513 44.6039 2.60346 44.5969C5.4049 44.5841 2.51631 44.5993 5.31737 44.6426C4.95909 44.3901 4.667 44.1195 4.38638 43.7826C3.03343 41.9201 2.65992 39.6672 2.53798 37.4204C2.35955 37.2938 2.17431 37.1499 2.03564 36.9796C1.38083 36.176 1.60159 29.953 1.69302 28.6887C1.76756 27.658 2.45787 23.8937 3.00534 23.0597C3.6182 22.126 5.44477 21.5404 6.36368 20.7866C7.09546 20.1861 7.6984 19.327 8.33006 18.62C9.31961 17.5126 10.4099 16.4139 11.5337 15.4439C12.8203 14.2395 14.4998 13.023 16.1442 12.3779C17.7101 11.7637 19.449 11.5883 21.1096 11.4003C24.204 11.0534 27.3081 10.8712 30.4219 10.8538Z" fill="#1D2630"/>
<path d="M18.8589 41.0464L19.409 41.0604L19.437 41.1437C19.2567 41.217 19.0537 41.174 18.8631 41.1994L18.3084 41.1869L18.2656 41.0999C18.3669 41.0141 18.7132 41.0525 18.8589 41.0464Z" fill="#020302"/>
<path d="M33.0796 28.3633C34.1317 28.7394 34.9917 30.0057 35.4498 30.9666C36.4161 32.9928 36.9727 36.525 36.7901 38.7706C36.6505 38.4099 36.7337 37.5827 36.5622 37.3342C36.5287 35.4161 36.2028 33.0646 35.4178 31.3166C34.9532 30.2817 34.3216 29.2547 33.2186 28.8318C33.1189 28.8177 32.954 28.8207 32.877 28.7594C33.2899 28.7401 33.4971 28.9233 33.8658 29.0132C33.5928 28.7508 33.3395 28.5934 33.0235 28.392L33.0796 28.3633Z" fill="#020302"/>
<path d="M8.26216 38.6279C8.31193 38.5461 8.27991 38.5809 8.35897 38.5242C8.37636 38.5676 8.38551 38.5835 8.39024 38.6359C8.41396 38.9001 8.33216 39.2039 8.28539 39.464C8.0994 40.4995 7.88167 41.5391 7.24179 42.4053C6.97314 42.7691 6.59936 43.1071 6.13359 43.1657C5.71136 43.2189 5.30886 43.0279 4.98921 42.7664C3.81044 41.8022 3.43885 39.7602 3.32077 38.3329C3.16528 36.4526 3.28497 33.3445 4.58248 31.8775C4.87908 31.5421 5.30688 31.2975 5.76125 31.2753C6.18102 31.2549 6.56841 31.4596 6.87058 31.7363C7.3257 32.1532 7.87884 33.0314 7.91464 33.6536L7.84313 33.7023C7.5385 32.9599 7.11238 31.9305 6.32459 31.5833C5.98481 31.4336 5.60075 31.444 5.25786 31.5806C4.59627 31.8442 4.27311 32.5269 4.02299 33.146C3.06525 35.5158 3.14678 38.9941 4.1643 41.341C4.43586 41.9673 4.85311 42.6592 5.51989 42.9172C5.81574 43.0317 6.11764 43.0549 6.41226 42.9248C7.09219 42.6248 7.51253 41.7301 7.74848 41.0645C8.01665 40.3083 8.21805 39.433 8.26216 38.6279Z" fill="#020302"/>
<path d="M13.1964 15.9243C13.1987 16.0051 13.2085 15.9831 13.1779 16.0456C12.4577 17.5151 12.0743 18.9118 11.7222 20.5088C11.4661 20.3855 11.2591 20.275 11.0622 20.0645C10.8109 19.587 10.5771 18.9825 10.5137 18.4444C11.0965 17.6058 12.3904 16.5949 13.1964 15.9243Z" fill="#8B8A69"/>
<path d="M30.8269 27.9741L30.881 28.0358C30.8665 28.0408 30.8519 28.0455 30.8374 28.0507C30.5835 28.1415 30.0039 28.5099 29.895 28.7784C29.8719 28.8354 29.8753 28.8388 29.8732 28.8914L29.911 28.916L29.878 28.8348L29.961 28.9132C30.0647 28.8729 30.1641 28.8364 30.2612 28.7813L30.2939 28.8008L30.315 28.7493C30.6199 28.4949 31.0578 28.0511 31.4877 28.0627L31.5288 28.1139L31.4772 28.141C31.2186 28.2746 30.9494 28.354 30.7077 28.5245C29.985 29.0343 29.6253 30.0136 29.3638 30.8179C29.2162 31.2736 29.0958 31.7365 29.0026 32.2064C28.869 33.4477 28.735 34.683 28.6817 35.9312C28.6524 37.062 28.6252 38.2856 28.866 39.3948L28.2965 39.2886C28.5326 39.1553 28.3197 38.5139 28.2932 38.2766C28.2077 37.5117 28.233 36.7347 28.2371 35.9663C28.2485 33.8184 28.3234 31.7306 29.2428 29.7407C29.5742 29.0236 30.0524 28.2592 30.8269 27.9741Z" fill="#C7C6B6"/>
<path d="M28.6842 35.9309C28.5729 35.7462 28.5507 35.5675 28.5474 35.3535C28.5385 34.7625 28.6415 32.575 29.0051 32.2061C28.8715 33.4473 28.7375 34.6827 28.6842 35.9309Z" fill="#D9E459"/>
<path d="M28.0265 27.3143C29.162 27.4884 30.4841 27.8025 31.5687 27.3018L31.6168 27.3655C31.4822 27.5955 30.7746 27.6901 30.8283 27.9738C30.0538 28.2588 29.5756 29.0232 29.2443 29.7404C28.3249 31.7302 28.25 33.8181 28.2385 35.9659C28.2345 36.7343 28.2092 37.5114 28.2946 38.2762C28.3212 38.5135 28.534 39.155 28.2979 39.2883C28.1695 39.2715 28.0361 39.2718 27.9324 39.1866C27.8183 37.9976 27.9035 36.7235 27.9056 35.5272C27.8994 32.7889 27.9397 30.0513 28.0265 27.3143Z" fill="#F5F8E3"/>
<path d="M19.1591 14.019C19.2134 14.0107 19.1764 14.0129 19.269 14.0376C19.2728 14.1896 18.686 15.7451 18.5797 16.0844C18.0215 17.867 17.5839 19.6658 17.1157 21.4724C15.7755 21.3612 14.3658 21.0568 13.045 20.7933C12.7644 20.7568 12.4782 20.6771 12.2012 20.6161C12.4787 19.2831 13.0136 16.7557 13.863 15.7393C14.9695 14.4149 17.5288 14.1377 19.1591 14.019Z" fill="#D9E459"/>
<path d="M17.5875 22.4458C18.8172 22.6398 20.052 22.7918 21.292 22.9019C22.5321 23.0118 23.7744 23.0795 25.019 23.1048C25.3456 23.5284 25.6827 24.0042 26.2235 24.1601C26.7553 24.3134 27.2943 24.1218 27.7576 23.8658C27.6141 23.6239 27.5095 23.3671 27.4002 23.1086C27.6816 23.1125 27.9638 23.1276 28.2451 23.1381C28.2323 23.311 28.2078 23.4847 28.189 23.6572C28.0853 24.8169 27.9092 25.9853 27.9034 27.1506C27.7445 27.2713 27.6501 27.2717 27.4601 27.2743C27.3862 27.2752 27.4131 27.2735 27.3357 27.3112C25.5017 26.814 23.6315 26.4112 21.7736 26.014C21.0401 25.8572 19.9893 25.7076 19.3129 25.499C19.2576 25.4819 19.2184 25.4509 19.1725 25.4175C18.6153 25.2812 17.918 25.1931 17.3498 25.2526C17.2485 25.0892 17.2251 24.9744 17.2051 24.7844L17.1656 24.9887C16.9828 25.0736 16.7319 24.984 16.5384 24.949L16.5176 24.7702C16.5226 23.933 17.1637 23.1314 17.5875 22.4458Z" fill="white"/>
<path d="M17.2051 24.7845C17.3058 24.6237 17.3698 24.5584 17.5581 24.5149C18.1082 24.3877 19.1201 24.5143 19.5994 24.8186C19.6766 24.8677 19.7235 24.919 19.7716 24.9976C19.7744 25.1131 19.7572 25.1805 19.6727 25.2668C19.5351 25.4072 19.3461 25.3706 19.1725 25.4176C18.6154 25.2813 17.918 25.1932 17.3498 25.2526C17.2485 25.0893 17.2251 24.9745 17.2051 24.7845Z" fill="#020302"/>
<path d="M17.5198 24.6285C17.898 24.597 18.2415 24.6008 18.6172 24.6592C18.8753 24.6992 19.4432 24.7791 19.5968 24.9878C19.5714 25.1143 19.5568 25.113 19.4558 25.1966C19.3284 25.1977 19.201 25.1944 19.0737 25.1866C18.7094 25.163 17.6083 25.141 17.3887 24.8909C17.3959 24.7495 17.4262 24.7382 17.5198 24.6285Z" fill="white"/>
<path d="M10.082 38.1572C11.0343 38.1802 11.9929 38.2753 12.9432 38.3416L18.0199 38.7106C19.1565 38.8435 20.3175 38.8716 21.4603 38.944L27.8716 39.3564C28.2103 39.3748 28.5419 39.4306 28.879 39.4569C29.018 40.1251 29.1229 40.8478 29.3897 41.4793C29.083 41.6675 22.0483 41.1388 20.9851 41.1485C20.4668 41.0868 19.9333 41.0779 19.4115 41.0606L18.8615 41.0466C18.1627 40.9153 17.3477 40.9632 16.6363 40.9508C15.8587 40.8181 14.9744 40.8643 14.1846 40.8522C13.1579 40.7745 12.1261 40.8376 11.0971 40.7536C11.0481 40.7249 11.0004 40.6966 10.9541 40.6637C10.3004 40.2008 10.1957 38.8943 10.082 38.1572Z" fill="#928617"/>
<path d="M8.2651 38.6279C8.221 39.433 8.0196 40.3084 7.75142 41.0645C7.51546 41.7302 7.09512 42.6248 6.41521 42.9248C6.12059 43.0549 5.81869 43.0317 5.52284 42.9173C4.85604 42.6592 4.43881 41.9673 4.16725 41.341C3.14973 38.9941 3.0682 35.5158 4.02593 33.146C4.27606 32.5269 4.59922 31.8443 5.26081 31.5806C5.6037 31.444 5.98776 31.4336 6.32754 31.5834C7.11533 31.9305 7.54145 32.9599 7.84608 33.7023C8.2618 35.3586 8.41001 36.9265 8.2651 38.6279Z" fill="#CBCDCD"/>
<path d="M3.76953 36.3252C3.78701 36.2557 3.78371 36.1704 3.85058 36.1322C3.9575 36.0713 4.12403 36.0698 4.23908 36.1067C4.31068 36.1296 4.29113 36.128 4.33562 36.1993C4.32798 36.3483 4.33119 36.3693 4.40194 36.5004L3.76953 36.3252Z" fill="#C7C6B6"/>
<path d="M4.42843 40.7709C4.35098 40.6667 4.27569 40.6093 4.29108 40.4702C4.33557 40.0693 5.02154 39.4108 5.30992 39.1504C5.1466 39.737 4.62584 40.1879 4.42843 40.7709Z" fill="#9B9E73"/>
<path d="M6.07227 35.1901C6.39021 34.8234 5.94957 32.8628 6.29604 32.2169C6.44764 32.2043 6.53303 32.3052 6.6616 32.3817C6.67841 32.3917 6.69532 32.4013 6.71223 32.4112C6.41081 33.047 6.30992 34.2327 6.33204 34.9408C6.32203 35.1242 6.31966 35.3042 6.26449 35.4808L6.26977 35.464C6.11517 35.3713 6.12668 35.3535 6.07227 35.1901Z" fill="#BABBBC"/>
<path d="M6.29922 39.1411C6.42722 40.0757 6.49759 41.0708 6.71845 41.9846L6.36356 42.6737C6.25577 41.8007 5.97219 39.9487 6.29922 39.1411Z" fill="#C7C6B6"/>
<path d="M4.48299 33.1548C4.62742 32.8837 4.83221 32.6334 5.00536 32.3789C5.32492 33.3377 5.66791 34.2645 6.07295 35.1905C6.12737 35.3539 6.11583 35.3717 6.27048 35.4644L6.2652 35.4812C6.32037 35.3046 6.32274 35.1247 6.33275 34.9412C6.31065 34.2332 6.41152 33.0474 6.71294 32.4116C6.95089 32.731 7.19187 33.0732 7.11847 33.4914C7.04792 33.8933 6.87221 34.2577 6.80562 34.6704C6.82337 35.1334 6.71561 35.6566 6.8675 36.1026L6.90094 36.0901C6.95601 35.9305 7.03223 35.7661 7.00834 35.5952C7.14521 35.4803 7.46211 35.3321 7.645 35.3405C7.72134 35.3439 7.86566 35.3642 7.91234 35.4335C7.96789 35.516 7.96241 35.6266 7.96853 35.7228C7.9691 35.9505 7.98883 36.1894 7.92499 36.4095C7.92763 36.8443 8.04297 38.0299 7.75411 38.3576L7.70291 38.342L7.76893 38.1948C7.39459 37.9648 7.09421 37.838 6.75992 37.5272C6.81773 37.8819 6.76181 38.2063 6.59198 38.5251C6.75248 39.3244 7.11567 40.0331 7.46555 40.7636C7.27899 41.211 7.03661 41.6178 6.71782 41.9847C6.49696 41.0709 6.42659 40.0758 6.29859 39.1412C6.26015 38.8867 6.23161 38.626 6.17674 38.3747C5.61763 39.487 5.18197 40.5046 4.98645 41.7455C4.69645 41.4368 4.56053 41.1709 4.42875 40.771C4.62617 40.1881 5.14692 39.7371 5.31024 39.1505C5.54979 38.776 5.84158 38.3718 5.95183 37.9341C5.98763 37.7922 5.99887 37.6819 5.92104 37.5507C5.70207 37.4378 5.38601 37.5331 5.14128 37.5674C4.75701 37.7095 4.19838 37.7165 3.78578 37.7683L3.76953 36.3255L4.40194 36.5007C4.85583 36.593 5.31518 36.7 5.74242 36.8824C5.75055 36.6017 5.78994 36.3436 5.84388 36.0685C5.3353 35.1192 4.96872 34.1093 4.48299 33.1548Z" fill="#1D2630"/>
<path d="M6.2706 36.2515C6.30952 36.2603 6.38829 36.2761 6.4225 36.2935C6.53482 36.3503 6.55767 36.5113 6.5809 36.6223C6.62672 36.8415 6.61152 37.1727 6.48379 37.3579L6.4256 37.3116C6.31489 37.2244 6.23829 37.1572 6.18888 37.021C6.09076 36.7506 6.15451 36.504 6.2706 36.2515Z" fill="#69684C"/>
<path d="M4.77381 32.8696C4.78884 32.888 4.80602 32.9049 4.81888 32.9248C4.89831 33.0491 5.74543 35.3029 5.76669 35.4446C5.7717 35.4785 5.7564 35.5123 5.75128 35.5462C5.36107 34.8982 4.98871 34.1126 4.75076 33.3945C4.67369 33.1618 4.66746 33.0822 4.77381 32.8696Z" fill="#8B8A69"/>
<path d="M6.80535 34.6704C6.82311 35.1334 6.71534 35.6566 6.86724 36.1026L6.90067 36.0901C6.95575 35.9305 7.03197 35.7661 7.00807 35.5952C7.14494 35.4803 7.46185 35.3321 7.64474 35.3405C7.72107 35.3439 7.86539 35.3642 7.91207 35.4336C7.96762 35.516 7.96214 35.6266 7.96826 35.7228C7.96883 35.9505 7.98856 36.1894 7.92472 36.4095C7.61991 36.4519 7.3556 36.6174 7.0862 36.7584C7.00354 36.8017 6.96729 36.8264 6.86876 36.8178C6.86216 36.8172 6.85704 36.8115 6.85128 36.8083C6.84363 36.4887 6.74832 36.0246 6.62326 35.7302C6.60607 35.8297 6.57858 35.9049 6.53588 35.9963L6.47013 36.0163C6.46051 36.0004 6.44803 35.986 6.44132 35.9687C6.35508 35.746 6.61154 35.1709 6.69249 34.9502L6.80535 34.6704Z" fill="#BABBBC"/>
<path d="M7.23047 36.1299C7.25257 36.0072 7.25257 35.9608 7.33013 35.8658C7.4757 35.8094 7.47807 35.7946 7.62286 35.846L7.65782 35.9971C7.51726 36.0464 7.37736 36.1026 7.23047 36.1299Z" fill="#8B8A69"/>
<path d="M32.5418 31.0083C32.8808 31.0451 33.121 31.1369 33.3875 31.3534C34.491 32.2497 34.9512 34.5032 35.0873 35.8357C35.2759 37.6816 35.1298 40.5899 33.9007 42.0663C33.4872 42.5631 33.0307 42.7856 32.3983 42.8379C32.0356 42.7941 31.7906 42.7208 31.4883 42.4995C30.4563 41.744 29.9986 40.1179 29.8104 38.9206C29.4908 36.8876 29.7151 33.6475 30.9554 31.966C31.369 31.4054 31.8599 31.114 32.5418 31.0083Z" fill="#CBCDCD"/>
<path d="M33.7438 33.4252C33.9666 33.1012 33.6918 33.0411 33.7428 32.7371C33.758 32.6463 33.8085 32.6354 33.8775 32.5811C34.0765 32.8892 34.2285 33.2289 34.3535 33.5734C34.1305 33.4519 34.0011 33.4199 33.7438 33.4252Z" fill="#1D2630"/>
<path d="M32.6836 31.5249C32.9349 31.6459 33.1717 31.7655 33.3807 31.9532C33.1989 32.3385 33.1805 32.8315 33.1285 33.2498C32.8891 32.7446 32.8048 32.0745 32.6836 31.5249Z" fill="#BABBBC"/>
<path d="M30.6914 40.6036C30.6992 40.5776 30.7066 40.5514 30.7148 40.5254C30.8635 40.0514 31.6445 38.3373 32.0419 38.1367C31.7199 39.1681 31.377 40.2627 30.9456 41.2532C30.9391 41.2425 30.9323 41.2319 30.926 41.2209C30.9155 41.2029 30.9056 41.1844 30.8952 41.1662C30.7913 40.9838 30.7438 40.8047 30.6914 40.6036Z" fill="#BABBBC"/>
<path d="M33.3809 31.9531C33.5587 32.1367 33.7671 32.3483 33.8778 32.5812C33.8088 32.6356 33.7583 32.6465 33.7431 32.7372C33.6921 33.0412 33.9668 33.1013 33.7441 33.4254C33.5598 33.8546 33.4993 34.3313 33.3147 34.754C33.0729 34.985 33.1694 35.2975 32.9836 35.5355C32.9092 35.516 32.8743 35.503 32.8105 35.4665C32.9907 34.7607 33.0315 33.9739 33.1287 33.2498C33.1807 32.8314 33.199 32.3384 33.3809 31.9531Z" fill="url(#paint0_linear_755_4383)"/>
<path d="M31.6869 31.8882C31.8223 32.7576 31.9542 34.6897 32.3544 35.3832C32.5077 35.4479 32.6566 35.3243 32.7544 35.4477C32.7654 35.4615 32.7768 35.475 32.7879 35.4887L32.8082 35.4665C32.872 35.5031 32.9069 35.516 32.9813 35.5356C33.1671 35.2975 33.0706 34.9851 33.3124 34.7541C33.1497 35.6102 33.1953 35.8229 33.3188 36.665L33.2657 36.624L33.1643 36.5461C33.163 36.5218 33.1624 36.4975 33.1607 36.4732C33.1431 36.245 32.9838 35.8105 32.79 35.6781C32.6919 35.611 32.5847 35.5749 32.4657 35.6052C32.2623 35.6569 32.1433 35.8652 32.0284 36.0233C32.0425 35.9256 32.0641 35.8176 32.0438 35.7196C31.9436 35.2364 31.2824 33.8864 31.0052 33.4513C30.9533 33.3286 30.9019 33.2069 30.8418 33.088C31.0484 32.5947 31.2666 32.2316 31.6869 31.8882Z" fill="#1D2630"/>
<path d="M31.0052 33.4512C31.2823 33.8863 31.9435 35.2363 32.0438 35.7194C32.0641 35.8175 32.0425 35.9254 32.0284 36.0231C32.1432 35.8651 32.2622 35.6568 32.4657 35.605C32.5847 35.5747 32.6918 35.6109 32.79 35.678C32.9838 35.8104 33.1431 36.2448 33.1606 36.473C33.1624 36.4973 33.163 36.5217 33.1642 36.546L33.0177 36.498C32.9894 36.699 32.998 36.901 32.9695 37.0998C32.9574 37.2606 32.9441 37.4104 32.9033 37.5667C32.8041 37.6864 32.7369 37.7821 32.5827 37.8322C32.4189 37.8277 32.3357 37.7597 32.2106 37.6656L32.0471 37.7694C31.9891 37.725 31.9958 37.7411 31.9661 37.6842C31.8138 37.3937 31.7778 36.9997 31.8596 36.6844C31.8583 36.5344 31.9045 36.3838 31.9373 36.2382L31.8953 36.3183C31.8228 36.4584 31.8175 36.6054 31.6718 36.6719C31.5809 36.6398 31.4982 36.6075 31.4139 36.5607C31.0256 36.3764 30.6429 36.1809 30.266 35.9743C30.2321 36.5848 30.2163 37.1957 30.2185 37.8071C30.0522 37.1631 30.102 36.3438 30.1355 35.6831C30.3021 35.7573 30.4711 35.8256 30.6424 35.8879C30.8528 35.864 31.0846 35.9968 31.2931 36.0361C31.4975 36.0747 31.6608 36.0561 31.8331 35.9355C32.13 35.3511 30.9984 34.0934 31.0025 33.5139C31.0027 33.493 31.0042 33.4722 31.0052 33.4512Z" fill="#C7C6B6"/>
<path d="M32.0254 36.8191C32.0696 36.51 32.1266 36.177 32.3898 35.9716C32.4943 35.8901 32.5551 35.8932 32.681 35.9084C32.8922 36.05 32.9501 36.2651 33.0188 36.4979C32.9905 36.6989 32.9991 36.9009 32.9707 37.0997C32.9586 37.2606 32.9453 37.4103 32.9044 37.5666C32.8052 37.6863 32.738 37.7821 32.5839 37.8322C32.42 37.8277 32.3368 37.7596 32.2117 37.6656C32.1543 37.4405 32.0965 37.2192 32.0634 36.9889L32.0254 36.8191Z" fill="#1D2630"/>
<path d="M32.1094 36.9609C32.1812 36.7217 32.2501 36.4652 32.4408 36.2942C32.5653 36.2569 32.5628 36.2596 32.6826 36.3121C32.8652 36.5429 32.8909 36.7677 32.8958 37.0557C32.88 37.1616 32.8405 37.2468 32.7988 37.3446C32.7435 37.3853 32.7162 37.429 32.643 37.4199C32.4314 37.3936 32.2413 37.1137 32.1094 36.9609Z" fill="#C7C6B6"/>
<path d="M30.219 37.8069C30.2167 37.1955 30.2326 36.5846 30.2665 35.9741C30.6434 36.1807 31.026 36.3762 31.4143 36.5605C31.4987 36.6073 31.5813 36.6396 31.6722 36.6717C31.818 36.6052 31.8233 36.4582 31.8957 36.3181L31.9378 36.238C31.905 36.3837 31.8588 36.5343 31.8601 36.6843C31.7783 36.9996 31.8143 37.3936 31.9666 37.684C31.9963 37.7409 31.9895 37.7248 32.0475 37.7692L32.211 37.6654C32.3362 37.7595 32.4193 37.8275 32.5832 37.8321C32.7374 37.782 32.8045 37.6862 32.9038 37.5665C32.9446 37.4102 32.9579 37.2605 32.97 37.0996C32.9984 36.9008 32.9899 36.6988 33.0182 36.4978L33.1647 36.5458L33.2662 36.6237C33.2513 36.7983 33.2323 36.9714 33.2422 37.1468C33.2484 37.1231 33.2552 37.0997 33.2609 37.0759C33.2855 36.9721 33.2803 37.0136 33.27 36.9043L33.3274 36.8542C33.3645 36.8746 33.3559 36.8631 33.3694 36.9236C33.4581 37.3235 33.2395 38.001 33.0534 38.3445C33.0563 38.6777 33.287 39.1565 33.4035 39.4808C33.7208 39.5603 34.2376 39.584 34.4851 39.7854C34.5036 39.8004 34.5226 39.8147 34.5414 39.8293C34.3962 40.2836 34.2736 40.81 34.0269 41.2189C33.8206 41.5007 33.6337 41.6579 33.3283 41.8236C33.1016 40.6746 32.8922 39.4508 32.833 38.2813C32.7004 38.2821 32.566 38.2872 32.4336 38.2833C32.1713 39.4971 32.0049 40.755 31.6971 41.9541C31.38 41.7631 31.1679 41.5507 30.9445 41.253C31.3759 40.2625 31.7188 39.1679 32.0408 38.1365L31.9711 37.9742C31.9459 37.9148 31.9195 37.8327 31.8808 37.782C31.5958 37.4088 30.6692 38.0428 30.3108 37.9485C30.2462 37.9314 30.2421 37.8627 30.219 37.8069Z" fill="#1D2630"/>
<path d="M33.164 36.546L33.2655 36.6239C33.2506 36.7985 33.2316 36.9716 33.2415 37.147C33.2069 37.35 33.135 37.5138 33.0505 37.6997C32.9529 37.8652 32.8524 38.0678 32.6595 38.1387C32.5237 38.1886 32.391 38.1446 32.2743 38.072C32.1946 38.0223 32.1304 37.9524 32.0671 37.884L32.0469 37.7695L32.2104 37.6657C32.3355 37.7598 32.4187 37.8278 32.5826 37.8323C32.7367 37.7822 32.8039 37.6864 32.9031 37.5668C32.944 37.4104 32.9573 37.2607 32.9694 37.0999C32.9978 36.901 32.9892 36.6991 33.0175 36.498L33.164 36.546Z" fill="#CBCDCD"/>
<path d="M33.4043 39.481C33.7216 39.5605 34.2384 39.5842 34.4859 39.7856C34.5044 39.8006 34.5234 39.8149 34.5422 39.8295C34.397 40.2838 34.2744 40.8102 34.0276 41.2191C33.7109 40.7099 33.5731 40.0539 33.4043 39.481Z" fill="#9B9E73"/>
<path d="M33.7416 33.4254C33.9988 33.42 34.1282 33.452 34.3513 33.5735C34.5775 34.0237 34.8192 34.9092 34.7959 35.4134C34.9128 36.2725 34.8559 37.0933 34.903 37.9496C34.8671 38.5821 34.7125 39.221 34.5408 39.8296C34.522 39.8149 34.503 39.8007 34.4845 39.7857C34.237 39.5843 33.7202 39.5606 33.4029 39.481C33.2864 39.1568 33.0556 38.6779 33.0527 38.3448C33.2389 38.0012 33.4575 37.3237 33.3688 36.9239C33.3553 36.8634 33.3639 36.8749 33.3268 36.8545L33.2693 36.9045C33.2797 37.0138 33.2849 36.9724 33.2603 37.0762C33.2546 37.1 33.2478 37.1234 33.2415 37.147C33.2317 36.9717 33.2507 36.7985 33.2655 36.624L33.3186 36.665C33.1951 35.8229 33.1495 35.6101 33.3122 34.7541C33.4968 34.3313 33.5574 33.8546 33.7416 33.4254Z" fill="#BABBBC"/>
<path d="M33.418 36.8313C33.8892 36.3546 34.3624 35.9303 34.7966 35.4136C34.9135 36.2727 34.8566 37.0934 34.9037 37.9498L34.832 38.079C34.4835 38.0484 33.8741 37.5952 33.4393 37.4813C33.447 37.2645 33.4299 37.0477 33.418 36.8313Z" fill="#1D2630"/>
<path d="M21.0768 13.9302C21.878 13.9283 22.7546 14.0228 23.5147 14.2886C25.4954 14.9812 26.399 16.8674 27.2413 18.6299C27.0926 19.5142 26.9223 20.3911 26.7463 21.2702C26.8832 21.6828 27.0337 22.0959 27.0801 22.5307C25.7813 22.5187 24.483 22.4871 23.1852 22.4361C22.7515 22.4174 21.9213 22.2795 21.5321 22.349C21.207 22.4374 19.1847 22.0058 18.6895 21.9393C18.7984 21.0499 19.0192 20.1593 19.2263 19.2889C19.6551 17.4861 20.0882 15.5236 21.0768 13.9302Z" fill="#020302"/>
<path d="M21.5305 22.3491C21.4381 22.2891 21.3554 22.229 21.296 22.1334C21.18 21.9466 21.1169 21.5143 21.1886 21.3077C21.2845 21.0312 21.5178 20.857 21.7736 20.7347C22.6184 20.3307 25.0468 19.8766 25.9253 20.204C26.3726 20.3707 26.5616 20.8709 26.7447 21.2702C26.8815 21.6829 27.032 22.0959 27.0785 22.5307C25.7797 22.5187 24.4813 22.4871 23.1835 22.4361C22.7499 22.4175 21.9197 22.2796 21.5305 22.3491Z" fill="white"/>
<path d="M21.2507 14.0674C22.0903 14.1029 22.9479 14.1989 23.7306 14.5234C25.4442 15.234 26.4073 16.9272 27.0932 18.5584C26.9342 19.2622 26.7999 19.9732 26.6605 20.6813C26.5319 20.5257 26.4034 20.3602 26.2352 20.2454C25.4782 19.7289 24.1029 20.0109 23.2432 20.1452C22.6389 20.2791 21.563 20.4582 21.195 21.0106C20.9414 21.3912 21.0444 21.8051 21.1379 22.2165C20.4196 22.0704 19.6814 21.9876 18.957 21.8706C19.2482 19.8976 20.3067 15.7558 21.2507 14.0674Z" fill="#D9E459"/>
<path d="M11.9847 24.2646C12.9607 24.286 13.9885 24.4849 14.9483 24.6513C15.3381 24.7189 15.9914 24.9261 16.3533 24.8825L16.403 24.768L16.4604 24.8567C16.4812 24.8291 16.5082 24.8035 16.5178 24.7703L16.5387 24.9491C16.7321 24.9841 16.983 25.0737 17.1658 24.9888L17.2053 24.7845C17.2253 24.9745 17.2488 25.0894 17.35 25.2527C17.9182 25.1932 18.6156 25.2813 19.1727 25.4176C19.2186 25.451 19.2578 25.482 19.3132 25.4991C19.9896 25.7077 21.0404 25.8573 21.7739 26.0141C23.6318 26.4113 25.502 26.8141 27.3359 27.3113C27.4134 27.2737 27.3865 27.2753 27.4603 27.2744C27.6504 27.2718 27.7448 27.2714 27.9036 27.1507C27.7917 30.5658 27.8213 33.9752 27.8219 37.3912C27.8219 37.6695 27.8764 38.9436 27.8069 39.1137C27.8067 39.1144 27.7292 39.1916 27.7248 39.1954C27.7207 39.1992 27.7154 39.2017 27.7107 39.2048C27.1472 39.0626 25.7792 39.0433 25.1159 38.9956C22.7927 38.8282 20.4591 38.6625 18.1323 38.559C17.1778 38.4971 16.2238 38.4273 15.2704 38.3495C15.7255 38.2573 16.7105 38.5241 17.0244 38.3561C16.9168 37.9522 17.0201 37.2138 16.7819 36.8939C16.6867 36.766 14.2136 36.4845 13.8681 36.4524C13.7791 36.4442 13.7005 36.4365 13.6136 36.4136L13.6755 36.3589C13.0868 36.0942 11.0324 36.1866 10.5977 35.8835L10.6237 35.8331C11.1772 35.6237 15.9506 36.3593 16.8963 36.5299L16.8385 35.2469C16.8324 34.4033 16.754 33.5445 16.7097 32.7015C16.6125 30.9918 16.5329 29.2813 16.4711 27.57C16.3351 26.9659 16.4159 26.1759 16.4133 25.5491C14.8354 25.3243 13.4572 24.8288 11.9847 24.2646Z" fill="#F6F7CC"/>
<path d="M16.4711 27.57C16.4844 27.4301 16.4429 27.1414 16.5085 27.0312C16.5351 27.1094 16.5489 27.195 16.5672 27.2755C16.6944 30.3637 16.9486 33.4568 17.0108 36.5457L20.9553 37.0537C22.4675 37.2412 24.0042 37.4106 25.4931 37.7366C24.5693 37.7654 23.6083 37.5934 22.6914 37.4851C20.8057 37.2624 18.919 36.9906 17.0332 36.7837C17.0576 37.2189 17.0825 37.6533 17.0894 38.0894C17.0211 37.6501 16.962 37.2173 16.9316 36.7734C15.8615 36.6333 14.7509 36.4162 13.6755 36.3589C13.0868 36.0942 11.0324 36.1866 10.5977 35.8835L10.6237 35.8331C11.1772 35.6237 15.9506 36.3593 16.8963 36.5299L16.8385 35.2469C16.8324 34.4033 16.754 33.5445 16.7097 32.7015C16.6124 30.9918 16.5329 29.2813 16.4711 27.57Z" fill="#020302"/>
<path d="M11.9863 24.2646C12.9623 24.286 13.9901 24.4849 14.9499 24.6513C15.3398 24.7189 15.993 24.9261 16.3549 24.8825L16.4047 24.768L16.462 24.8567C16.4829 24.8291 16.5098 24.8035 16.5195 24.7703L16.5403 24.9491C16.7338 24.9841 16.9847 25.0737 17.1675 24.9888L17.2069 24.7845C17.227 24.9745 17.2504 25.0894 17.3516 25.2527C17.9198 25.1932 18.6172 25.2813 19.1743 25.4176C19.2203 25.451 19.2595 25.482 19.3148 25.4991C19.9912 25.7077 21.042 25.8573 21.7755 26.0141C23.6334 26.4113 25.5036 26.8141 27.3376 27.3113C26.9947 27.4046 24.8187 26.8625 24.3051 26.7666C22.0534 26.3464 19.7693 26.0925 17.5254 25.6415L16.5423 25.5525C16.5527 26.1186 16.6034 26.7122 16.5688 27.2755C16.5505 27.195 16.5367 27.1094 16.5101 27.0313C16.4445 27.1414 16.486 27.4301 16.4727 27.5701C16.3367 26.966 16.4175 26.176 16.4149 25.5491C14.837 25.3243 13.4589 24.8288 11.9863 24.2646Z" fill="#D9E459"/>
<path d="M30.4234 10.8538C35.6075 10.8356 40.8051 10.9472 45.9407 11.7133C46.9908 11.8699 48.1199 11.9625 49.1122 12.3529C49.8462 12.645 50.5044 13.0041 51.1823 13.4047C53.8011 15.0845 56.1802 17.0334 58.4601 19.1465C59.151 19.7869 59.8661 20.4213 60.5056 21.1126C60.4315 20.7801 60.2099 20.1337 60.4387 19.8459C60.5491 19.7071 60.7616 19.6651 60.9296 19.6666C61.1855 19.669 61.4537 19.7016 61.7073 19.7363C62.3807 19.8212 63.4884 19.9048 63.9349 20.4935C64.1955 20.8372 64.1763 21.234 64.1191 21.6384C63.5612 22.171 62.9098 22.3481 62.1754 22.513C63.0218 22.9172 64.0899 23.0864 65.0075 23.2785C66.4989 23.5932 69.7239 24.2044 70.9344 25.0158C71.5494 25.4279 72.0538 26.1034 72.4548 26.7145C73.086 27.6762 74.1195 29.9071 74.3746 31.0227C74.766 32.7354 74.6303 34.6282 74.5907 36.3767C74.569 37.3345 74.5729 38.3124 74.4827 39.2665C74.4176 39.9572 74.2781 40.6461 74.1817 41.3337C73.8539 41.3351 73.511 41.3573 73.1852 41.3303C72.7748 41.2028 68.3494 41.1189 67.7206 41.2156C67.6401 41.3254 67.6487 41.4871 67.647 41.6229C67.6437 41.8808 67.4876 42.1928 67.3966 42.4367C67.4479 42.194 67.5318 41.9454 67.5707 41.7028C67.5994 41.5379 67.6529 41.4014 67.5737 41.2488C67.4317 41.1959 67.2585 41.2445 67.1122 41.2673C66.3625 41.1025 63.1327 41.1216 62.4551 41.3211L62.4037 41.3778C62.4121 41.4474 62.4225 41.4962 62.4478 41.5616C62.4813 41.6481 62.4875 41.7221 62.5003 41.8133C62.5815 42.3896 63.4195 43.5259 63.8962 43.8863C64.341 44.2228 64.8831 44.3708 65.437 44.2954C65.9139 44.2305 66.2725 43.9917 66.6099 43.6595L66.6173 43.713C66.2473 44.1129 65.6068 44.4948 65.0574 44.5186C64.4742 44.5439 63.9151 44.118 63.5169 43.7288C63.3226 43.5388 63.0518 43.1297 62.8281 43.0261C62.4893 42.5598 62.3273 41.9968 62.2017 41.4421C61.5705 41.4914 60.9251 41.4805 60.2922 41.4694C59.8969 41.3101 58.2226 41.4029 57.6859 41.4032L50.3968 41.4105C49.9782 41.4111 48.333 41.4872 48.0303 41.3989C47.9926 41.3878 47.9665 41.3529 47.9346 41.3298C48.3911 41.1348 50.61 41.441 51.0581 41.2811C50.8444 41.1618 42.3582 41.0959 41.3739 41.1846C41.3445 41.1414 41.3132 41.104 41.2792 41.0644C40.7644 41.0775 40.2526 41.0916 39.7393 41.1365C38.8235 41.1344 37.8184 41.2436 36.9216 41.0616L36.932 41.0371C38.7659 40.8839 40.6322 41.145 42.4606 41.0028L64.2151 41.0794C67.4802 41.0953 70.7421 41.062 74.0078 41.1181C74.049 40.7552 74.0699 40.3878 74.0972 40.0236C73.0288 39.9935 71.9503 40.0442 70.8807 40.0552L65.4001 40.0741L47.6205 40.0319C44.6569 40.0236 41.6895 40.061 38.7265 40.0103C38.1132 39.9035 37.4472 40.0711 36.8529 39.9109C36.9484 39.8219 39.7204 39.9182 40.1949 39.8633C41.0721 39.7661 42.1761 39.8643 43.0805 39.8656L49.888 39.876L62.1379 39.8742C66.144 39.8929 70.1498 39.8679 74.1553 39.7991C74.2834 38.9001 74.2628 37.9592 74.289 37.0515C74.3398 35.2854 74.4853 33.3595 74.191 31.6149C74.0261 30.6369 73.7325 29.701 73.1933 28.8641C72.4325 29.1785 71.6815 29.5132 70.9024 29.7813C70.2729 29.9981 69.5438 30.2214 68.9112 29.8936C68.6066 29.7357 68.1841 29.3203 68.1038 28.9764C67.9637 28.3762 69.7357 25.6022 70.1439 24.9806C67.9799 23.977 64.7629 23.604 62.3952 22.9774C62.8257 23.3121 63.2627 23.6442 63.6607 24.0177C64.6905 24.9845 65.4653 26.0967 65.5097 27.5437C65.1969 26.2226 64.618 25.1987 63.6572 24.2295C63.0488 23.6158 62.1346 22.7608 61.2826 22.5304C60.122 22.2168 58.8084 22.24 57.6137 22.207L53.9136 22.1192C46.3171 21.9553 38.725 22.0615 31.1284 22.0495L31.3861 23.1093C31.9923 23.14 32.5959 23.1981 33.1969 23.2837C33.7979 23.3692 34.3938 23.4817 34.9846 23.6214C36.5985 23.9917 38.1841 24.5428 39.7391 25.1079C41.6119 25.7884 43.4557 26.6273 45.2756 27.4397C45.8003 27.674 46.3155 27.9272 46.8383 28.1638C47.1415 28.3009 47.4698 28.4178 47.7545 28.5902C47.8592 28.6535 47.9912 28.7471 48.0422 28.8634C48.0737 28.9351 48.0761 29.0017 48.0558 29.0751C47.9644 29.4054 47.311 29.8522 47.0235 30.028C46.7787 30.1777 46.5014 30.314 46.21 30.3232C45.2895 30.3524 43.9326 29.9718 42.9896 29.776C41.6852 29.5052 40.3633 29.2529 39.071 28.9307C38.8219 28.8685 38.5212 28.8104 38.2931 28.6923C37.5528 28.3092 36.8085 27.4994 36.3982 26.7845C36.2885 26.5935 36.2194 26.4238 36.276 26.2043C36.7431 25.5536 38.3002 25.2605 39.0656 25.0923C38.3982 24.7761 37.6749 24.5501 36.9723 24.3263C34.2433 23.4571 32.4382 23.3174 29.6116 23.1593C29.6057 23.1355 29.601 23.1113 29.594 23.0878C29.4777 22.6921 29.2751 22.2853 29.1226 21.8985C28.508 20.34 27.8302 18.8802 27.0312 17.4049C26.6111 16.629 26.1654 15.8124 25.6108 15.1239C25.5358 15.0294 25.4567 14.9384 25.3736 14.8511C25.2903 14.7638 25.2033 14.6804 25.1125 14.601C25.0217 14.5216 24.9274 14.4464 24.8297 14.3756C24.7321 14.3047 24.6315 14.2385 24.5278 14.1769C24.023 13.8774 23.4318 13.6491 22.8574 13.5294C22.4708 13.4488 21.9869 13.4248 21.6364 13.2432L21.6525 13.2046L21.9037 13.1687C18.252 12.7559 15.1603 13.518 12.2681 15.8289C11.3217 16.5851 10.3419 17.4342 9.49577 18.3036C9.95692 19.1543 10.0571 20.1347 10.5348 20.9764C11.5719 21.5818 16.105 22.2417 17.5109 22.424C17.0584 23.1436 16.4914 23.9039 16.4046 24.7681L16.3549 24.8826C15.993 24.9261 15.3397 24.719 14.9499 24.6513C13.9901 24.485 12.9623 24.2861 11.9863 24.2647C13.4588 24.8288 14.837 25.3244 16.4149 25.5492C16.4175 26.176 16.3366 26.9661 16.4727 27.5701C16.5344 29.2814 16.614 30.9919 16.7113 32.7016C16.7556 33.5446 16.834 34.4034 16.8401 35.247L16.8979 36.53C15.9522 36.3594 11.1788 35.6238 10.6253 35.8332L10.5993 35.8836C11.034 36.1867 13.0884 36.0943 13.6771 36.359L13.6152 36.4137C13.7021 36.4365 13.7807 36.4443 13.8697 36.4525C14.2152 36.4846 16.6883 36.7661 16.7835 36.894C17.0217 37.2139 16.9184 37.9523 17.026 38.3563C16.7121 38.5242 15.7271 38.2575 15.272 38.3496C14.7565 38.3808 14.1766 38.2844 13.6559 38.2494C12.4596 38.1647 11.2627 38.0884 10.0652 38.0206L9.94676 37.1668C9.95234 36.3878 9.47842 33.7509 9.17889 33.0229L9.09388 33.0328C8.84442 32.6062 8.75495 32.0603 8.56896 31.6007C8.1814 30.6427 7.22687 29.3774 6.1814 29.0938C5.65195 28.9501 5.1007 29.0566 4.64 29.3469C3.5624 30.0256 3.022 31.5919 2.77857 32.7733C2.75749 32.8751 2.73869 32.9746 2.72709 33.0781C2.52656 33.4434 2.47639 35.2812 2.50644 35.7902C2.52931 36.1782 2.59363 36.5443 2.6845 36.9218C2.76423 39.2746 3.1569 41.702 4.48322 43.6992L4.38781 43.7828C3.03486 41.9203 2.66136 39.6674 2.53941 37.4206C2.36098 37.294 2.17574 37.1501 2.03707 36.9799C1.38226 36.1762 1.60303 29.9533 1.69445 28.6889C1.76899 27.6582 2.4593 23.894 3.00678 23.06C3.61964 22.1262 5.44621 21.5407 6.36511 20.7868C7.09689 20.1863 7.69983 19.3272 8.33149 18.6203C9.32104 17.5128 10.4113 16.4142 11.5351 15.4442C12.8217 14.2397 14.5012 13.0233 16.1457 12.3782C17.7115 11.7639 19.4504 11.5885 21.111 11.4005C24.2055 11.0534 27.3096 10.8712 30.4234 10.8538Z" fill="#020302"/>
<path d="M3.31674 23.1348C3.40261 23.4001 3.4248 23.7246 3.42339 24.0029C3.41913 24.8227 2.99918 25.653 2.4309 26.2284L2.39453 26.2004C2.41183 25.7086 2.88147 24.0025 3.07039 23.5379C3.13084 23.3894 3.22078 23.2619 3.31674 23.1348Z" fill="#EDE98C"/>
<path d="M68.7988 29.608C70.166 29.254 71.6408 28.782 72.8624 28.064L73.0771 28.6197C72.1828 29.0615 70.0687 30.0509 69.1156 29.741C69.0063 29.7054 68.9007 29.6611 68.7988 29.608Z" fill="white"/>
<path d="M70.4275 25.0244C71.1802 25.4547 71.7658 26.2181 72.2488 26.9202C72.0591 27.006 69.1193 27.4579 68.9648 27.407C69.4349 26.603 69.9001 25.7927 70.4275 25.0244Z" fill="#C7C6B6"/>
<path d="M60.6323 19.9895C60.957 19.9729 61.2866 19.985 61.6103 20.0126C62.2331 20.0655 63.3302 20.1671 63.7427 20.6975C63.8787 20.8724 63.9496 21.1426 63.8972 21.3605C63.8459 21.5735 63.6207 21.6796 63.4496 21.7868C63.0279 22.0233 62.4818 22.2655 61.9918 22.2625C61.6716 22.2606 61.3779 22.1342 61.1639 21.8939C60.7447 21.4237 60.6152 20.6029 60.6323 19.9895Z" fill="white"/>
<path d="M1.95542 32.3984L1.98696 32.3429C2.2098 31.9425 2.33912 31.4873 2.49836 31.059C2.94176 29.8667 3.59042 28.3965 4.93222 28.0073C4.9685 27.9972 5.00498 27.9879 5.04169 27.9796C5.0784 27.9713 5.11531 27.9639 5.15239 27.9574C5.18942 27.9509 5.22663 27.9454 5.26405 27.9408C5.3014 27.9362 5.33884 27.9326 5.37637 27.9298C5.4139 27.9271 5.45149 27.9252 5.48916 27.9244C5.52683 27.9236 5.56445 27.9237 5.60205 27.9247C5.63971 27.9257 5.67729 27.9276 5.71484 27.9305C5.75237 27.9334 5.78981 27.9373 5.82716 27.942C5.86451 27.9468 5.9017 27.9525 5.93872 27.9591C5.97582 27.9658 6.01269 27.9733 6.04933 27.9817C6.08605 27.9902 6.12251 27.9996 6.15872 28.0099C6.19493 28.0202 6.23084 28.0314 6.2665 28.0434C6.30214 28.0555 6.33747 28.0684 6.37249 28.0823C6.40752 28.0962 6.44214 28.1109 6.47639 28.1265C6.51064 28.142 6.54451 28.1585 6.57794 28.1757C6.61138 28.193 6.64438 28.2111 6.67695 28.23C7.07783 28.4595 7.81794 28.9861 7.95433 29.4367C7.97361 29.5004 7.98333 29.5651 7.994 29.6307L7.95592 29.6917C7.88849 29.5412 7.8577 29.3707 7.78334 29.2269C7.66442 28.9968 7.24615 28.7942 7.05477 28.5919C7.01906 28.6794 6.90938 28.9351 6.94443 29.0189C7.15603 29.525 7.88139 29.5434 8.00456 30.2342C7.43469 29.5499 6.75779 28.844 5.81082 28.7733C5.18512 28.7265 4.59021 28.985 4.12886 29.3957C2.7931 30.5849 2.41365 32.7987 2.32846 34.4881C2.31813 34.738 2.31435 34.988 2.31713 35.2381C2.3085 35.8443 2.32491 36.4498 2.36634 37.0546C1.98405 36.4323 1.97697 35.7372 1.93088 35.0304C1.91049 33.6758 1.88225 32.3241 1.88138 30.969C1.8809 30.323 1.8451 29.6453 1.92567 29.0041C1.9949 30.129 1.83752 31.2779 1.95542 32.3984Z" fill="#C7C6B6"/>
<path d="M72.2521 26.9204C72.3886 27.0912 72.488 27.2765 72.5935 27.467C72.6621 27.6137 72.7374 27.7602 72.7976 27.9105L72.8642 28.064C71.6427 28.782 70.1679 29.254 68.8007 29.6081C68.6123 29.4723 68.4173 29.2613 68.3263 29.0448C68.2474 28.8572 68.2698 28.7135 68.3512 28.532L68.4346 28.3439C68.5999 28.0349 68.7541 27.6833 68.9681 27.4071C69.1226 27.4581 72.0624 27.0062 72.2521 26.9204Z" fill="#8B8A69"/>
<path d="M72.5919 27.4668C72.6604 27.6136 72.7357 27.76 72.7959 27.9104C72.78 27.9056 72.7638 27.9011 72.7479 27.8961C72.5568 27.8363 72.8055 27.9165 72.6207 27.843C72.0611 27.6204 69.2669 28.6114 68.3496 28.5318L68.433 28.3438C69.8336 28.2057 71.1695 27.5257 72.5919 27.4668Z" fill="#9B9E73"/>
<path d="M72.2511 26.9204C72.3876 27.0912 72.487 27.2765 72.5925 27.467C71.1701 27.5258 69.8342 28.2059 68.4336 28.3439C68.5988 28.0349 68.7531 27.6833 68.9671 27.4071C69.1215 27.4581 72.0613 27.0062 72.2511 26.9204Z" fill="#8B8A69"/>
<path d="M47.2363 12.2485C48.0277 12.2828 48.8783 12.519 49.5976 12.8437C50.5159 13.2582 51.3859 13.8497 52.2147 14.4194C55.4839 16.6671 58.5215 19.4028 61.2581 22.2714C60.7982 22.1909 60.3263 22.1556 59.8621 22.1054C59.2138 21.1122 58.1115 20.0303 57.2667 19.1801C54.8828 16.7813 52.2966 14.5165 49.2221 13.0466C48.5737 12.7366 47.8978 12.5226 47.2363 12.2485Z" fill="white"/>
<path d="M39.2093 25.2817C39.7958 25.4439 40.3669 25.6953 40.9299 25.9247C42.22 26.4506 43.4894 27.0348 44.7626 27.6006L44.6915 27.6444C43.6684 27.4629 38.3083 25.9604 37.8437 26.2659C37.7605 26.6518 37.8967 27.0305 38.1109 27.3531C38.7975 28.3873 40.3272 28.5042 41.4528 28.7066L44.5518 29.259C45.0755 29.3516 45.6587 29.5051 46.1895 29.5138C46.3711 29.5169 46.5578 29.4775 46.7055 29.3668C47.3332 28.8963 46.7458 28.9622 47.702 28.9536C47.7149 28.9854 47.7144 29.036 47.7179 29.0705C47.4741 29.4194 46.8731 29.8043 46.4712 29.9634C46.2992 30.0315 46.1471 30.0349 45.9632 30.0221C44.6442 29.9309 43.2555 29.5577 41.9572 29.2889C40.8534 29.0603 39.3989 28.8735 38.3835 28.4306C37.6047 28.091 36.738 27.0777 36.4238 26.2955C37.2803 25.7529 38.2392 25.5256 39.2093 25.2817Z" fill="#B8BA9B"/>
<path d="M47.7034 28.9541C46.7471 28.9627 47.3346 28.8968 46.7069 29.3674C46.5592 29.4781 46.3725 29.5174 46.1909 29.5144C45.6601 29.5057 45.0769 29.3522 44.5531 29.2595L41.4542 28.7071C40.3286 28.5047 38.7989 28.3878 38.1123 27.3536C37.898 27.031 37.7618 26.6523 37.8451 26.2665C38.3097 25.9609 43.6697 27.4635 44.6928 27.6449L44.7639 27.6012C45.7332 27.8448 46.8162 28.4869 47.7034 28.9541Z" fill="#69684C"/>
<path d="M30.4739 11.1327C34.1078 11.0921 37.7372 11.2026 41.3619 11.4641C42.7026 11.572 44.0794 11.6538 45.3989 11.9165C46.6375 12.1632 48.075 12.619 49.1771 13.2436C46.3324 13.0851 43.4854 13.0066 40.6363 13.008C36.023 12.9834 31.4022 12.9545 26.7968 13.2566C25.8143 12.5539 24.6475 12.0364 23.4586 11.8153C22.9512 11.7208 22.4355 11.6846 21.9277 11.5893C24.7397 11.2183 27.6392 11.1764 30.4739 11.1327Z" fill="white"/>
<path d="M3.87062 22.6567C3.89481 22.6707 3.91832 22.686 3.94327 22.6989C4.37542 22.921 6.3466 22.7089 7.16644 23.0403C7.25909 22.9612 7.21951 23.0078 7.28376 22.8992L7.35602 22.9181C7.39833 23.0674 7.24871 24.377 7.24334 24.6541C7.23315 25.1779 7.2611 25.7307 7.34895 26.2476C7.49848 27.1271 8.51618 29.2244 8.50032 29.7403C8.49747 29.8346 8.53582 29.8946 8.57578 29.9748C8.96863 30.7649 9.28094 31.6335 9.55967 32.4705C9.74359 33.0226 10.1261 34.5942 10.401 34.9827L10.374 34.8228C10.4851 35.1047 10.5917 35.3857 10.6867 35.6735C11.0741 35.779 11.5959 35.7326 12.0107 35.7838C13.0255 35.9091 14.0478 36.0285 15.0598 36.1689C15.6255 36.2475 16.1993 36.3826 16.7702 36.403C16.8884 36.0656 16.6183 35.5067 16.8374 35.2466L16.8952 36.5296C15.9495 36.359 11.1761 35.6234 10.6226 35.8328L10.5965 35.8832C11.0312 36.1863 13.0857 36.0939 13.6744 36.3586L13.6125 36.4133C13.6994 36.4361 13.778 36.4439 13.867 36.4521C14.2124 36.4842 16.6856 36.7657 16.7808 36.8936C17.019 37.2135 16.9157 37.952 17.0233 38.3559C16.7094 38.5238 15.7244 38.2571 15.2692 38.3492C14.7538 38.3804 14.1739 38.284 13.6532 38.249C12.4569 38.1643 11.2599 38.088 10.0625 38.0202L9.94405 37.1664C9.94963 36.3874 9.47571 33.7505 9.17618 33.0225C8.968 32.0463 8.50928 31.0887 8.00271 30.2342C7.87953 29.5434 7.15417 29.525 6.94258 29.019C6.90753 28.9351 7.01721 28.6795 7.05292 28.5919C7.2443 28.7943 7.66257 28.9969 7.78149 29.227C7.85582 29.3707 7.88661 29.5413 7.95407 29.6917L7.99215 29.6307C7.98147 29.5652 7.97175 29.5005 7.95248 29.4368C7.81608 28.9861 7.07599 28.4596 6.67509 28.2301C6.64254 28.2112 6.60954 28.193 6.57609 28.1757C6.54265 28.1585 6.50881 28.1421 6.47453 28.1265C6.44028 28.1109 6.40564 28.0962 6.37064 28.0823C6.33564 28.0685 6.30029 28.0555 6.26465 28.0434C6.22901 28.0314 6.19307 28.0202 6.15686 28.0099C6.12065 27.9996 6.08419 27.9902 6.04748 27.9817C6.01084 27.9733 5.97397 27.9658 5.93687 27.9592C5.89984 27.9526 5.86265 27.9469 5.8253 27.9421C5.78795 27.9373 5.75052 27.9335 5.71299 27.9306C5.67546 27.9277 5.63786 27.9257 5.60019 27.9247C5.56259 27.9237 5.52497 27.9236 5.48731 27.9244C5.44964 27.9253 5.41206 27.9271 5.37451 27.9299C5.33698 27.9326 5.29954 27.9363 5.26219 27.9408C5.22478 27.9454 5.18757 27.951 5.15054 27.9575C5.11344 27.9639 5.07655 27.9713 5.03983 27.9797C5.00312 27.988 4.96664 27.9972 4.93036 28.0074C3.58856 28.3965 2.9399 29.8667 2.49651 31.059C2.33724 31.4874 2.20794 31.9426 1.9851 32.343L1.95356 32.3984C1.83567 31.278 1.99305 30.129 1.92381 29.0042C1.91155 28.2845 1.97784 27.2494 2.39357 26.6493C2.60147 26.3492 2.88203 26.0951 3.10127 25.8014C3.78459 24.8862 3.74048 23.9582 3.58055 22.8861C3.6682 22.7991 3.77144 22.7297 3.87062 22.6567Z" fill="#F5F8E3"/>
<path d="M36.1978 13.1519C37.7458 13.1107 48.7786 13.1955 49.5418 13.4793C50.0491 13.6679 50.5198 14.0389 50.9735 14.3306C52.6752 15.4246 54.263 16.5567 55.7358 17.9541C56.7327 18.8989 57.6902 19.882 58.6083 20.9034C58.9387 21.2642 59.3172 21.6226 59.6045 22.0181C59.2633 22.0105 58.9227 21.9937 58.5824 21.9676C58.2497 21.7329 57.8194 21.5935 57.4499 21.4179C56.8266 21.1203 56.2078 20.8135 55.5937 20.4974C51.5352 18.4294 47.392 16.3626 43.0411 14.979C41.644 14.5348 40.2511 14.2064 38.8228 13.884C38.02 13.7029 36.6948 13.3509 35.9152 13.289C35.9007 13.2879 35.8861 13.2878 35.8715 13.2872L35.8429 13.2214L35.8262 13.2538L35.885 13.1931C35.9934 13.19 36.0915 13.1714 36.1978 13.1519Z" fill="#CBCDCD"/>
<path d="M26.8887 13.4402C27.8769 13.3136 28.9124 13.3183 29.9099 13.2849C32.0069 13.2148 34.1027 13.1944 36.2 13.1519C36.0938 13.1713 35.9956 13.1899 35.8873 13.1931L35.8284 13.2538L35.8452 13.2214L35.8738 13.2872C35.8883 13.2878 35.903 13.2879 35.9174 13.289C36.6971 13.3509 38.0223 13.7029 38.825 13.884C40.2533 14.2064 41.6462 14.5348 43.0434 14.979C47.3942 16.3626 51.5375 18.4294 55.596 20.4973C56.2101 20.8135 56.8288 21.1203 57.4521 21.4179C57.8217 21.5935 58.252 21.7329 58.5847 21.9676C57.3944 21.8806 56.1974 21.8698 55.0046 21.8391C53.1807 21.7898 51.3565 21.755 49.532 21.7348C49.2719 21.6535 48.7101 21.057 48.4512 20.8404C47.7834 20.2814 46.9958 19.7487 46.2175 19.3586C42.5958 17.5435 38.7647 16.3193 34.8118 15.466C33.4308 15.1677 32.0267 14.8889 30.6188 14.7523C29.67 14.6603 28.7273 14.6489 27.7747 14.6498C27.5164 14.2169 27.2213 13.8187 26.8887 13.4402Z" fill="#C7C6B6"/>
<path d="M27.7734 14.6495C28.7261 14.6485 29.6688 14.66 30.6175 14.7519C32.0254 14.8885 33.4295 15.1674 34.8105 15.4656C38.7635 16.319 42.5946 17.5431 46.2162 19.3583C46.9945 19.7483 47.7821 20.281 48.4499 20.8401C48.7088 21.0567 49.2706 21.6531 49.5308 21.7344L31.2761 21.7335C30.8493 20.972 30.5324 20.1274 30.1601 19.3359C29.4227 17.7442 28.6271 16.1821 27.7734 14.6495Z" fill="#9B9E73"/>
<path d="M3.87109 22.6567C4.80973 21.9972 5.87592 21.597 6.73965 20.8185C7.11304 20.4821 7.43081 20.0803 7.76446 19.7053C8.35174 19.0339 8.9504 18.3728 9.56042 17.722C11.5128 15.6096 14.6745 12.9402 17.5083 12.2319C20.1941 11.5608 23.4571 11.5358 25.8839 13.0235C26.38 13.3277 26.7451 13.7287 27.0827 14.1975C27.8443 15.2548 28.3955 16.4905 28.9695 17.6563C29.8303 19.4047 30.8194 21.2046 31.2721 23.1096L29.7402 23.0638C28.74 20.3596 27.5989 17.5761 25.9329 15.2064C24.9423 13.7975 23.5208 13.4541 21.9015 13.1683C18.2498 12.7555 15.158 13.5176 12.2659 15.8285C11.3195 16.5847 10.3397 17.4338 9.49355 18.3032C9.9547 19.1539 10.0548 20.1343 10.5326 20.976C11.5697 21.5813 16.1028 22.2413 17.5086 22.4236C17.0562 23.1431 16.4891 23.9035 16.4024 24.7677L16.3527 24.8822C15.9908 24.9257 15.3375 24.7186 14.9477 24.6509C13.9878 24.4846 12.96 24.2856 11.9841 24.2643C13.4566 24.8284 14.8348 25.3239 16.4126 25.5488C16.4153 26.1756 16.3344 26.9657 16.4705 27.5697C16.5322 29.281 16.6118 30.9915 16.7091 32.7012C16.7534 33.5442 16.8318 34.4029 16.8379 35.2466C16.6188 35.5066 16.8889 36.0656 16.7707 36.403C16.1998 36.3826 15.626 36.2475 15.0603 36.1689C14.0483 36.0284 13.026 35.909 12.0112 35.7838C11.5964 35.7326 11.0746 35.779 10.6872 35.6735C10.5922 35.3856 10.4856 35.1046 10.3745 34.8228L10.4015 34.9827C10.1265 34.5942 9.74406 33.0225 9.56017 32.4704C9.28141 31.6334 8.96913 30.7649 8.57628 29.9748C8.53632 29.8945 8.49797 29.8345 8.50081 29.7403C8.51667 29.2244 7.49897 27.1271 7.34944 26.2476C7.26159 25.7307 7.23364 25.1779 7.24384 24.6541C7.24923 24.377 7.39885 23.0673 7.35652 22.9181L7.28426 22.8992C7.22003 23.0077 7.25961 22.9612 7.16693 23.0403C6.34712 22.7089 4.37592 22.921 3.94376 22.6988C3.9188 22.686 3.89526 22.6707 3.87109 22.6567Z" fill="#F7F5CD"/>
<path d="M9.08008 23.7358C9.37857 23.7764 9.72967 23.7913 10.0151 23.8843L9.93041 23.9166C9.62983 24.0341 9.44309 24.2152 9.09765 24.1967L9.08008 23.7358Z" fill="#928617"/>
<path d="M8.08594 23.7224C8.41117 23.7216 8.75424 23.699 9.07663 23.7361L9.0942 24.197C8.72174 24.0188 8.39606 24.046 8.08594 23.7224Z" fill="#D9E459"/>
<path d="M8.08971 23.7221C8.03823 23.5771 7.96408 23.3853 8.02975 23.2342C8.09748 23.0783 8.2862 22.9993 8.44112 22.9649C8.90859 22.8611 9.86738 22.9436 10.2568 23.2294C10.3717 23.3135 10.4064 23.3736 10.449 23.5069C10.4072 23.6298 10.3781 23.7109 10.261 23.7811C10.187 23.8254 10.0963 23.8543 10.0155 23.8843C9.73005 23.7912 9.37894 23.7763 9.08043 23.7358C8.75802 23.6987 8.41494 23.7212 8.08971 23.7221Z" fill="#020302"/>
<path d="M8.37383 23.068C8.66809 23.0456 8.96969 23.0467 9.26233 23.0851C9.54703 23.1223 10.0946 23.1871 10.2702 23.4161C10.2558 23.5445 10.238 23.5478 10.1463 23.642C9.61128 23.6171 8.93203 23.5985 8.41637 23.4628C8.29367 23.4305 8.25077 23.4066 8.1875 23.298C8.22703 23.1634 8.26595 23.1521 8.37383 23.068Z" fill="#EDF2B6"/>
<path d="M31.1264 22.0492C38.7229 22.0613 46.3151 21.955 53.9115 22.1189L57.6116 22.2068C58.8063 22.2397 60.12 22.2165 61.2805 22.5302C62.1326 22.7605 63.0467 23.6155 63.6551 24.2292C64.616 25.1984 65.1948 26.2223 65.5077 27.5434C65.4633 26.0964 64.6884 24.9843 63.6586 24.0174C63.2606 23.6439 62.8237 23.3118 62.3931 22.9772C64.7609 23.6037 67.9779 23.9767 70.1419 24.9804C69.7336 25.602 67.9616 28.3759 68.1017 28.9761C68.182 29.32 68.6045 29.7355 68.9092 29.8934C69.5417 30.2212 70.2709 29.9978 70.9004 29.7811C71.6795 29.5129 72.4304 29.1782 73.1912 28.8639C73.7305 29.7008 74.0241 30.6367 74.189 31.6146C74.4832 33.3593 74.3378 35.2852 74.2869 37.0513C74.2608 37.9589 74.2814 38.8998 74.1533 39.7988C70.1477 39.8676 66.1419 39.8927 62.1358 39.8739L49.886 39.8757L43.0784 39.8653C42.1741 39.8641 41.07 39.7658 40.1929 39.863C39.8192 39.8186 39.4173 39.8422 39.0406 39.8384L36.7856 39.8211C36.7964 39.4733 36.8225 39.1174 36.7914 38.7706C36.974 36.525 36.4174 32.9928 35.4512 30.9666C34.993 30.0057 34.133 28.7394 33.081 28.3633C32.5815 28.0702 32.0857 28.085 31.5291 28.1134L31.488 28.0622C31.0581 28.0506 30.6202 28.4944 30.3153 28.7488L30.2942 28.8003L30.2615 28.7808C30.1644 28.8359 30.065 28.8724 29.9613 28.9127L29.8783 28.8343L29.9114 28.9155L29.8735 28.8909C29.8757 28.8383 29.8722 28.8349 29.8953 28.7779C30.0042 28.5094 30.5838 28.141 30.8377 28.0502C30.8522 28.045 30.8668 28.0403 30.8814 28.0353L30.8272 27.9736C30.7735 27.6899 31.4811 27.5954 31.6157 27.3654L31.5676 27.3016C30.4829 27.8024 29.1609 27.4883 28.0254 27.3142C28.0509 26.0846 28.1895 24.8599 28.3004 23.6359C28.3489 23.4853 28.3422 23.2961 28.3537 23.1377L29.6095 23.1589C32.4361 23.317 34.2412 23.4567 36.9702 24.326C37.6728 24.5497 38.396 24.7757 39.0635 25.092C38.2981 25.2602 36.741 25.5532 36.2739 26.2039C36.2173 26.4235 36.2864 26.5931 36.396 26.7841C36.8064 27.4991 37.5507 28.3089 38.291 28.6919C38.5191 28.81 38.8198 28.8682 39.0689 28.9303C40.3612 29.2525 41.6831 29.5048 42.9875 29.7757C43.9306 29.9715 45.2874 30.352 46.2079 30.3229C46.4993 30.3136 46.7766 30.1773 47.0214 30.0277C47.3089 29.8518 47.9623 29.405 48.0537 29.0748C48.074 29.0014 48.0716 28.9347 48.0401 28.863C47.9891 28.7467 47.8571 28.6531 47.7524 28.5898C47.4677 28.4174 47.1394 28.3006 46.8362 28.1634C46.3134 27.9269 45.7982 27.6736 45.2735 27.4394C43.4536 26.6269 41.6097 25.788 39.737 25.1075C38.182 24.5424 36.5964 23.9913 34.9824 23.621C34.3917 23.4814 33.7958 23.3688 33.1948 23.2833C32.5938 23.1978 31.9902 23.1396 31.384 23.1089L31.1264 22.0492Z" fill="#F0EBBF"/>
<path d="M49.0762 37.54C49.1804 37.4689 49.2898 37.4016 49.4025 37.3445C49.7472 37.1699 50.1515 37.0837 50.5354 37.0581C51.3764 37.0023 52.2345 37.036 53.0778 37.0353L57.5462 37.0334C58.7322 37.0333 66.5082 36.9267 67.0585 37.1129C66.9484 37.2146 66.923 37.2039 66.773 37.2151C65.3755 37.3186 63.8224 37.2208 62.4095 37.2154C59.8291 37.2005 57.2486 37.2024 54.668 37.2211C53.4265 37.2207 50.6446 37.0619 49.5904 37.4475C49.4839 37.4913 49.2443 37.6192 49.139 37.575C49.1169 37.5657 49.097 37.5517 49.0762 37.54Z" fill="#020302"/>
<path d="M69.7713 35.4112C70.1909 35.249 73.399 34.1101 73.6713 34.1708C74.0224 34.5041 74.0334 35.6019 74.0458 36.0619C74.0624 36.6735 74.0456 37.3282 73.9282 37.9301C73.573 38.204 73.233 38.4102 72.8042 38.5496C71.6482 38.9251 68.6893 39.0989 67.4216 39.018C67.2531 38.9815 67.0878 38.9663 66.916 38.9522C67.4357 38.9506 67.9284 38.8445 68.4463 38.8401C68.3618 38.6075 68.2481 38.3867 68.3069 38.1419C68.4743 38.3563 68.6185 38.5728 68.7572 38.8066C70.1586 38.6074 71.6064 38.605 72.9792 38.2409C72.5124 38.0671 72.1847 37.8322 71.7941 37.5293C71.1818 37.6145 69.1519 37.9701 68.6756 37.8167C68.8265 37.624 71.223 37.3621 71.6204 37.3196C71.6652 37.3146 71.7102 37.3106 71.7552 37.3078C71.8854 36.4237 72.2757 35.5625 72.589 34.7287C71.6824 34.9964 70.7114 35.3057 69.7713 35.4112Z" fill="#020302"/>
<path d="M73.4458 34.3877C73.5083 34.4072 73.5351 34.4283 73.5762 34.4828C73.91 34.9261 73.8321 37.1617 73.7348 37.7851C73.5497 37.9478 73.3603 38.0616 73.1466 38.1801C72.9896 38.126 72.838 38.0483 72.6871 37.9789C72.41 37.795 72.2184 37.5855 72.0215 37.3226C72.1377 36.7126 72.5973 35.2577 72.8915 34.7192C73.0089 34.5046 73.2303 34.459 73.4458 34.3877Z" fill="#69684C"/>
<path d="M39.1035 34.5801C40.2646 34.6017 45.8824 35.0664 46.7856 35.454C44.9494 35.2846 43.0987 35.1854 41.2585 35.0612C41.5323 35.8148 41.9732 36.5973 42.3582 37.3015C44.1888 37.3399 46.1918 37.3008 47.9747 37.7704C47.0539 37.8111 46.1164 37.7311 45.1954 37.6957C43.8958 37.6515 42.596 37.614 41.296 37.5832C41.4231 37.9059 41.5644 38.1782 41.8011 38.4374C43.3611 38.5841 44.9244 38.671 46.491 38.6982L47.6752 38.6895C48.0971 38.2822 48.5664 37.8287 49.0769 37.5395C49.0978 37.5512 49.1176 37.5652 49.1397 37.5745C49.245 37.6188 49.4846 37.4908 49.5911 37.447C50.6453 37.0614 53.4271 37.2202 54.6687 37.2206C57.2492 37.2019 59.8297 37.2 62.4102 37.2149C63.8231 37.2203 65.3762 37.3181 66.7737 37.2146C66.9237 37.2034 66.9491 37.2141 67.0592 37.1124C67.5008 37.3217 68.053 37.7129 68.3059 38.1414C68.247 38.3862 68.3608 38.607 68.4452 38.8396C67.9273 38.844 67.4347 38.9502 66.915 38.9517C67.0867 38.9658 67.252 38.981 67.4205 39.0175C66.3056 39.1032 65.1445 39.0535 64.0248 39.0576L56.6271 39.0285L50.9268 39.0253C49.8568 39.0245 48.7561 39.0738 47.6913 38.9794C46.3019 38.9922 44.9136 38.9593 43.5264 38.8806C42.8844 38.8502 42.2035 38.8575 41.5722 38.7425C41.4396 38.7192 41.31 38.6844 41.1834 38.6382C41.0569 38.592 40.9355 38.535 40.8191 38.4672C39.7668 37.8408 39.4029 35.7102 39.1035 34.5801Z" fill="#1D2630"/>
<path d="M39.1035 34.5801C40.2646 34.6017 45.8824 35.0664 46.7856 35.454C44.9494 35.2846 43.0987 35.1854 41.2585 35.0612C41.5323 35.8148 41.9732 36.5973 42.3582 37.3015C44.1888 37.3399 46.1918 37.3008 47.9747 37.7704C47.0539 37.8111 46.1164 37.7311 45.1954 37.6957C43.8958 37.6515 42.596 37.614 41.296 37.5832C41.4231 37.9059 41.5644 38.1782 41.8011 38.4374C43.3611 38.5841 44.9244 38.671 46.491 38.6982C46.8082 38.7737 47.1242 38.7232 47.4398 38.7748C46.1702 38.8305 44.8462 38.7317 43.5761 38.6506C42.8709 38.6057 42.1424 38.5847 41.4426 38.4896C41.0106 38.4309 40.7224 38.2788 40.4638 37.9293C40.2091 37.5851 39.4186 35.4859 39.4724 35.154C39.7653 35.5183 40.0088 36.9775 40.307 37.5554C40.6035 38.1301 41.0416 38.3526 41.6287 38.5393C41.3713 38.1879 41.1911 37.8428 41.0355 37.4366C41.3992 37.3742 41.7697 37.3769 42.1377 37.369C41.7986 36.5732 41.365 35.8094 41.0531 35.0055C40.5637 34.9222 40.0585 34.8885 39.5646 34.8352L39.446 34.7863C39.8721 34.7093 40.5456 34.8624 40.9809 34.9326C41.0407 35.0012 41.0891 35.0615 41.1312 35.1424L41.2758 35.1776L41.1513 35.1655L41.2277 35.1875L41.2577 35.0553C41.6093 34.8876 44.3722 35.2727 45.1588 35.211C45.0419 35.1999 44.929 35.1871 44.8139 35.1632C44.2389 35.0436 39.6634 34.6235 39.2893 34.6851C39.1667 34.9648 39.7615 36.6753 39.9107 37.0579C40.1601 37.6971 40.4343 38.2543 41.1013 38.5304C42.2401 39.0018 47.2231 38.8551 48.7847 38.9232L48.81 38.9088L48.8608 38.946L48.8508 38.9278L48.9272 38.9382C48.5189 38.9439 48.0964 38.9304 47.6913 38.9794C46.3019 38.9922 44.9136 38.9593 43.5264 38.8805C42.8844 38.8501 42.2035 38.8575 41.5723 38.7424C41.4396 38.7192 41.31 38.6844 41.1835 38.6381C41.0569 38.5919 40.9355 38.5349 40.8191 38.4672C39.7668 37.8408 39.4029 35.7102 39.1035 34.5801Z" fill="#020302"/>
<path d="M53.437 28.9082C54.0378 28.8368 54.6615 28.8501 55.2663 28.8369C56.5428 28.8109 57.8194 28.8022 59.0961 28.8107C60.0532 28.8141 61.9533 28.7635 62.8337 28.9137C65.6868 28.9344 66.3781 29.3557 68.4051 31.4076C68.4863 31.4897 68.5655 31.5736 68.6426 31.6595C67.8669 32.275 66.0911 33.6526 65.1632 33.9337C64.5572 34.1172 62.9001 34.0169 62.1962 34.0175L57.0705 34.0195L54.0345 34.0197C53.503 34.0193 52.9336 34.0591 52.4081 33.9904C52.1505 33.9568 51.8967 33.8698 51.657 33.7712C51.1283 33.5538 48.1049 32.139 47.8484 31.8508C47.8376 31.8387 47.8297 31.8244 47.8203 31.8112C48.0543 31.2422 50.855 29.4757 51.5143 29.1997C51.8966 29.0398 52.2541 28.9646 52.6673 28.941C52.9186 28.8971 53.1825 28.9106 53.437 28.9082Z" fill="#1D2630"/>
<path d="M62.8337 28.9136C65.6868 28.9343 66.3781 29.3556 68.4051 31.4075C68.4863 31.4896 68.5655 31.5735 68.6426 31.6593C67.8669 32.2748 66.0911 33.6524 65.1632 33.9336C64.5572 34.1171 62.9001 34.0168 62.1962 34.0173L57.0705 34.0193L54.0345 34.0196C53.503 34.0192 52.9336 34.059 52.4081 33.9903C52.1505 33.9567 51.8967 33.8697 51.657 33.7711C51.1283 33.5537 48.1049 32.1389 47.8484 31.8507C47.8376 31.8386 47.8297 31.8243 47.8203 31.811C48.0543 31.2421 50.855 29.4755 51.5143 29.1996C51.8966 29.0397 52.2541 28.9645 52.6673 28.9409L52.7799 28.9973L52.6925 28.9994C52.5907 29.0029 52.5014 29.0225 52.4019 29.0441C52.326 29.0606 52.2493 29.0742 52.1731 29.089C52.3601 29.1059 52.593 29.0218 52.7549 29.0686L52.7169 29.1361C52.4355 29.1424 52.1772 29.1736 51.9106 29.2689C50.8153 29.661 49.0089 31.0201 48.093 31.7831C48.8631 32.1964 51.775 33.7361 52.5102 33.7831C53.1349 33.823 53.7845 33.787 54.4125 33.7858L58.1816 33.7786L62.9112 33.7826C63.4539 33.7834 64.5536 33.8777 65.0381 33.7406C65.7879 33.5284 67.6522 32.1484 68.2919 31.5973C67.3664 30.6911 66.2629 29.54 64.9386 29.3019C64.2742 29.1825 63.5678 29.1698 62.8941 29.0842C63.1938 29.0272 63.8243 29.2431 64.0646 29.097C63.8383 28.8884 63.1298 29.1294 62.8337 28.9136Z" fill="#020302"/>
<defs>
<linearGradient id="paint0_linear_755_4383" x1="32.6087" y1="33.8638" x2="33.9083" y2="33.593" gradientUnits="userSpaceOnUse">
<stop stop-color="#060606"/>
<stop offset="1" stop-color="#112229"/>
</linearGradient>
</defs>
</svg>
